NotoSansTirhuta-Regular.ufo
<glyph name="udatta_deva" format="2">
  <unicode hex="0951"/>
  <outline>
    <contour>
      <point x="-92" y="671" type="line"/>
      <point x="-92" y="921" type="line"/>
      <point x="-168" y="921" type="line"/>
      <point x="-168" y="671" type="line"/>
    </contour>
  </outline>
</glyph>
<glyph name="anudatta_deva" format="2">
  <unicode hex="0952"/>
  <outline>
    <contour>
      <point x="-413" y="-77" type="line"/>
      <point x="-413" y="-149" type="line"/>
      <point x="-84" y="-149" type="line"/>
      <point x="-84" y="-77" type="line"/>
    </contour>
  </outline>
</glyph>
<glyph name="uni09F6" format="2">
  <advance width="727"/>
  <unicode hex="09F6"/>
  <outline>
    <contour>
      <point x="223" y="0" type="curve" smooth="yes"/>
      <point x="510" y="0"/>
      <point x="629" y="284"/>
      <point x="670" y="618" type="curve"/>
      <point x="593" y="627" type="line"/>
      <point x="551" y="317"/>
      <point x="454" y="72"/>
      <point x="225" y="72" type="curve" smooth="yes"/>
      <point x="153" y="72"/>
      <point x="125" y="93"/>
      <point x="125" y="119" type="curve" smooth="yes"/>
      <point x="125" y="149"/>
      <point x="147" y="160"/>
      <point x="209" y="169" type="curve" smooth="yes"/>
      <point x="282" y="180"/>
      <point x="328" y="195"/>
      <point x="354" y="229" type="curve" smooth="yes"/>
      <point x="370" y="250"/>
      <point x="379" y="277"/>
      <point x="379" y="315" type="curve" smooth="yes"/>
      <point x="379" y="393"/>
      <point x="312" y="448"/>
      <point x="220" y="448" type="curve" smooth="yes"/>
      <point x="116" y="448"/>
      <point x="73" y="397"/>
      <point x="73" y="340" type="curve" smooth="yes"/>
      <point x="73" y="315"/>
      <point x="79" y="292"/>
      <point x="90" y="268" type="curve"/>
      <point x="165" y="285" type="line"/>
      <point x="158" y="298"/>
      <point x="154" y="316"/>
      <point x="154" y="329" type="curve" smooth="yes"/>
      <point x="154" y="357"/>
      <point x="174" y="378"/>
      <point x="221" y="378" type="curve" smooth="yes"/>
      <point x="281" y="378"/>
      <point x="303" y="340"/>
      <point x="303" y="309" type="curve" smooth="yes"/>
      <point x="303" y="262"/>
      <point x="277" y="249"/>
      <point x="197" y="238" type="curve" smooth="yes"/>
      <point x="107" y="226"/>
      <point x="48" y="199"/>
      <point x="48" y="129" type="curve" smooth="yes"/>
      <point x="48" y="54"/>
      <point x="113" y="0"/>
    </contour>
  </outline>
</glyph>
<glyph name="uni09F7" format="2">
  <advance width="297"/>
  <unicode hex="09F7"/>
  <outline>
    <contour>
      <point x="110" y="0" type="line"/>
      <point x="187" y="0" type="line"/>
      <point x="187" y="622" type="line"/>
      <point x="110" y="622" type="line"/>
    </contour>
  </outline>
</glyph>
<glyph name="uniA831" format="2">
  <advance width="437"/>
  <unicode hex="A831"/>
  <outline>
    <contour>
      <point x="278" y="622" type="line"/>
      <point x="278" y="0" type="line"/>
      <point x="359" y="0" type="line"/>
      <point x="359" y="622" type="line"/>
    </contour>
    <contour>
      <point x="78" y="622" type="line"/>
      <point x="78" y="0" type="line"/>
      <point x="159" y="0" type="line"/>
      <point x="159" y="622" type="line"/>
    </contour>
  </outline>
</glyph>
<glyph name="anji_tirh" format="2">
  <advance width="767"/>
  <unicode hex="11480"/>
  <outline>
    <contour>
      <point x="125" y="-63" type="line"/>
      <point x="306" y="412" type="line"/>
      <point x="319" y="415"/>
      <point x="332" y="417"/>
      <point x="347" y="417" type="curve" smooth="yes"/>
      <point x="415" y="417"/>
      <point x="441" y="391"/>
      <point x="441" y="346" type="curve" smooth="yes"/>
      <point x="441" y="313"/>
      <point x="424" y="285"/>
      <point x="373" y="285" type="curve" smooth="yes"/>
      <point x="364" y="285"/>
      <point x="355" y="285"/>
      <point x="347" y="286" type="curve"/>
      <point x="337" y="219" type="line"/>
      <point x="350" y="216"/>
      <point x="367" y="215"/>
      <point x="387" y="215" type="curve" smooth="yes"/>
      <point x="452" y="215"/>
      <point x="521" y="249"/>
      <point x="521" y="351" type="curve" smooth="yes"/>
      <point x="521" y="403"/>
      <point x="487" y="488"/>
      <point x="350" y="488" type="curve" smooth="yes"/>
      <point x="345" y="488"/>
      <point x="340" y="488"/>
      <point x="335" y="487" type="curve"/>
      <point x="359" y="551" type="line" smooth="yes"/>
      <point x="406" y="674"/>
      <point x="483" y="779"/>
      <point x="593" y="779" type="curve" smooth="yes"/>
      <point x="661" y="779"/>
      <point x="687" y="753"/>
      <point x="687" y="708" type="curve" smooth="yes"/>
      <point x="687" y="675"/>
      <point x="670" y="647"/>
      <point x="619" y="647" type="curve" smooth="yes"/>
      <point x="610" y="647"/>
      <point x="601" y="647"/>
      <point x="593" y="648" type="curve"/>
      <point x="583" y="581" type="line"/>
      <point x="596" y="578"/>
      <point x="613" y="577"/>
      <point x="633" y="577" type="curve" smooth="yes"/>
      <point x="698" y="577"/>
      <point x="767" y="611"/>
      <point x="767" y="713" type="curve" smooth="yes"/>
      <point x="767" y="765"/>
      <point x="733" y="850"/>
      <point x="596" y="850" type="curve" smooth="yes"/>
      <point x="455" y="850"/>
      <point x="352" y="752"/>
      <point x="277" y="554" type="curve" smooth="yes"/>
      <point x="50" y="-47" type="line"/>
    </contour>
  </outline>
</glyph>
<glyph name="a_tirh" format="2">
  <advance width="732"/>
  <unicode hex="11481"/>
  <outline>
    <contour>
      <point x="580" y="0" type="curve"/>
      <point x="657" y="0" type="line"/>
      <point x="657" y="551" type="line"/>
      <point x="742" y="551" type="line"/>
      <point x="742" y="622" type="line"/>
      <point x="495" y="622" type="line"/>
      <point x="495" y="551" type="line"/>
      <point x="580" y="551" type="line"/>
      <point x="580" y="154" type="line" smooth="yes"/>
      <point x="580" y="136"/>
      <point x="581" y="102"/>
      <point x="583" y="80" type="curve"/>
      <point x="541" y="119"/>
      <point x="442" y="179"/>
      <point x="362" y="186" type="curve"/>
      <point x="355" y="170" type="line"/>
      <point x="501" y="183"/>
      <point x="547" y="248"/>
      <point x="547" y="313" type="curve" smooth="yes"/>
      <point x="547" y="367"/>
      <point x="514" y="403"/>
      <point x="463" y="417" type="curve"/>
      <point x="468" y="436"/>
      <point x="470" y="455"/>
      <point x="470" y="474" type="curve" smooth="yes"/>
      <point x="470" y="553"/>
      <point x="425" y="628"/>
      <point x="308" y="628" type="curve" smooth="yes"/>
      <point x="223" y="628"/>
      <point x="170" y="585"/>
      <point x="170" y="518" type="curve" smooth="yes"/>
      <point x="170" y="507"/>
      <point x="175" y="478"/>
      <point x="185" y="463" type="curve"/>
      <point x="256" y="477" type="line"/>
      <point x="250" y="489"/>
      <point x="248" y="503"/>
      <point x="248" y="512" type="curve" smooth="yes"/>
      <point x="248" y="538"/>
      <point x="265" y="562"/>
      <point x="308" y="562" type="curve" smooth="yes"/>
      <point x="367" y="562"/>
      <point x="395" y="523"/>
      <point x="395" y="475" type="curve" smooth="yes"/>
      <point x="395" y="428"/>
      <point x="381" y="366"/>
      <point x="273" y="366" type="curve" smooth="yes"/>
      <point x="191" y="366"/>
      <point x="102" y="399"/>
      <point x="49" y="445" type="curve"/>
      <point x="10" y="385" type="line"/>
      <point x="88" y="321"/>
      <point x="179" y="293"/>
      <point x="269" y="293" type="curve" smooth="yes"/>
      <point x="347" y="293"/>
      <point x="405" y="319"/>
      <point x="434" y="358" type="curve"/>
      <point x="456" y="351"/>
      <point x="472" y="335"/>
      <point x="472" y="312" type="curve" smooth="yes"/>
      <point x="472" y="275"/>
      <point x="448" y="221"/>
      <point x="261" y="221" type="curve" smooth="yes"/>
      <point x="244" y="221" type="line"/>
      <point x="269" y="143" type="line"/>
      <point x="365" y="127"/>
      <point x="505" y="76"/>
    </contour>
  </outline>
</glyph>
<glyph name="aa_tirh" format="2">
  <advance width="950"/>
  <unicode hex="11482"/>
  <outline>
    <contour>
      <point x="580" y="0" type="curve"/>
      <point x="657" y="0" type="line"/>
      <point x="657" y="551" type="line"/>
      <point x="689" y="551" type="line" smooth="yes"/>
      <point x="728" y="551"/>
      <point x="755" y="531"/>
      <point x="778" y="479" type="curve"/>
      <point x="778" y="0" type="line"/>
      <point x="855" y="0" type="line"/>
      <point x="855" y="551" type="line"/>
      <point x="960" y="551" type="line"/>
      <point x="960" y="622" type="line"/>
      <point x="854" y="622" type="line"/>
      <point x="831" y="688" type="line"/>
      <point x="778" y="688" type="line"/>
      <point x="778" y="613" type="line" smooth="yes"/>
      <point x="778" y="597"/>
      <point x="779" y="568"/>
      <point x="781" y="560" type="curve"/>
      <point x="759" y="601"/>
      <point x="725" y="622"/>
      <point x="689" y="622" type="curve" smooth="yes"/>
      <point x="495" y="622" type="line"/>
      <point x="495" y="551" type="line"/>
      <point x="580" y="551" type="line"/>
      <point x="580" y="154" type="line" smooth="yes"/>
      <point x="580" y="136"/>
      <point x="581" y="102"/>
      <point x="583" y="80" type="curve"/>
      <point x="541" y="119"/>
      <point x="481" y="157"/>
      <point x="362" y="186" type="curve"/>
      <point x="355" y="170" type="line"/>
      <point x="496" y="180"/>
      <point x="547" y="245"/>
      <point x="547" y="317" type="curve" smooth="yes"/>
      <point x="547" y="367"/>
      <point x="514" y="403"/>
      <point x="463" y="417" type="curve"/>
      <point x="468" y="436"/>
      <point x="470" y="455"/>
      <point x="470" y="474" type="curve" smooth="yes"/>
      <point x="470" y="553"/>
      <point x="425" y="628"/>
      <point x="308" y="628" type="curve" smooth="yes"/>
      <point x="223" y="628"/>
      <point x="170" y="585"/>
      <point x="170" y="518" type="curve" smooth="yes"/>
      <point x="170" y="507"/>
      <point x="175" y="478"/>
      <point x="185" y="463" type="curve"/>
      <point x="256" y="477" type="line"/>
      <point x="250" y="489"/>
      <point x="248" y="503"/>
      <point x="248" y="512" type="curve" smooth="yes"/>
      <point x="248" y="538"/>
      <point x="265" y="562"/>
      <point x="308" y="562" type="curve" smooth="yes"/>
      <point x="367" y="562"/>
      <point x="395" y="523"/>
      <point x="395" y="475" type="curve" smooth="yes"/>
      <point x="395" y="428"/>
      <point x="381" y="366"/>
      <point x="273" y="366" type="curve" smooth="yes"/>
      <point x="191" y="366"/>
      <point x="102" y="399"/>
      <point x="49" y="445" type="curve"/>
      <point x="10" y="385" type="line"/>
      <point x="88" y="316"/>
      <point x="187" y="293"/>
      <point x="277" y="293" type="curve" smooth="yes"/>
      <point x="355" y="293"/>
      <point x="405" y="319"/>
      <point x="434" y="358" type="curve"/>
      <point x="456" y="351"/>
      <point x="472" y="335"/>
      <point x="472" y="312" type="curve" smooth="yes"/>
      <point x="472" y="275"/>
      <point x="448" y="221"/>
      <point x="261" y="221" type="curve" smooth="yes"/>
      <point x="244" y="221" type="line"/>
      <point x="269" y="143" type="line"/>
      <point x="365" y="127"/>
      <point x="505" y="76"/>
    </contour>
  </outline>
</glyph>
<glyph name="i_tirh" format="2">
  <advance width="801"/>
  <unicode hex="11483"/>
  <outline>
    <contour>
      <point x="629" y="0" type="line"/>
      <point x="706" y="0" type="line"/>
      <point x="706" y="551" type="line"/>
      <point x="811" y="551" type="line"/>
      <point x="811" y="622" type="line"/>
      <point x="705" y="622" type="line"/>
      <point x="682" y="688" type="line"/>
      <point x="629" y="688" type="line"/>
      <point x="629" y="514" type="line"/>
      <point x="594" y="570"/>
      <point x="532" y="628"/>
      <point x="435" y="628" type="curve" smooth="yes"/>
      <point x="297" y="628"/>
      <point x="217" y="544"/>
      <point x="217" y="444" type="curve" smooth="yes"/>
      <point x="217" y="375"/>
      <point x="256" y="295"/>
      <point x="351" y="295" type="curve" smooth="yes"/>
      <point x="403" y="295"/>
      <point x="457" y="323"/>
      <point x="482" y="385" type="curve"/>
      <point x="468" y="384" type="line"/>
      <point x="481" y="355"/>
      <point x="485" y="337"/>
      <point x="485" y="306" type="curve" smooth="yes"/>
      <point x="485" y="214"/>
      <point x="434" y="160"/>
      <point x="343" y="160" type="curve" smooth="yes"/>
      <point x="190" y="160"/>
      <point x="113" y="380"/>
      <point x="93" y="538" type="curve"/>
      <point x="20" y="522" type="line"/>
      <point x="57" y="289"/>
      <point x="152" y="84"/>
      <point x="343" y="84" type="curve" smooth="yes"/>
      <point x="470" y="84"/>
      <point x="561" y="158"/>
      <point x="561" y="305" type="curve" smooth="yes"/>
      <point x="561" y="348"/>
      <point x="545" y="401"/>
      <point x="513" y="452" type="curve"/>
      <point x="448" y="466" type="line"/>
      <point x="425" y="394"/>
      <point x="385" y="366"/>
      <point x="357" y="366" type="curve" smooth="yes"/>
      <point x="317" y="366"/>
      <point x="298" y="404"/>
      <point x="298" y="448" type="curve" smooth="yes"/>
      <point x="298" y="512"/>
      <point x="340" y="557"/>
      <point x="436" y="557" type="curve" smooth="yes"/>
      <point x="553" y="557"/>
      <point x="613" y="427"/>
      <point x="629" y="358" type="curve"/>
    </contour>
  </outline>
</glyph>
<glyph name="ii_tirh" format="2">
  <advance width="817"/>
  <unicode hex="11484"/>
  <outline>
    <contour>
      <point x="364" y="-11" type="curve" smooth="yes"/>
      <point x="520" y="-11"/>
      <point x="587" y="80"/>
      <point x="587" y="194" type="curve" smooth="yes"/>
      <point x="587" y="243"/>
      <point x="574" y="286"/>
      <point x="550" y="324" type="curve"/>
      <point x="552" y="275" type="line"/>
      <point x="560" y="297"/>
      <point x="567" y="318"/>
      <point x="567" y="345" type="curve" smooth="yes"/>
      <point x="567" y="393"/>
      <point x="545" y="442"/>
      <point x="517" y="476" type="curve"/>
      <point x="458" y="486" type="line"/>
      <point x="424" y="446"/>
      <point x="388" y="418"/>
      <point x="351" y="418" type="curve" smooth="yes"/>
      <point x="333" y="418"/>
      <point x="304" y="429"/>
      <point x="304" y="472" type="curve" smooth="yes"/>
      <point x="304" y="521"/>
      <point x="346" y="557"/>
      <point x="421" y="557" type="curve" smooth="yes"/>
      <point x="559" y="557"/>
      <point x="626" y="424"/>
      <point x="645" y="355" type="curve"/>
      <point x="645" y="0" type="line"/>
      <point x="722" y="0" type="line"/>
      <point x="722" y="551" type="line"/>
      <point x="827" y="551" type="line"/>
      <point x="827" y="622" type="line"/>
      <point x="721" y="622" type="line"/>
      <point x="698" y="688" type="line"/>
      <point x="645" y="688" type="line"/>
      <point x="645" y="494" type="line"/>
      <point x="604" y="556"/>
      <point x="528" y="628"/>
      <point x="424" y="628" type="curve" smooth="yes"/>
      <point x="297" y="628"/>
      <point x="223" y="561"/>
      <point x="223" y="473" type="curve" smooth="yes"/>
      <point x="223" y="404"/>
      <point x="268" y="346"/>
      <point x="353" y="346" type="curve" smooth="yes"/>
      <point x="405" y="346"/>
      <point x="445" y="370"/>
      <point x="477" y="416" type="curve"/>
      <point x="485" y="398"/>
      <point x="491" y="378"/>
      <point x="491" y="351" type="curve" smooth="yes"/>
      <point x="491" y="298"/>
      <point x="453" y="238"/>
      <point x="362" y="238" type="curve" smooth="yes"/>
      <point x="255" y="238"/>
      <point x="181" y="327"/>
      <point x="138" y="488" type="curve"/>
      <point x="72" y="470" type="line"/>
      <point x="121" y="273"/>
      <point x="230" y="162"/>
      <point x="356" y="162" type="curve" smooth="yes"/>
      <point x="426" y="162"/>
      <point x="476" y="182"/>
      <point x="510" y="214" type="curve"/>
      <point x="511" y="209"/>
      <point x="511" y="203"/>
      <point x="511" y="197" type="curve" smooth="yes"/>
      <point x="511" y="109"/>
      <point x="455" y="65"/>
      <point x="364" y="65" type="curve" smooth="yes"/>
      <point x="228" y="65"/>
      <point x="136" y="173"/>
      <point x="85" y="323" type="curve"/>
      <point x="20" y="298" type="line"/>
      <point x="87" y="99"/>
      <point x="201" y="-11"/>
    </contour>
  </outline>
</glyph>
<glyph name="u_tirh" format="2">
  <advance width="707"/>
  <unicode hex="11485"/>
  <outline>
    <contour>
      <point x="408" y="0" type="curve" smooth="yes"/>
      <point x="562" y="0"/>
      <point x="657" y="95"/>
      <point x="657" y="271" type="curve" smooth="yes"/>
      <point x="657" y="338"/>
      <point x="633" y="405"/>
      <point x="590" y="468" type="curve"/>
      <point x="530" y="459" type="line"/>
      <point x="473" y="376"/>
      <point x="432" y="342"/>
      <point x="394" y="342" type="curve" smooth="yes"/>
      <point x="383" y="342"/>
      <point x="376" y="344"/>
      <point x="368" y="353" type="curve" smooth="yes"/>
      <point x="361" y="360"/>
      <point x="356" y="369"/>
      <point x="356" y="398" type="curve" smooth="yes"/>
      <point x="356" y="537" type="line"/>
      <point x="486" y="550"/>
      <point x="555" y="637"/>
      <point x="580" y="731" type="curve"/>
      <point x="508" y="744" type="line"/>
      <point x="487" y="676"/>
      <point x="433" y="607"/>
      <point x="321" y="607" type="curve" smooth="yes"/>
      <point x="220" y="607"/>
      <point x="157" y="666"/>
      <point x="134" y="744" type="curve"/>
      <point x="62" y="731" type="line"/>
      <point x="92" y="617"/>
      <point x="171" y="552"/>
      <point x="280" y="538" type="curve"/>
      <point x="280" y="412" type="line" smooth="yes"/>
      <point x="280" y="339"/>
      <point x="297" y="313"/>
      <point x="318" y="294" type="curve" smooth="yes"/>
      <point x="337" y="277"/>
      <point x="364" y="268"/>
      <point x="395" y="268" type="curve" smooth="yes"/>
      <point x="447" y="268"/>
      <point x="502" y="302"/>
      <point x="554" y="375" type="curve"/>
      <point x="571" y="349"/>
      <point x="582" y="315"/>
      <point x="582" y="269" type="curve" smooth="yes"/>
      <point x="582" y="135"/>
      <point x="510" y="76"/>
      <point x="404" y="76" type="curve" smooth="yes"/>
      <point x="251" y="76"/>
      <point x="135" y="252"/>
      <point x="93" y="514" type="curve"/>
      <point x="20" y="498" type="line"/>
      <point x="77" y="160"/>
      <point x="226" y="0"/>
    </contour>
    <contour>
      <point x="315" y="669" type="curve" smooth="yes"/>
      <point x="340" y="669"/>
      <point x="359" y="684"/>
      <point x="359" y="711" type="curve" smooth="yes"/>
      <point x="359" y="739"/>
      <point x="344" y="754"/>
      <point x="314" y="754" type="curve" smooth="yes"/>
      <point x="284" y="754"/>
      <point x="271" y="735"/>
      <point x="271" y="714" type="curve" smooth="yes"/>
      <point x="271" y="687"/>
      <point x="286" y="669"/>
    </contour>
  </outline>
</glyph>
<glyph name="uu_tirh" format="2">
  <advance width="680"/>
  <unicode hex="11486"/>
  <outline>
    <contour>
      <point x="397" y="-10" type="curve" smooth="yes"/>
      <point x="557" y="-10"/>
      <point x="654" y="80"/>
      <point x="654" y="223" type="curve" smooth="yes"/>
      <point x="654" y="253"/>
      <point x="645" y="285"/>
      <point x="633" y="311" type="curve"/>
      <point x="645" y="339"/>
      <point x="651" y="371"/>
      <point x="651" y="405" type="curve" smooth="yes"/>
      <point x="651" y="440"/>
      <point x="630" y="501"/>
      <point x="602" y="534" type="curve"/>
      <point x="539" y="521" type="line"/>
      <point x="522" y="477"/>
      <point x="457" y="433"/>
      <point x="421" y="433" type="curve" smooth="yes"/>
      <point x="389" y="433"/>
      <point x="383" y="466"/>
      <point x="383" y="489" type="curve" smooth="yes"/>
      <point x="383" y="537" type="line"/>
      <point x="518" y="547"/>
      <point x="588" y="636"/>
      <point x="614" y="731" type="curve"/>
      <point x="542" y="744" type="line"/>
      <point x="521" y="676"/>
      <point x="467" y="607"/>
      <point x="355" y="607" type="curve" smooth="yes"/>
      <point x="254" y="607"/>
      <point x="191" y="666"/>
      <point x="168" y="744" type="curve"/>
      <point x="96" y="731" type="line"/>
      <point x="125" y="620"/>
      <point x="201" y="555"/>
      <point x="307" y="539" type="curve"/>
      <point x="307" y="485" type="line" smooth="yes"/>
      <point x="307" y="421"/>
      <point x="337" y="359"/>
      <point x="422" y="359" type="curve" smooth="yes"/>
      <point x="474" y="359"/>
      <point x="535" y="396"/>
      <point x="566" y="449" type="curve"/>
      <point x="575" y="438"/>
      <point x="576" y="408"/>
      <point x="576" y="403" type="curve" smooth="yes"/>
      <point x="576" y="308"/>
      <point x="517" y="263"/>
      <point x="411" y="263" type="curve" smooth="yes"/>
      <point x="303" y="263"/>
      <point x="225" y="332"/>
      <point x="178" y="486" type="curve"/>
      <point x="110" y="470" type="line"/>
      <point x="175" y="251"/>
      <point x="291" y="187"/>
      <point x="400" y="187" type="curve" smooth="yes"/>
      <point x="481" y="187"/>
      <point x="540" y="206"/>
      <point x="581" y="239" type="curve"/>
      <point x="581" y="230" type="line" smooth="yes"/>
      <point x="581" y="123"/>
      <point x="518" y="66"/>
      <point x="397" y="66" type="curve" smooth="yes"/>
      <point x="246" y="66"/>
      <point x="161" y="175"/>
      <point x="109" y="334" type="curve"/>
      <point x="44" y="311" type="line"/>
      <point x="110" y="91"/>
      <point x="225" y="-10"/>
    </contour>
    <contour>
      <point x="349" y="669" type="curve" smooth="yes"/>
      <point x="374" y="669"/>
      <point x="393" y="684"/>
      <point x="393" y="711" type="curve" smooth="yes"/>
      <point x="393" y="739"/>
      <point x="378" y="754"/>
      <point x="348" y="754" type="curve" smooth="yes"/>
      <point x="318" y="754"/>
      <point x="305" y="735"/>
      <point x="305" y="714" type="curve" smooth="yes"/>
      <point x="305" y="687"/>
      <point x="320" y="669"/>
    </contour>
  </outline>
</glyph>
<glyph name="rVocalic_tirh" format="2">
  <advance width="769"/>
  <unicode hex="11487"/>
  <outline>
    <contour>
      <point x="619" y="-30" type="curve" smooth="yes"/>
      <point x="657" y="-30"/>
      <point x="690" y="-23"/>
      <point x="716" y="-13" type="curve"/>
      <point x="716" y="55" type="line"/>
      <point x="692" y="43"/>
      <point x="658" y="35"/>
      <point x="620" y="35" type="curve" smooth="yes"/>
      <point x="584" y="35"/>
      <point x="560" y="51"/>
      <point x="560" y="87" type="curve" smooth="yes"/>
      <point x="560" y="112"/>
      <point x="574" y="143"/>
      <point x="617" y="143" type="curve" smooth="yes"/>
      <point x="631" y="143"/>
      <point x="646" y="139"/>
      <point x="650" y="137" type="curve"/>
      <point x="674" y="170" type="line"/>
      <point x="674" y="551" type="line"/>
      <point x="779" y="551" type="line"/>
      <point x="779" y="622" type="line"/>
      <point x="673" y="622" type="line"/>
      <point x="650" y="688" type="line"/>
      <point x="597" y="688" type="line"/>
      <point x="597" y="281" type="line"/>
      <point x="546" y="329"/>
      <point x="491" y="372"/>
      <point x="433" y="410" type="curve"/>
      <point x="433" y="652" type="line"/>
      <point x="413" y="660"/>
      <point x="387" y="662"/>
      <point x="359" y="662" type="curve" smooth="yes"/>
      <point x="268" y="662"/>
      <point x="164" y="605"/>
      <point x="92" y="528" type="curve"/>
      <point x="107" y="493" type="line"/>
      <point x="171" y="472"/>
      <point x="232" y="448"/>
      <point x="291" y="419" type="curve"/>
      <point x="190" y="381"/>
      <point x="98" y="330"/>
      <point x="50" y="300" type="curve"/>
      <point x="84" y="219" type="line"/>
      <point x="219" y="199"/>
      <point x="279" y="112"/>
      <point x="356" y="0" type="curve"/>
      <point x="433" y="0" type="line"/>
      <point x="433" y="336" type="line"/>
      <point x="489" y="298"/>
      <point x="541" y="254"/>
      <point x="589" y="204" type="curve"/>
      <point x="527" y="192"/>
      <point x="491" y="144"/>
      <point x="491" y="83" type="curve" smooth="yes"/>
      <point x="491" y="6"/>
      <point x="544" y="-30"/>
    </contour>
    <contour>
      <point x="359" y="108" type="curve"/>
      <point x="304" y="197"/>
      <point x="230" y="253"/>
      <point x="138" y="274" type="curve"/>
      <point x="221" y="321"/>
      <point x="270" y="344"/>
      <point x="356" y="372" type="curve"/>
      <point x="356" y="187" type="line" smooth="yes"/>
      <point x="356" y="154"/>
      <point x="357" y="131"/>
    </contour>
    <contour>
      <point x="356" y="456" type="line"/>
      <point x="303" y="485"/>
      <point x="249" y="510"/>
      <point x="192" y="531" type="curve"/>
      <point x="235" y="570"/>
      <point x="300" y="595"/>
      <point x="344" y="595" type="curve" smooth="yes"/>
      <point x="348" y="595"/>
      <point x="352" y="595"/>
      <point x="356" y="595" type="curve"/>
    </contour>
  </outline>
</glyph>
<glyph name="rrVocalic_tirh" format="2">
  <advance width="769"/>
  <unicode hex="11488"/>
  <outline>
    <contour>
      <point x="619" y="-160" type="curve" smooth="yes"/>
      <point x="657" y="-160"/>
      <point x="690" y="-153"/>
      <point x="716" y="-143" type="curve"/>
      <point x="716" y="-75" type="line"/>
      <point x="692" y="-87"/>
      <point x="658" y="-95"/>
      <point x="620" y="-95" type="curve" smooth="yes"/>
      <point x="584" y="-95"/>
      <point x="560" y="-80"/>
      <point x="560" y="-53" type="curve" smooth="yes"/>
      <point x="560" y="-38"/>
      <point x="563" y="-21"/>
      <point x="592" y="-8" type="curve"/>
      <point x="601" y="-9"/>
      <point x="610" y="-10"/>
      <point x="619" y="-10" type="curve" smooth="yes"/>
      <point x="648" y="-10"/>
      <point x="674" y="-6"/>
      <point x="697" y="1" type="curve"/>
      <point x="697" y="67" type="line"/>
      <point x="675" y="60"/>
      <point x="649" y="55"/>
      <point x="620" y="55" type="curve" smooth="yes"/>
      <point x="584" y="55"/>
      <point x="560" y="70"/>
      <point x="560" y="96" type="curve" smooth="yes"/>
      <point x="560" y="120"/>
      <point x="574" y="143"/>
      <point x="617" y="143" type="curve" smooth="yes"/>
      <point x="632" y="143"/>
      <point x="640" y="141"/>
      <point x="650" y="138" type="curve"/>
      <point x="674" y="170" type="line"/>
      <point x="674" y="551" type="line"/>
      <point x="779" y="551" type="line"/>
      <point x="779" y="622" type="line"/>
      <point x="673" y="622" type="line"/>
      <point x="650" y="688" type="line"/>
      <point x="597" y="688" type="line"/>
      <point x="597" y="281" type="line"/>
      <point x="546" y="329"/>
      <point x="491" y="372"/>
      <point x="433" y="410" type="curve"/>
      <point x="433" y="652" type="line"/>
      <point x="413" y="660"/>
      <point x="387" y="662"/>
      <point x="359" y="662" type="curve" smooth="yes"/>
      <point x="268" y="662"/>
      <point x="155" y="595"/>
      <point x="92" y="528" type="curve"/>
      <point x="107" y="493" type="line"/>
      <point x="171" y="472"/>
      <point x="232" y="448"/>
      <point x="291" y="419" type="curve"/>
      <point x="190" y="381"/>
      <point x="98" y="330"/>
      <point x="50" y="300" type="curve"/>
      <point x="84" y="219" type="line"/>
      <point x="219" y="199"/>
      <point x="279" y="112"/>
      <point x="356" y="0" type="curve"/>
      <point x="433" y="0" type="line"/>
      <point x="433" y="336" type="line"/>
      <point x="489" y="298"/>
      <point x="541" y="254"/>
      <point x="589" y="204" type="curve"/>
      <point x="527" y="192"/>
      <point x="491" y="145"/>
      <point x="491" y="94" type="curve" smooth="yes"/>
      <point x="491" y="58"/>
      <point x="503" y="32"/>
      <point x="524" y="15" type="curve"/>
      <point x="500" y="-4"/>
      <point x="491" y="-29"/>
      <point x="491" y="-57" type="curve" smooth="yes"/>
      <point x="491" y="-126"/>
      <point x="544" y="-160"/>
    </contour>
    <contour>
      <point x="359" y="108" type="curve"/>
      <point x="304" y="197"/>
      <point x="230" y="253"/>
      <point x="138" y="274" type="curve"/>
      <point x="221" y="321"/>
      <point x="270" y="344"/>
      <point x="356" y="372" type="curve"/>
      <point x="356" y="187" type="line" smooth="yes"/>
      <point x="356" y="154"/>
      <point x="357" y="131"/>
    </contour>
    <contour>
      <point x="356" y="456" type="line"/>
      <point x="303" y="485"/>
      <point x="249" y="510"/>
      <point x="192" y="531" type="curve"/>
      <point x="235" y="570"/>
      <point x="300" y="595"/>
      <point x="344" y="595" type="curve" smooth="yes"/>
      <point x="348" y="595"/>
      <point x="352" y="595"/>
      <point x="356" y="595" type="curve"/>
    </contour>
  </outline>
</glyph>
<glyph name="lVocalic_tirh" format="2">
  <advance width="511"/>
  <unicode hex="11489"/>
  <outline>
    <contour>
      <point x="394" y="-130" type="curve" smooth="yes"/>
      <point x="432" y="-130"/>
      <point x="465" y="-123"/>
      <point x="491" y="-113" type="curve"/>
      <point x="491" y="-45" type="line"/>
      <point x="467" y="-57"/>
      <point x="433" y="-65"/>
      <point x="395" y="-65" type="curve" smooth="yes"/>
      <point x="359" y="-65"/>
      <point x="335" y="-49"/>
      <point x="335" y="-13" type="curve" smooth="yes"/>
      <point x="335" y="12"/>
      <point x="349" y="43"/>
      <point x="392" y="43" type="curve" smooth="yes"/>
      <point x="406" y="43"/>
      <point x="421" y="39"/>
      <point x="425" y="37" type="curve"/>
      <point x="449" y="70" type="line"/>
      <point x="449" y="551" type="line"/>
      <point x="521" y="551" type="line"/>
      <point x="521" y="622" type="line"/>
      <point x="-10" y="622" type="line"/>
      <point x="-10" y="551" type="line"/>
      <point x="372" y="551" type="line"/>
      <point x="372" y="465" type="line" smooth="yes"/>
      <point x="372" y="437"/>
      <point x="374" y="396"/>
      <point x="376" y="361" type="curve"/>
      <point x="345" y="413"/>
      <point x="287" y="472"/>
      <point x="198" y="472" type="curve" smooth="yes"/>
      <point x="117" y="472"/>
      <point x="36" y="424"/>
      <point x="36" y="326" type="curve" smooth="yes"/>
      <point x="36" y="254"/>
      <point x="84" y="195"/>
      <point x="166" y="161" type="curve"/>
      <point x="204" y="233" type="line"/>
      <point x="145" y="256"/>
      <point x="118" y="283"/>
      <point x="118" y="323" type="curve" smooth="yes"/>
      <point x="118" y="374"/>
      <point x="150" y="399"/>
      <point x="197" y="399" type="curve" smooth="yes"/>
      <point x="272" y="399"/>
      <point x="322" y="341"/>
      <point x="372" y="232" type="curve"/>
      <point x="372" y="106" type="line"/>
      <point x="305" y="96"/>
      <point x="266" y="47"/>
      <point x="266" y="-17" type="curve" smooth="yes"/>
      <point x="266" y="-94"/>
      <point x="319" y="-130"/>
    </contour>
  </outline>
</glyph>
<glyph name="llVocalic_tirh" format="2">
  <advance width="511"/>
  <unicode hex="1148A"/>
  <outline>
    <contour>
      <point x="394" y="-230" type="curve" smooth="yes"/>
      <point x="432" y="-230"/>
      <point x="465" y="-223"/>
      <point x="491" y="-213" type="curve"/>
      <point x="491" y="-145" type="line"/>
      <point x="467" y="-157"/>
      <point x="433" y="-165"/>
      <point x="395" y="-165" type="curve" smooth="yes"/>
      <point x="359" y="-165"/>
      <point x="335" y="-150"/>
      <point x="335" y="-123" type="curve" smooth="yes"/>
      <point x="335" y="-108"/>
      <point x="338" y="-91"/>
      <point x="367" y="-78" type="curve"/>
      <point x="376" y="-79"/>
      <point x="385" y="-80"/>
      <point x="394" y="-80" type="curve" smooth="yes"/>
      <point x="423" y="-80"/>
      <point x="449" y="-76"/>
      <point x="472" y="-69" type="curve"/>
      <point x="472" y="-3" type="line"/>
      <point x="450" y="-10"/>
      <point x="424" y="-15"/>
      <point x="395" y="-15" type="curve" smooth="yes"/>
      <point x="359" y="-15"/>
      <point x="335" y="0"/>
      <point x="335" y="26" type="curve" smooth="yes"/>
      <point x="335" y="50"/>
      <point x="349" y="73"/>
      <point x="392" y="73" type="curve" smooth="yes"/>
      <point x="407" y="73"/>
      <point x="417" y="70"/>
      <point x="425" y="67" type="curve"/>
      <point x="449" y="100" type="line"/>
      <point x="449" y="551" type="line"/>
      <point x="521" y="551" type="line"/>
      <point x="521" y="622" type="line"/>
      <point x="-10" y="622" type="line"/>
      <point x="-10" y="551" type="line"/>
      <point x="372" y="551" type="line"/>
      <point x="372" y="465" type="line" smooth="yes"/>
      <point x="372" y="437"/>
      <point x="374" y="396"/>
      <point x="376" y="361" type="curve"/>
      <point x="345" y="413"/>
      <point x="287" y="472"/>
      <point x="198" y="472" type="curve" smooth="yes"/>
      <point x="117" y="472"/>
      <point x="36" y="424"/>
      <point x="36" y="326" type="curve" smooth="yes"/>
      <point x="36" y="254"/>
      <point x="84" y="195"/>
      <point x="166" y="161" type="curve"/>
      <point x="204" y="233" type="line"/>
      <point x="145" y="256"/>
      <point x="118" y="283"/>
      <point x="118" y="323" type="curve" smooth="yes"/>
      <point x="118" y="374"/>
      <point x="150" y="399"/>
      <point x="197" y="399" type="curve" smooth="yes"/>
      <point x="272" y="399"/>
      <point x="322" y="341"/>
      <point x="372" y="232" type="curve"/>
      <point x="372" y="136" type="line"/>
      <point x="305" y="126"/>
      <point x="266" y="77"/>
      <point x="266" y="24" type="curve" smooth="yes"/>
      <point x="266" y="-12"/>
      <point x="278" y="-38"/>
      <point x="299" y="-54" type="curve"/>
      <point x="275" y="-74"/>
      <point x="266" y="-99"/>
      <point x="266" y="-127" type="curve" smooth="yes"/>
      <point x="266" y="-196"/>
      <point x="319" y="-230"/>
    </contour>
  </outline>
</glyph>
<glyph name="e_tirh" format="2">
  <advance width="758"/>
  <unicode hex="1148B"/>
  <outline>
    <contour>
      <point x="592" y="0" type="curve"/>
      <point x="667" y="0" type="line"/>
      <point x="667" y="495" type="line" smooth="yes"/>
      <point x="667" y="587"/>
      <point x="609" y="628"/>
      <point x="511" y="628" type="curve" smooth="yes"/>
      <point x="374" y="628"/>
      <point x="254" y="499"/>
      <point x="254" y="392" type="curve" smooth="yes"/>
      <point x="254" y="309"/>
      <point x="311" y="270"/>
      <point x="376" y="270" type="curve" smooth="yes"/>
      <point x="405" y="270"/>
      <point x="427" y="273"/>
      <point x="441" y="278" type="curve"/>
      <point x="434" y="348" type="line"/>
      <point x="419" y="346"/>
      <point x="407" y="345"/>
      <point x="392" y="345" type="curve" smooth="yes"/>
      <point x="341" y="345"/>
      <point x="333" y="373"/>
      <point x="333" y="393" type="curve" smooth="yes"/>
      <point x="333" y="459"/>
      <point x="418" y="557"/>
      <point x="514" y="557" type="curve" smooth="yes"/>
      <point x="564" y="557"/>
      <point x="590" y="545"/>
      <point x="590" y="466" type="curve" smooth="yes"/>
      <point x="590" y="106" type="line"/>
      <point x="561" y="146"/>
      <point x="518" y="161"/>
      <point x="461" y="161" type="curve" smooth="yes"/>
      <point x="426" y="161"/>
      <point x="399" y="157"/>
      <point x="367" y="152" type="curve" smooth="yes"/>
      <point x="338" y="147"/>
      <point x="309" y="144"/>
      <point x="276" y="144" type="curve" smooth="yes"/>
      <point x="202" y="144"/>
      <point x="123" y="162"/>
      <point x="123" y="280" type="curve" smooth="yes"/>
      <point x="123" y="319"/>
      <point x="129" y="346"/>
      <point x="134" y="366" type="curve"/>
      <point x="58" y="377" type="line"/>
      <point x="53" y="350"/>
      <point x="46" y="310"/>
      <point x="46" y="278" type="curve" smooth="yes"/>
      <point x="46" y="97"/>
      <point x="182" y="70"/>
      <point x="272" y="70" type="curve" smooth="yes"/>
      <point x="318" y="70"/>
      <point x="350" y="74"/>
      <point x="384" y="80" type="curve" smooth="yes"/>
      <point x="414" y="85"/>
      <point x="443" y="89"/>
      <point x="477" y="89" type="curve" smooth="yes"/>
      <point x="537" y="89"/>
      <point x="575" y="60"/>
    </contour>
  </outline>
</glyph>
<glyph name="ai_tirh" format="2">
  <advance width="873"/>
  <unicode hex="1148C"/>
  <outline>
    <contour>
      <point x="592" y="0" type="curve"/>
      <point x="667" y="0" type="line"/>
      <point x="667" y="374" type="line"/>
      <point x="755" y="414"/>
      <point x="831" y="473"/>
      <point x="831" y="570" type="curve" smooth="yes"/>
      <point x="831" y="686"/>
      <point x="756" y="745"/>
      <point x="630" y="762" type="curve" smooth="yes"/>
      <point x="474" y="783" type="line" smooth="yes"/>
      <point x="400" y="793"/>
      <point x="380" y="826"/>
      <point x="380" y="878" type="curve" smooth="yes"/>
      <point x="380" y="888"/>
      <point x="381" y="903"/>
      <point x="383" y="913" type="curve"/>
      <point x="309" y="917" type="line"/>
      <point x="307" y="905"/>
      <point x="305" y="887"/>
      <point x="305" y="875" type="curve" smooth="yes"/>
      <point x="305" y="773"/>
      <point x="354" y="725"/>
      <point x="477" y="708" type="curve" smooth="yes"/>
      <point x="599" y="691" type="line" smooth="yes"/>
      <point x="708" y="676"/>
      <point x="753" y="640"/>
      <point x="753" y="570" type="curve" smooth="yes"/>
      <point x="753" y="512"/>
      <point x="711" y="476"/>
      <point x="667" y="453" type="curve"/>
      <point x="667" y="495" type="line" smooth="yes"/>
      <point x="667" y="587"/>
      <point x="609" y="628"/>
      <point x="511" y="628" type="curve" smooth="yes"/>
      <point x="374" y="628"/>
      <point x="254" y="499"/>
      <point x="254" y="392" type="curve" smooth="yes"/>
      <point x="254" y="309"/>
      <point x="311" y="270"/>
      <point x="376" y="270" type="curve" smooth="yes"/>
      <point x="405" y="270"/>
      <point x="427" y="273"/>
      <point x="441" y="278" type="curve"/>
      <point x="434" y="348" type="line"/>
      <point x="419" y="346"/>
      <point x="407" y="345"/>
      <point x="392" y="345" type="curve" smooth="yes"/>
      <point x="341" y="345"/>
      <point x="333" y="373"/>
      <point x="333" y="393" type="curve" smooth="yes"/>
      <point x="333" y="459"/>
      <point x="418" y="557"/>
      <point x="514" y="557" type="curve" smooth="yes"/>
      <point x="564" y="557"/>
      <point x="590" y="545"/>
      <point x="590" y="466" type="curve" smooth="yes"/>
      <point x="590" y="106" type="line"/>
      <point x="561" y="146"/>
      <point x="518" y="161"/>
      <point x="461" y="161" type="curve" smooth="yes"/>
      <point x="426" y="161"/>
      <point x="396" y="157"/>
      <point x="366" y="152" type="curve" smooth="yes"/>
      <point x="337" y="147"/>
      <point x="309" y="144"/>
      <point x="276" y="144" type="curve" smooth="yes"/>
      <point x="202" y="144"/>
      <point x="123" y="162"/>
      <point x="123" y="280" type="curve" smooth="yes"/>
      <point x="123" y="319"/>
      <point x="129" y="346"/>
      <point x="134" y="366" type="curve"/>
      <point x="58" y="377" type="line"/>
      <point x="52" y="349"/>
      <point x="46" y="310"/>
      <point x="46" y="278" type="curve" smooth="yes"/>
      <point x="46" y="97"/>
      <point x="182" y="70"/>
      <point x="272" y="70" type="curve" smooth="yes"/>
      <point x="313" y="70"/>
      <point x="346" y="74"/>
      <point x="376" y="78" type="curve" smooth="yes"/>
      <point x="411" y="83"/>
      <point x="443" y="87"/>
      <point x="481" y="87" type="curve" smooth="yes"/>
      <point x="541" y="87"/>
      <point x="575" y="60"/>
    </contour>
  </outline>
</glyph>
<glyph name="o_tirh" format="2">
  <advance width="741"/>
  <unicode hex="1148D"/>
  <outline>
    <contour>
      <point x="453" y="42" type="curve" smooth="yes"/>
      <point x="593" y="42"/>
      <point x="681" y="114"/>
      <point x="681" y="225" type="curve" smooth="yes"/>
      <point x="681" y="279"/>
      <point x="657" y="326"/>
      <point x="613" y="358" type="curve"/>
      <point x="649" y="391"/>
      <point x="671" y="433"/>
      <point x="671" y="483" type="curve" smooth="yes"/>
      <point x="671" y="574"/>
      <point x="611" y="629"/>
      <point x="509" y="629" type="curve" smooth="yes"/>
      <point x="371" y="629"/>
      <point x="250" y="521"/>
      <point x="250" y="431" type="curve" smooth="yes"/>
      <point x="250" y="374"/>
      <point x="289" y="335"/>
      <point x="365" y="321" type="curve"/>
      <point x="386" y="395" type="line"/>
      <point x="339" y="402"/>
      <point x="331" y="418"/>
      <point x="331" y="439" type="curve" smooth="yes"/>
      <point x="331" y="484"/>
      <point x="413" y="558"/>
      <point x="509" y="558" type="curve" smooth="yes"/>
      <point x="562" y="558"/>
      <point x="591" y="531"/>
      <point x="591" y="482" type="curve" smooth="yes"/>
      <point x="591" y="419"/>
      <point x="538" y="383"/>
      <point x="449" y="354" type="curve"/>
      <point x="480" y="282" type="line"/>
      <point x="506" y="291"/>
      <point x="530" y="302"/>
      <point x="552" y="314" type="curve"/>
      <point x="581" y="292"/>
      <point x="601" y="264"/>
      <point x="601" y="228" type="curve" smooth="yes"/>
      <point x="601" y="152"/>
      <point x="539" y="118"/>
      <point x="455" y="118" type="curve" smooth="yes"/>
      <point x="286" y="118"/>
      <point x="184" y="242"/>
      <point x="104" y="529" type="curve"/>
      <point x="28" y="507" type="line"/>
      <point x="117" y="168"/>
      <point x="265" y="42"/>
    </contour>
  </outline>
</glyph>
<glyph name="au_tirh" format="2">
  <advance width="874"/>
  <unicode hex="1148E"/>
  <outline>
    <contour>
      <point x="453" y="42" type="curve" smooth="yes"/>
      <point x="593" y="42"/>
      <point x="681" y="114"/>
      <point x="681" y="225" type="curve" smooth="yes"/>
      <point x="681" y="277"/>
      <point x="659" y="320"/>
      <point x="620" y="352" type="curve"/>
      <point x="745" y="406"/>
      <point x="832" y="467"/>
      <point x="832" y="571" type="curve" smooth="yes"/>
      <point x="832" y="685"/>
      <point x="757" y="745"/>
      <point x="630" y="762" type="curve" smooth="yes"/>
      <point x="495" y="780" type="line" smooth="yes"/>
      <point x="384" y="795"/>
      <point x="381" y="832"/>
      <point x="381" y="878" type="curve" smooth="yes"/>
      <point x="381" y="888"/>
      <point x="383" y="905"/>
      <point x="384" y="913" type="curve"/>
      <point x="310" y="917" type="line"/>
      <point x="308" y="906"/>
      <point x="306" y="890"/>
      <point x="306" y="875" type="curve" smooth="yes"/>
      <point x="306" y="773"/>
      <point x="355" y="725"/>
      <point x="478" y="708" type="curve" smooth="yes"/>
      <point x="600" y="691" type="line" smooth="yes"/>
      <point x="709" y="676"/>
      <point x="754" y="640"/>
      <point x="754" y="570" type="curve" smooth="yes"/>
      <point x="754" y="513"/>
      <point x="712" y="473"/>
      <point x="664" y="446" type="curve"/>
      <point x="668" y="459"/>
      <point x="671" y="472"/>
      <point x="671" y="488" type="curve" smooth="yes"/>
      <point x="671" y="570"/>
      <point x="611" y="629"/>
      <point x="509" y="629" type="curve" smooth="yes"/>
      <point x="371" y="629"/>
      <point x="250" y="521"/>
      <point x="250" y="431" type="curve" smooth="yes"/>
      <point x="250" y="374"/>
      <point x="289" y="335"/>
      <point x="365" y="321" type="curve"/>
      <point x="386" y="395" type="line"/>
      <point x="339" y="402"/>
      <point x="331" y="418"/>
      <point x="331" y="439" type="curve" smooth="yes"/>
      <point x="331" y="484"/>
      <point x="413" y="558"/>
      <point x="509" y="558" type="curve" smooth="yes"/>
      <point x="562" y="558"/>
      <point x="591" y="531"/>
      <point x="591" y="482" type="curve" smooth="yes"/>
      <point x="591" y="419"/>
      <point x="538" y="383"/>
      <point x="449" y="354" type="curve"/>
      <point x="480" y="282" type="line"/>
      <point x="506" y="292"/>
      <point x="530" y="302"/>
      <point x="552" y="314" type="curve"/>
      <point x="581" y="292"/>
      <point x="601" y="264"/>
      <point x="601" y="228" type="curve" smooth="yes"/>
      <point x="601" y="152"/>
      <point x="539" y="118"/>
      <point x="455" y="118" type="curve" smooth="yes"/>
      <point x="286" y="118"/>
      <point x="184" y="242"/>
      <point x="104" y="529" type="curve"/>
      <point x="28" y="507" type="line"/>
      <point x="117" y="168"/>
      <point x="265" y="42"/>
    </contour>
  </outline>
</glyph>
<glyph name="ka_tirh" format="2">
  <advance width="807"/>
  <unicode hex="1148F"/>
  <outline>
    <contour>
      <point x="415" y="0" type="curve"/>
      <point x="491" y="0" type="line"/>
      <point x="491" y="415" type="line"/>
      <point x="584" y="411"/>
      <point x="684" y="386"/>
      <point x="684" y="300" type="curve" smooth="yes"/>
      <point x="684" y="265"/>
      <point x="670" y="232"/>
      <point x="606" y="232" type="curve" smooth="yes"/>
      <point x="591" y="232"/>
      <point x="580" y="233"/>
      <point x="572" y="234" type="curve"/>
      <point x="566" y="163" type="line"/>
      <point x="584" y="159"/>
      <point x="604" y="158"/>
      <point x="625" y="158" type="curve" smooth="yes"/>
      <point x="725" y="158"/>
      <point x="761" y="226"/>
      <point x="761" y="292" type="curve" smooth="yes"/>
      <point x="761" y="428"/>
      <point x="628" y="481"/>
      <point x="491" y="488" type="curve"/>
      <point x="491" y="551" type="line"/>
      <point x="817" y="551" type="line"/>
      <point x="817" y="622" type="line"/>
      <point x="-10" y="622" type="line"/>
      <point x="-10" y="551" type="line"/>
      <point x="414" y="551" type="line"/>
      <point x="414" y="487" type="line"/>
      <point x="262" y="472"/>
      <point x="124" y="388"/>
      <point x="37" y="335" type="curve"/>
      <point x="76" y="243" type="line"/>
      <point x="222" y="224"/>
      <point x="357" y="118"/>
    </contour>
    <contour>
      <point x="417" y="108" type="curve"/>
      <point x="361" y="204"/>
      <point x="235" y="284"/>
      <point x="130" y="304" type="curve"/>
      <point x="184" y="339"/>
      <point x="287" y="400"/>
      <point x="414" y="413" type="curve"/>
      <point x="414" y="189" type="line" smooth="yes"/>
      <point x="414" y="156"/>
      <point x="415" y="132"/>
    </contour>
  </outline>
</glyph>
<glyph name="kha_tirh" format="2">
  <advance width="677"/>
  <unicode hex="11490"/>
  <outline>
    <contour>
      <point x="505" y="0" type="curve"/>
      <point x="582" y="0" type="line"/>
      <point x="582" y="551" type="line"/>
      <point x="687" y="551" type="line"/>
      <point x="687" y="622" type="line"/>
      <point x="581" y="622" type="line"/>
      <point x="558" y="688" type="line"/>
      <point x="505" y="688" type="line"/>
      <point x="505" y="193" type="line" smooth="yes"/>
      <point x="505" y="157"/>
      <point x="505" y="127"/>
      <point x="507" y="97" type="curve"/>
      <point x="458" y="164"/>
      <point x="378" y="243"/>
      <point x="232" y="282" type="curve"/>
      <point x="348" y="305"/>
      <point x="431" y="365"/>
      <point x="431" y="470" type="curve" smooth="yes"/>
      <point x="431" y="530"/>
      <point x="401" y="580"/>
      <point x="356" y="622" type="curve"/>
      <point x="298" y="622" type="line"/>
      <point x="255" y="524"/>
      <point x="202" y="501"/>
      <point x="163" y="501" type="curve" smooth="yes"/>
      <point x="132" y="501"/>
      <point x="111" y="517"/>
      <point x="111" y="552" type="curve" smooth="yes"/>
      <point x="111" y="573"/>
      <point x="119" y="593"/>
      <point x="128" y="607" type="curve"/>
      <point x="52" y="628" type="line"/>
      <point x="40" y="608"/>
      <point x="30" y="579"/>
      <point x="30" y="548" type="curve" smooth="yes"/>
      <point x="30" y="474"/>
      <point x="82" y="430"/>
      <point x="163" y="430" type="curve" smooth="yes"/>
      <point x="236" y="430"/>
      <point x="293" y="470"/>
      <point x="333" y="535" type="curve"/>
      <point x="349" y="514"/>
      <point x="356" y="492"/>
      <point x="356" y="466" type="curve" smooth="yes"/>
      <point x="356" y="391"/>
      <point x="284" y="343"/>
      <point x="123" y="331" type="curve"/>
      <point x="147" y="238" type="line"/>
      <point x="317" y="208"/>
      <point x="429" y="110"/>
    </contour>
  </outline>
</glyph>
<glyph name="ga_tirh" format="2">
  <advance width="657"/>
  <unicode hex="11491"/>
  <outline>
    <contour>
      <point x="485" y="0" type="line"/>
      <point x="562" y="0" type="line"/>
      <point x="562" y="551" type="line"/>
      <point x="667" y="551" type="line"/>
      <point x="667" y="622" type="line"/>
      <point x="561" y="622" type="line"/>
      <point x="538" y="688" type="line"/>
      <point x="485" y="688" type="line"/>
      <point x="485" y="585" type="line" smooth="yes"/>
      <point x="485" y="541"/>
      <point x="486" y="513"/>
      <point x="488" y="495" type="curve"/>
      <point x="415" y="584"/>
      <point x="346" y="629"/>
      <point x="255" y="629" type="curve" smooth="yes"/>
      <point x="156" y="629"/>
      <point x="83" y="562"/>
      <point x="22" y="458" type="curve"/>
      <point x="103" y="392" type="line"/>
      <point x="137" y="409"/>
      <point x="165" y="417"/>
      <point x="200" y="417" type="curve" smooth="yes"/>
      <point x="243" y="417"/>
      <point x="266" y="394"/>
      <point x="266" y="365" type="curve" smooth="yes"/>
      <point x="266" y="312"/>
      <point x="204" y="275"/>
      <point x="131" y="245" type="curve"/>
      <point x="182" y="172" type="line"/>
      <point x="294" y="232"/>
      <point x="346" y="290"/>
      <point x="346" y="369" type="curve" smooth="yes"/>
      <point x="346" y="423"/>
      <point x="308" y="487"/>
      <point x="216" y="487" type="curve" smooth="yes"/>
      <point x="177" y="487"/>
      <point x="144" y="480"/>
      <point x="123" y="469" type="curve"/>
      <point x="155" y="515"/>
      <point x="194" y="556"/>
      <point x="263" y="556" type="curve" smooth="yes"/>
      <point x="341" y="556"/>
      <point x="402" y="504"/>
      <point x="485" y="391" type="curve"/>
    </contour>
  </outline>
</glyph>
<glyph name="gha_tirh" format="2">
  <advance width="631"/>
  <unicode hex="11492"/>
  <outline>
    <contour>
      <point x="460" y="0" type="curve"/>
      <point x="537" y="0" type="line"/>
      <point x="537" y="551" type="line"/>
      <point x="642" y="551" type="line"/>
      <point x="642" y="622" type="line"/>
      <point x="-10" y="622" type="line"/>
      <point x="-10" y="551" type="line"/>
      <point x="88" y="551" type="line"/>
      <point x="67" y="526"/>
      <point x="56" y="500"/>
      <point x="56" y="469" type="curve" smooth="yes"/>
      <point x="56" y="398"/>
      <point x="107" y="354"/>
      <point x="199" y="345" type="curve"/>
      <point x="158" y="320"/>
      <point x="121" y="295"/>
      <point x="83" y="266" type="curve"/>
      <point x="118" y="179" type="line"/>
      <point x="270" y="169"/>
      <point x="397" y="85"/>
    </contour>
    <contour>
      <point x="462" y="92" type="curve"/>
      <point x="393" y="167"/>
      <point x="309" y="220"/>
      <point x="173" y="246" type="curve"/>
      <point x="230" y="289"/>
      <point x="309" y="342"/>
      <point x="374" y="381" type="curve"/>
      <point x="331" y="441" type="line"/>
      <point x="288" y="412"/>
      <point x="253" y="404"/>
      <point x="224" y="404" type="curve" smooth="yes"/>
      <point x="177" y="404"/>
      <point x="137" y="422"/>
      <point x="137" y="472" type="curve" smooth="yes"/>
      <point x="137" y="500"/>
      <point x="151" y="527"/>
      <point x="184" y="551" type="curve"/>
      <point x="460" y="551" type="line"/>
      <point x="460" y="165" type="line" smooth="yes"/>
      <point x="460" y="140"/>
      <point x="461" y="114"/>
    </contour>
  </outline>
</glyph>
<glyph name="nga_tirh" format="2">
  <advance width="633"/>
  <unicode hex="11493"/>
  <outline>
    <contour>
      <point x="373" y="0" type="curve" smooth="yes"/>
      <point x="527" y="0"/>
      <point x="592" y="103"/>
      <point x="592" y="211" type="curve" smooth="yes"/>
      <point x="592" y="278"/>
      <point x="568" y="345"/>
      <point x="525" y="408" type="curve"/>
      <point x="465" y="399" type="line"/>
      <point x="429" y="321"/>
      <point x="386" y="282"/>
      <point x="348" y="282" type="curve" smooth="yes"/>
      <point x="337" y="282"/>
      <point x="330" y="284"/>
      <point x="322" y="293" type="curve" smooth="yes"/>
      <point x="315" y="300"/>
      <point x="310" y="309"/>
      <point x="310" y="338" type="curve" smooth="yes"/>
      <point x="310" y="421" type="line"/>
      <point x="372" y="435"/>
      <point x="416" y="487"/>
      <point x="416" y="554" type="curve" smooth="yes"/>
      <point x="416" y="632"/>
      <point x="355" y="690"/>
      <point x="275" y="690" type="curve" smooth="yes"/>
      <point x="195" y="690"/>
      <point x="134" y="632"/>
      <point x="134" y="554" type="curve" smooth="yes"/>
      <point x="134" y="488"/>
      <point x="175" y="438"/>
      <point x="234" y="422" type="curve"/>
      <point x="234" y="352" type="line" smooth="yes"/>
      <point x="234" y="279"/>
      <point x="251" y="253"/>
      <point x="272" y="234" type="curve" smooth="yes"/>
      <point x="291" y="217"/>
      <point x="318" y="208"/>
      <point x="349" y="208" type="curve" smooth="yes"/>
      <point x="400" y="208"/>
      <point x="442" y="242"/>
      <point x="490" y="314" type="curve"/>
      <point x="507" y="288"/>
      <point x="517" y="254"/>
      <point x="517" y="209" type="curve" smooth="yes"/>
      <point x="517" y="147"/>
      <point x="475" y="76"/>
      <point x="369" y="76" type="curve" smooth="yes"/>
      <point x="220" y="76"/>
      <point x="135" y="242"/>
      <point x="92" y="492" type="curve"/>
      <point x="20" y="471" type="line"/>
      <point x="79" y="152"/>
      <point x="196" y="0"/>
    </contour>
    <contour>
      <point x="275" y="482" type="curve" smooth="yes"/>
      <point x="233" y="482"/>
      <point x="203" y="512"/>
      <point x="203" y="554" type="curve" smooth="yes"/>
      <point x="203" y="594"/>
      <point x="233" y="626"/>
      <point x="275" y="626" type="curve" smooth="yes"/>
      <point x="317" y="626"/>
      <point x="347" y="594"/>
      <point x="347" y="554" type="curve" smooth="yes"/>
      <point x="347" y="513"/>
      <point x="317" y="482"/>
    </contour>
  </outline>
</glyph>
<glyph name="ca_tirh" format="2">
  <advance width="567"/>
  <unicode hex="11494"/>
  <outline>
    <contour>
      <point x="238" y="24" type="curve" smooth="yes"/>
      <point x="380" y="24"/>
      <point x="517" y="160"/>
      <point x="517" y="306" type="curve" smooth="yes"/>
      <point x="517" y="380"/>
      <point x="485" y="423"/>
      <point x="377" y="423" type="curve" smooth="yes"/>
      <point x="361" y="423" type="line" smooth="yes"/>
      <point x="253" y="423"/>
      <point x="213" y="462"/>
      <point x="172" y="534" type="curve"/>
      <point x="172" y="551" type="line"/>
      <point x="578" y="551" type="line"/>
      <point x="578" y="622" type="line"/>
      <point x="-10" y="622" type="line"/>
      <point x="-10" y="551" type="line"/>
      <point x="95" y="551" type="line"/>
      <point x="95" y="191" type="line" smooth="yes"/>
      <point x="95" y="91"/>
      <point x="136" y="24"/>
    </contour>
    <contour>
      <point x="242" y="96" type="curve" smooth="yes"/>
      <point x="175" y="96"/>
      <point x="172" y="155"/>
      <point x="172" y="205" type="curve" smooth="yes"/>
      <point x="172" y="431" type="line"/>
      <point x="206" y="384"/>
      <point x="262" y="349"/>
      <point x="363" y="349" type="curve" smooth="yes"/>
      <point x="367" y="349" type="line" smooth="yes"/>
      <point x="428" y="349"/>
      <point x="437" y="328"/>
      <point x="437" y="296" type="curve" smooth="yes"/>
      <point x="437" y="211"/>
      <point x="347" y="96"/>
    </contour>
  </outline>
</glyph>
<glyph name="cha_tirh" format="2">
  <advance width="537"/>
  <unicode hex="11495"/>
  <outline>
    <contour>
      <point x="298" y="-91" type="curve" smooth="yes"/>
      <point x="450" y="-91"/>
      <point x="521" y="5"/>
      <point x="521" y="127" type="curve" smooth="yes"/>
      <point x="521" y="162"/>
      <point x="500" y="223"/>
      <point x="472" y="256" type="curve"/>
      <point x="409" y="243" type="line"/>
      <point x="392" y="199"/>
      <point x="327" y="155"/>
      <point x="291" y="155" type="curve" smooth="yes"/>
      <point x="259" y="155"/>
      <point x="253" y="188"/>
      <point x="253" y="211" type="curve" smooth="yes"/>
      <point x="253" y="218" type="line"/>
      <point x="350" y="228"/>
      <point x="430" y="298"/>
      <point x="430" y="388" type="curve" smooth="yes"/>
      <point x="430" y="458"/>
      <point x="370" y="481"/>
      <point x="303" y="481" type="curve" smooth="yes"/>
      <point x="225" y="481"/>
      <point x="201" y="505"/>
      <point x="178" y="544" type="curve"/>
      <point x="178" y="551" type="line"/>
      <point x="547" y="551" type="line"/>
      <point x="547" y="622" type="line"/>
      <point x="-10" y="622" type="line"/>
      <point x="-10" y="551" type="line"/>
      <point x="102" y="551" type="line"/>
      <point x="102" y="359" type="line" smooth="yes"/>
      <point x="102" y="282"/>
      <point x="122" y="238"/>
      <point x="177" y="223" type="curve"/>
      <point x="177" y="207" type="line" smooth="yes"/>
      <point x="177" y="143"/>
      <point x="207" y="81"/>
      <point x="292" y="81" type="curve" smooth="yes"/>
      <point x="344" y="81"/>
      <point x="405" y="118"/>
      <point x="436" y="171" type="curve"/>
      <point x="445" y="160"/>
      <point x="446" y="130"/>
      <point x="446" y="125" type="curve" smooth="yes"/>
      <point x="446" y="30"/>
      <point x="401" y="-15"/>
      <point x="295" y="-15" type="curve" smooth="yes"/>
      <point x="177" y="-15"/>
      <point x="98" y="85"/>
      <point x="56" y="292" type="curve"/>
      <point x="-10" y="281" type="line"/>
      <point x="34" y="21"/>
      <point x="155" y="-91"/>
    </contour>
    <contour>
      <point x="233" y="286" type="curve" smooth="yes"/>
      <point x="183" y="286"/>
      <point x="178" y="316"/>
      <point x="178" y="359" type="curve" smooth="yes"/>
      <point x="178" y="454" type="line"/>
      <point x="207" y="425"/>
      <point x="237" y="413"/>
      <point x="296" y="413" type="curve" smooth="yes"/>
      <point x="329" y="413"/>
      <point x="354" y="409"/>
      <point x="354" y="384" type="curve" smooth="yes"/>
      <point x="354" y="342"/>
      <point x="306" y="286"/>
    </contour>
  </outline>
</glyph>
<glyph name="ja_tirh" format="2">
  <advance width="800"/>
  <unicode hex="11496"/>
  <outline>
    <contour>
      <point x="656" y="-7" type="curve"/>
      <point x="731" y="10" type="line"/>
      <point x="706" y="85"/>
      <point x="696" y="140"/>
      <point x="696" y="205" type="curve" smooth="yes"/>
      <point x="696" y="280"/>
      <point x="708" y="332"/>
      <point x="740" y="392" type="curve"/>
      <point x="701" y="462" type="line"/>
      <point x="681" y="460"/>
      <point x="671" y="459"/>
      <point x="653" y="459" type="curve" smooth="yes"/>
      <point x="569" y="459"/>
      <point x="523" y="502"/>
      <point x="494" y="551" type="curve"/>
      <point x="810" y="551" type="line"/>
      <point x="810" y="622" type="line"/>
      <point x="-10" y="622" type="line"/>
      <point x="-10" y="551" type="line"/>
      <point x="245" y="551" type="line" smooth="yes"/>
      <point x="288" y="551"/>
      <point x="309" y="551"/>
      <point x="331" y="552" type="curve"/>
      <point x="246" y="511"/>
      <point x="219" y="447"/>
      <point x="219" y="389" type="curve" smooth="yes"/>
      <point x="219" y="308"/>
      <point x="276" y="257"/>
      <point x="347" y="257" type="curve" smooth="yes"/>
      <point x="393" y="257"/>
      <point x="427" y="279"/>
      <point x="457" y="310" type="curve"/>
      <point x="460" y="298"/>
      <point x="462" y="284"/>
      <point x="462" y="268" type="curve" smooth="yes"/>
      <point x="462" y="182"/>
      <point x="428" y="139"/>
      <point x="339" y="139" type="curve" smooth="yes"/>
      <point x="236" y="139"/>
      <point x="144" y="250"/>
      <point x="109" y="474" type="curve"/>
      <point x="37" y="453" type="line"/>
      <point x="79" y="186"/>
      <point x="202" y="63"/>
      <point x="337" y="63" type="curve" smooth="yes"/>
      <point x="487" y="63"/>
      <point x="539" y="154"/>
      <point x="539" y="254" type="curve" smooth="yes"/>
      <point x="539" y="297"/>
      <point x="530" y="338"/>
      <point x="520" y="365" type="curve"/>
      <point x="442" y="396" type="line"/>
      <point x="417" y="356"/>
      <point x="390" y="328"/>
      <point x="344" y="328" type="curve" smooth="yes"/>
      <point x="319" y="328"/>
      <point x="297" y="351"/>
      <point x="297" y="388" type="curve" smooth="yes"/>
      <point x="297" y="430"/>
      <point x="303" y="470"/>
      <point x="421" y="535" type="curve"/>
      <point x="469" y="451"/>
      <point x="531" y="391"/>
      <point x="652" y="390" type="curve"/>
      <point x="632" y="351"/>
      <point x="618" y="293"/>
      <point x="618" y="222" type="curve" smooth="yes"/>
      <point x="618" y="142"/>
      <point x="632" y="70"/>
    </contour>
  </outline>
</glyph>
<glyph name="jha_tirh" format="2">
  <advance width="699"/>
  <unicode hex="11497"/>
  <outline>
    <contour>
      <point x="218" y="0" type="curve"/>
      <point x="294" y="0" type="line"/>
      <point x="294" y="551" type="line"/>
      <point x="537" y="551" type="line"/>
      <point x="537" y="224" type="line" smooth="yes"/>
      <point x="537" y="191"/>
      <point x="539" y="164"/>
      <point x="541" y="140" type="curve"/>
      <point x="495" y="265"/>
      <point x="420" y="331"/>
      <point x="353" y="369" type="curve"/>
      <point x="328" y="306" type="line"/>
      <point x="424" y="242"/>
      <point x="508" y="105"/>
      <point x="538" y="0" type="curve"/>
      <point x="614" y="0" type="line"/>
      <point x="614" y="551" type="line"/>
      <point x="709" y="551" type="line"/>
      <point x="709" y="622" type="line"/>
      <point x="-10" y="622" type="line"/>
      <point x="-10" y="551" type="line"/>
      <point x="217" y="551" type="line"/>
      <point x="217" y="224" type="line" smooth="yes"/>
      <point x="217" y="191"/>
      <point x="219" y="164"/>
      <point x="221" y="140" type="curve"/>
      <point x="175" y="265"/>
      <point x="100" y="331"/>
      <point x="33" y="369" type="curve"/>
      <point x="8" y="306" type="line"/>
      <point x="104" y="242"/>
      <point x="188" y="105"/>
    </contour>
  </outline>
</glyph>
<glyph name="nya_tirh" format="2">
  <advance width="1019"/>
  <unicode hex="11498"/>
  <outline>
    <contour>
      <point x="592" y="0" type="curve"/>
      <point x="667" y="0" type="line"/>
      <point x="667" y="200" type="line" smooth="yes"/>
      <point x="667" y="217"/>
      <point x="666" y="236"/>
      <point x="663" y="254" type="curve"/>
      <point x="697" y="204"/>
      <point x="744" y="168"/>
      <point x="818" y="168" type="curve" smooth="yes"/>
      <point x="916" y="168"/>
      <point x="965" y="225"/>
      <point x="965" y="291" type="curve" smooth="yes"/>
      <point x="965" y="338"/>
      <point x="941" y="370"/>
      <point x="912" y="391" type="curve"/>
      <point x="950" y="423"/>
      <point x="959" y="462"/>
      <point x="959" y="493" type="curve" smooth="yes"/>
      <point x="959" y="560"/>
      <point x="907" y="607"/>
      <point x="824" y="607" type="curve" smooth="yes"/>
      <point x="757" y="607"/>
      <point x="708" y="579"/>
      <point x="661" y="528" type="curve"/>
      <point x="650" y="594"/>
      <point x="597" y="628"/>
      <point x="511" y="628" type="curve" smooth="yes"/>
      <point x="374" y="628"/>
      <point x="254" y="499"/>
      <point x="254" y="392" type="curve" smooth="yes"/>
      <point x="254" y="309"/>
      <point x="311" y="270"/>
      <point x="376" y="270" type="curve" smooth="yes"/>
      <point x="405" y="270"/>
      <point x="427" y="273"/>
      <point x="441" y="278" type="curve"/>
      <point x="434" y="348" type="line"/>
      <point x="419" y="346"/>
      <point x="407" y="345"/>
      <point x="392" y="345" type="curve" smooth="yes"/>
      <point x="341" y="345"/>
      <point x="333" y="373"/>
      <point x="333" y="393" type="curve" smooth="yes"/>
      <point x="333" y="459"/>
      <point x="418" y="557"/>
      <point x="514" y="557" type="curve" smooth="yes"/>
      <point x="564" y="557"/>
      <point x="590" y="545"/>
      <point x="590" y="466" type="curve" smooth="yes"/>
      <point x="590" y="106" type="line"/>
      <point x="561" y="146"/>
      <point x="518" y="161"/>
      <point x="461" y="161" type="curve" smooth="yes"/>
      <point x="433" y="161"/>
      <point x="401" y="157"/>
      <point x="372" y="152" type="curve" smooth="yes"/>
      <point x="334" y="146"/>
      <point x="309" y="144"/>
      <point x="276" y="144" type="curve" smooth="yes"/>
      <point x="202" y="144"/>
      <point x="124" y="162"/>
      <point x="124" y="280" type="curve" smooth="yes"/>
      <point x="124" y="319"/>
      <point x="130" y="346"/>
      <point x="135" y="366" type="curve"/>
      <point x="58" y="377" type="line"/>
      <point x="53" y="350"/>
      <point x="46" y="310"/>
      <point x="46" y="278" type="curve" smooth="yes"/>
      <point x="46" y="97"/>
      <point x="182" y="70"/>
      <point x="272" y="70" type="curve" smooth="yes"/>
      <point x="314" y="70"/>
      <point x="338" y="72"/>
      <point x="378" y="78" type="curve" smooth="yes"/>
      <point x="412" y="83"/>
      <point x="443" y="87"/>
      <point x="481" y="87" type="curve" smooth="yes"/>
      <point x="541" y="87"/>
      <point x="575" y="60"/>
    </contour>
    <contour>
      <point x="820" y="236" type="curve" smooth="yes"/>
      <point x="750" y="236"/>
      <point x="694" y="289"/>
      <point x="665" y="387" type="curve"/>
      <point x="665" y="420" type="line"/>
      <point x="706" y="490"/>
      <point x="759" y="538"/>
      <point x="819" y="538" type="curve" smooth="yes"/>
      <point x="854" y="538"/>
      <point x="884" y="521"/>
      <point x="884" y="485" type="curve" smooth="yes"/>
      <point x="884" y="451"/>
      <point x="856" y="423"/>
      <point x="785" y="412" type="curve"/>
      <point x="802" y="344" type="line"/>
      <point x="820" y="348"/>
      <point x="836" y="353"/>
      <point x="851" y="358" type="curve"/>
      <point x="878" y="341"/>
      <point x="889" y="320"/>
      <point x="889" y="294" type="curve" smooth="yes"/>
      <point x="889" y="255"/>
      <point x="856" y="236"/>
    </contour>
  </outline>
</glyph>
<glyph name="tta_tirh" format="2">
  <advance width="621"/>
  <unicode hex="11499"/>
  <outline>
    <contour>
      <point x="307" y="0" type="curve" smooth="yes"/>
      <point x="482" y="0"/>
      <point x="570" y="119"/>
      <point x="570" y="216" type="curve" smooth="yes"/>
      <point x="570" y="303"/>
      <point x="511" y="343"/>
      <point x="446" y="352" type="curve"/>
      <point x="428" y="287" type="line"/>
      <point x="465" y="277"/>
      <point x="491" y="256"/>
      <point x="491" y="215" type="curve" smooth="yes"/>
      <point x="491" y="162"/>
      <point x="445" y="72"/>
      <point x="311" y="72" type="curve" smooth="yes"/>
      <point x="197" y="72"/>
      <point x="136" y="152"/>
      <point x="131" y="249" type="curve"/>
      <point x="251" y="282"/>
      <point x="312" y="366"/>
      <point x="335" y="470" type="curve"/>
      <point x="362" y="454"/>
      <point x="391" y="449"/>
      <point x="418" y="449" type="curve" smooth="yes"/>
      <point x="497" y="449"/>
      <point x="549" y="482"/>
      <point x="561" y="551" type="curve"/>
      <point x="628" y="551" type="line"/>
      <point x="628" y="622" type="line"/>
      <point x="556" y="622" type="line"/>
      <point x="544" y="655"/>
      <point x="518" y="685"/>
      <point x="493" y="713" type="curve" smooth="yes"/>
      <point x="460" y="749"/>
      <point x="431" y="786"/>
      <point x="431" y="826" type="curve" smooth="yes"/>
      <point x="431" y="862"/>
      <point x="447" y="880"/>
      <point x="484" y="909" type="curve"/>
      <point x="437" y="966" type="line"/>
      <point x="384" y="926"/>
      <point x="354" y="884"/>
      <point x="354" y="830" type="curve" smooth="yes"/>
      <point x="354" y="757"/>
      <point x="399" y="704"/>
      <point x="438" y="662" type="curve" smooth="yes"/>
      <point x="465" y="633"/>
      <point x="487" y="606"/>
      <point x="487" y="580" type="curve" smooth="yes"/>
      <point x="487" y="531"/>
      <point x="448" y="523"/>
      <point x="419" y="523" type="curve" smooth="yes"/>
      <point x="398" y="523"/>
      <point x="371" y="530"/>
      <point x="346" y="549" type="curve"/>
      <point x="347" y="560"/>
      <point x="347" y="571"/>
      <point x="347" y="582" type="curve" smooth="yes"/>
      <point x="347" y="684"/>
      <point x="304" y="774"/>
      <point x="173" y="774" type="curve" smooth="yes"/>
      <point x="83" y="774"/>
      <point x="36" y="712"/>
      <point x="36" y="653" type="curve" smooth="yes"/>
      <point x="36" y="603"/>
      <point x="59" y="571"/>
      <point x="115" y="543" type="curve"/>
      <point x="160" y="595" type="line"/>
      <point x="129" y="608"/>
      <point x="115" y="628"/>
      <point x="115" y="657" type="curve" smooth="yes"/>
      <point x="115" y="681"/>
      <point x="132" y="704"/>
      <point x="173" y="704" type="curve" smooth="yes"/>
      <point x="236" y="704"/>
      <point x="268" y="658"/>
      <point x="268" y="585" type="curve" smooth="yes"/>
      <point x="268" y="469"/>
      <point x="239" y="322"/>
      <point x="55" y="305" type="curve"/>
      <point x="55" y="272" type="line" smooth="yes"/>
      <point x="55" y="102"/>
      <point x="170" y="0"/>
    </contour>
  </outline>
</glyph>
<glyph name="ttha_tirh" format="2">
  <advance width="592"/>
  <unicode hex="1149A"/>
  <outline>
    <contour>
      <point x="278" y="0" type="curve" smooth="yes"/>
      <point x="441" y="0"/>
      <point x="529" y="98"/>
      <point x="529" y="240" type="curve" smooth="yes"/>
      <point x="529" y="363"/>
      <point x="464" y="455"/>
      <point x="367" y="553" type="curve"/>
      <point x="387" y="551"/>
      <point x="402" y="551"/>
      <point x="428" y="551" type="curve" smooth="yes"/>
      <point x="602" y="551" type="line"/>
      <point x="602" y="622" type="line"/>
      <point x="292" y="622" type="line"/>
      <point x="241" y="680"/>
      <point x="209" y="722"/>
      <point x="209" y="764" type="curve" smooth="yes"/>
      <point x="209" y="803"/>
      <point x="227" y="828"/>
      <point x="270" y="861" type="curve"/>
      <point x="219" y="917" type="line"/>
      <point x="162" y="875"/>
      <point x="129" y="832"/>
      <point x="129" y="776" type="curve" smooth="yes"/>
      <point x="129" y="726"/>
      <point x="157" y="680"/>
      <point x="201" y="622" type="curve"/>
      <point x="-9" y="622" type="line"/>
      <point x="-9" y="551" type="line"/>
      <point x="243" y="551" type="line"/>
      <point x="258" y="516"/>
      <point x="264" y="478"/>
      <point x="264" y="448" type="curve" smooth="yes"/>
      <point x="264" y="344"/>
      <point x="222" y="263"/>
      <point x="59" y="247" type="curve"/>
      <point x="37" y="168" type="line"/>
      <point x="74" y="69"/>
      <point x="166" y="0"/>
    </contour>
    <contour>
      <point x="277" y="74" type="curve" smooth="yes"/>
      <point x="205" y="74"/>
      <point x="133" y="112"/>
      <point x="108" y="198" type="curve"/>
      <point x="82" y="175" type="line"/>
      <point x="274" y="210"/>
      <point x="334" y="305"/>
      <point x="334" y="406" type="curve" smooth="yes"/>
      <point x="334" y="457"/>
      <point x="327" y="493"/>
      <point x="316" y="530" type="curve"/>
      <point x="296" y="535" type="line"/>
      <point x="411" y="415"/>
      <point x="449" y="336"/>
      <point x="449" y="244" type="curve" smooth="yes"/>
      <point x="449" y="155"/>
      <point x="397" y="74"/>
    </contour>
  </outline>
</glyph>
<glyph name="dda_tirh" format="2">
  <advance width="712"/>
  <unicode hex="1149B"/>
  <outline>
    <contour>
      <point x="417" y="24" type="curve" smooth="yes"/>
      <point x="571" y="24"/>
      <point x="656" y="119"/>
      <point x="656" y="245" type="curve" smooth="yes"/>
      <point x="656" y="312"/>
      <point x="632" y="379"/>
      <point x="589" y="442" type="curve"/>
      <point x="529" y="433" type="line"/>
      <point x="472" y="350"/>
      <point x="431" y="316"/>
      <point x="393" y="316" type="curve" smooth="yes"/>
      <point x="382" y="316"/>
      <point x="375" y="318"/>
      <point x="367" y="327" type="curve" smooth="yes"/>
      <point x="360" y="334"/>
      <point x="355" y="343"/>
      <point x="355" y="372" type="curve" smooth="yes"/>
      <point x="355" y="551" type="line"/>
      <point x="723" y="551" type="line"/>
      <point x="723" y="622" type="line"/>
      <point x="-10" y="622" type="line"/>
      <point x="-10" y="551" type="line"/>
      <point x="279" y="551" type="line"/>
      <point x="279" y="386" type="line" smooth="yes"/>
      <point x="279" y="313"/>
      <point x="296" y="287"/>
      <point x="317" y="268" type="curve" smooth="yes"/>
      <point x="336" y="251"/>
      <point x="363" y="242"/>
      <point x="394" y="242" type="curve" smooth="yes"/>
      <point x="446" y="242"/>
      <point x="501" y="276"/>
      <point x="553" y="349" type="curve"/>
      <point x="570" y="323"/>
      <point x="581" y="289"/>
      <point x="581" y="243" type="curve" smooth="yes"/>
      <point x="581" y="159"/>
      <point x="519" y="100"/>
      <point x="413" y="100" type="curve" smooth="yes"/>
      <point x="267" y="100"/>
      <point x="176" y="207"/>
      <point x="104" y="485" type="curve"/>
      <point x="29" y="465" type="line"/>
      <point x="114" y="138"/>
      <point x="241" y="24"/>
    </contour>
  </outline>
</glyph>
<glyph name="ddha_tirh" format="2">
  <advance width="600"/>
  <unicode hex="1149C"/>
  <outline>
    <contour>
      <point x="299" y="24" type="curve" smooth="yes"/>
      <point x="462" y="24"/>
      <point x="563" y="129"/>
      <point x="563" y="256" type="curve" smooth="yes"/>
      <point x="563" y="321"/>
      <point x="510" y="357"/>
      <point x="433" y="373" type="curve"/>
      <point x="414" y="310" type="line"/>
      <point x="466" y="297"/>
      <point x="485" y="278"/>
      <point x="485" y="249" type="curve" smooth="yes"/>
      <point x="485" y="169"/>
      <point x="421" y="96"/>
      <point x="299" y="96" type="curve" smooth="yes"/>
      <point x="189" y="96"/>
      <point x="125" y="160"/>
      <point x="125" y="234" type="curve" smooth="yes"/>
      <point x="125" y="284"/>
      <point x="156" y="315"/>
      <point x="212" y="350" type="curve" smooth="yes"/>
      <point x="264" y="382"/>
      <point x="328" y="425"/>
      <point x="328" y="483" type="curve" smooth="yes"/>
      <point x="328" y="551" type="line"/>
      <point x="610" y="551" type="line"/>
      <point x="610" y="622" type="line"/>
      <point x="-10" y="622" type="line"/>
      <point x="-10" y="551" type="line"/>
      <point x="251" y="551" type="line"/>
      <point x="251" y="504" type="line" smooth="yes"/>
      <point x="251" y="457"/>
      <point x="209" y="428"/>
      <point x="162" y="396" type="curve" smooth="yes"/>
      <point x="107" y="359"/>
      <point x="47" y="318"/>
      <point x="47" y="231" type="curve" smooth="yes"/>
      <point x="47" y="119"/>
      <point x="142" y="24"/>
    </contour>
  </outline>
</glyph>
<glyph name="nna_tirh" format="2">
  <advance width="664"/>
  <unicode hex="1149D"/>
  <outline>
    <contour>
      <point x="491" y="0" type="line"/>
      <point x="568" y="0" type="line"/>
      <point x="568" y="551" type="line"/>
      <point x="674" y="551" type="line"/>
      <point x="674" y="622" type="line"/>
      <point x="491" y="622" type="line"/>
      <point x="491" y="551" type="line" smooth="yes"/>
      <point x="491" y="536"/>
      <point x="492" y="517"/>
      <point x="494" y="501" type="curve"/>
      <point x="467" y="537"/>
      <point x="430" y="561"/>
      <point x="386" y="561" type="curve" smooth="yes"/>
      <point x="348" y="561"/>
      <point x="315" y="540"/>
      <point x="294" y="505" type="curve"/>
      <point x="269" y="540"/>
      <point x="230" y="561"/>
      <point x="180" y="561" type="curve" smooth="yes"/>
      <point x="105" y="561"/>
      <point x="34" y="503"/>
      <point x="34" y="405" type="curve" smooth="yes"/>
      <point x="34" y="333"/>
      <point x="86" y="258"/>
      <point x="164" y="240" type="curve"/>
      <point x="202" y="312" type="line"/>
      <point x="145" y="333"/>
      <point x="116" y="362"/>
      <point x="116" y="416" type="curve" smooth="yes"/>
      <point x="116" y="453"/>
      <point x="138" y="488"/>
      <point x="185" y="488" type="curve" smooth="yes"/>
      <point x="237" y="488"/>
      <point x="259" y="446"/>
      <point x="266" y="397" type="curve"/>
      <point x="322" y="384" type="line"/>
      <point x="322" y="453"/>
      <point x="343" y="488"/>
      <point x="390" y="488" type="curve" smooth="yes"/>
      <point x="432" y="488"/>
      <point x="477" y="448"/>
      <point x="491" y="379" type="curve"/>
    </contour>
  </outline>
</glyph>
<glyph name="ta_tirh" format="2">
  <advance width="707"/>
  <unicode hex="1149E"/>
  <outline>
    <contour>
      <point x="407" y="50" type="curve" smooth="yes"/>
      <point x="571" y="50"/>
      <point x="650" y="151"/>
      <point x="650" y="274" type="curve" smooth="yes"/>
      <point x="650" y="401"/>
      <point x="563" y="500"/>
      <point x="433" y="500" type="curve" smooth="yes"/>
      <point x="356" y="500"/>
      <point x="286" y="465"/>
      <point x="286" y="389" type="curve" smooth="yes"/>
      <point x="286" y="360"/>
      <point x="294" y="330"/>
      <point x="306" y="304" type="curve"/>
      <point x="382" y="321" type="line"/>
      <point x="373" y="342"/>
      <point x="369" y="357"/>
      <point x="369" y="373" type="curve" smooth="yes"/>
      <point x="369" y="409"/>
      <point x="391" y="429"/>
      <point x="439" y="429" type="curve" smooth="yes"/>
      <point x="521" y="429"/>
      <point x="573" y="362"/>
      <point x="573" y="278" type="curve" smooth="yes"/>
      <point x="573" y="196"/>
      <point x="529" y="126"/>
      <point x="405" y="126" type="curve" smooth="yes"/>
      <point x="258" y="126"/>
      <point x="174" y="237"/>
      <point x="104" y="486" type="curve"/>
      <point x="29" y="466" type="line"/>
      <point x="110" y="160"/>
      <point x="242" y="50"/>
    </contour>
    <contour>
      <point x="-10" y="551" type="line"/>
      <point x="717" y="551" type="line"/>
      <point x="717" y="622" type="line"/>
      <point x="-10" y="622" type="line"/>
    </contour>
  </outline>
</glyph>
<glyph name="tha_tirh" format="2">
  <advance width="645"/>
  <unicode hex="1149F"/>
  <outline>
    <contour>
      <point x="473" y="0" type="curve"/>
      <point x="550" y="0" type="line"/>
      <point x="550" y="551" type="line"/>
      <point x="655" y="551" type="line"/>
      <point x="655" y="622" type="line"/>
      <point x="549" y="622" type="line"/>
      <point x="526" y="688" type="line"/>
      <point x="473" y="688" type="line"/>
      <point x="473" y="193" type="line" smooth="yes"/>
      <point x="473" y="157"/>
      <point x="473" y="127"/>
      <point x="475" y="97" type="curve"/>
      <point x="425" y="169"/>
      <point x="338" y="243"/>
      <point x="203" y="282" type="curve"/>
      <point x="327" y="306"/>
      <point x="400" y="371"/>
      <point x="400" y="464" type="curve" smooth="yes"/>
      <point x="400" y="554"/>
      <point x="337" y="625"/>
      <point x="211" y="625" type="curve" smooth="yes"/>
      <point x="100" y="625"/>
      <point x="38" y="567"/>
      <point x="38" y="497" type="curve" smooth="yes"/>
      <point x="38" y="443"/>
      <point x="68" y="409"/>
      <point x="106" y="384" type="curve"/>
      <point x="150" y="446" type="line"/>
      <point x="125" y="459"/>
      <point x="116" y="475"/>
      <point x="116" y="494" type="curve" smooth="yes"/>
      <point x="116" y="523"/>
      <point x="142" y="555"/>
      <point x="209" y="555" type="curve" smooth="yes"/>
      <point x="281" y="555"/>
      <point x="319" y="523"/>
      <point x="319" y="466" type="curve" smooth="yes"/>
      <point x="319" y="395"/>
      <point x="260" y="343"/>
      <point x="92" y="331" type="curve"/>
      <point x="115" y="238" type="line"/>
      <point x="285" y="208"/>
      <point x="396" y="110"/>
    </contour>
  </outline>
</glyph>
<glyph name="da_tirh" format="2">
  <advance width="603"/>
  <unicode hex="114A0"/>
  <outline>
    <contour>
      <point x="447" y="-7" type="curve"/>
      <point x="522" y="10" type="line"/>
      <point x="497" y="85"/>
      <point x="487" y="140"/>
      <point x="487" y="205" type="curve" smooth="yes"/>
      <point x="487" y="292"/>
      <point x="502" y="352"/>
      <point x="540" y="422" type="curve"/>
      <point x="475" y="486" type="line"/>
      <point x="347" y="439"/>
      <point x="238" y="371"/>
      <point x="159" y="288" type="curve"/>
      <point x="159" y="551" type="line"/>
      <point x="613" y="551" type="line"/>
      <point x="613" y="622" type="line"/>
      <point x="-10" y="622" type="line"/>
      <point x="-10" y="551" type="line"/>
      <point x="82" y="551" type="line"/>
      <point x="82" y="215" type="line"/>
      <point x="141" y="175" type="line"/>
      <point x="244" y="277"/>
      <point x="338" y="350"/>
      <point x="445" y="396" type="curve"/>
      <point x="425" y="357"/>
      <point x="409" y="293"/>
      <point x="409" y="222" type="curve" smooth="yes"/>
      <point x="409" y="142"/>
      <point x="423" y="70"/>
    </contour>
  </outline>
</glyph>
<glyph name="dha_tirh" format="2">
  <advance width="596"/>
  <unicode hex="114A1"/>
  <outline>
    <contour>
      <point x="425" y="0" type="curve"/>
      <point x="501" y="0" type="line"/>
      <point x="501" y="551" type="line"/>
      <point x="606" y="551" type="line"/>
      <point x="606" y="622" type="line"/>
      <point x="424" y="622" type="line"/>
      <point x="424" y="517" type="line"/>
      <point x="360" y="497"/>
      <point x="299" y="473"/>
      <point x="239" y="446" type="curve"/>
      <point x="202" y="465"/>
      <point x="188" y="483"/>
      <point x="188" y="509" type="curve" smooth="yes"/>
      <point x="188" y="536"/>
      <point x="211" y="554"/>
      <point x="251" y="554" type="curve" smooth="yes"/>
      <point x="268" y="554"/>
      <point x="279" y="553"/>
      <point x="287" y="552" type="curve"/>
      <point x="293" y="624" type="line"/>
      <point x="275" y="627"/>
      <point x="256" y="629"/>
      <point x="240" y="629" type="curve" smooth="yes"/>
      <point x="150" y="629"/>
      <point x="109" y="578"/>
      <point x="109" y="524" type="curve" smooth="yes"/>
      <point x="109" y="478"/>
      <point x="132" y="444"/>
      <point x="172" y="414" type="curve"/>
      <point x="126" y="391"/>
      <point x="81" y="365"/>
      <point x="37" y="339" type="curve"/>
      <point x="76" y="243" type="line"/>
      <point x="230" y="218"/>
      <point x="364" y="119"/>
    </contour>
    <contour>
      <point x="427" y="108" type="curve"/>
      <point x="365" y="213"/>
      <point x="232" y="281"/>
      <point x="130" y="304" type="curve"/>
      <point x="219" y="358"/>
      <point x="327" y="406"/>
      <point x="424" y="439" type="curve"/>
      <point x="424" y="189" type="line" smooth="yes"/>
      <point x="424" y="156"/>
      <point x="425" y="132"/>
    </contour>
  </outline>
</glyph>
<glyph name="na_tirh" format="2">
  <advance width="604"/>
  <unicode hex="114A2"/>
  <outline>
    <contour>
      <point x="435" y="170" type="curve"/>
      <point x="343" y="317"/>
      <point x="230" y="386"/>
      <point x="146" y="386" type="curve" smooth="yes"/>
      <point x="84" y="386"/>
      <point x="45" y="351"/>
      <point x="45" y="307" type="curve" smooth="yes"/>
      <point x="45" y="263"/>
      <point x="82" y="243"/>
      <point x="114" y="243" type="curve" smooth="yes"/>
      <point x="150" y="243"/>
      <point x="180" y="268"/>
      <point x="202" y="301" type="curve"/>
      <point x="341" y="232"/>
      <point x="430" y="81"/>
      <point x="432" y="0" type="curve"/>
      <point x="509" y="0" type="line"/>
      <point x="509" y="551" type="line"/>
      <point x="614" y="551" type="line"/>
      <point x="614" y="622" type="line"/>
      <point x="-10" y="622" type="line"/>
      <point x="-10" y="551" type="line"/>
      <point x="432" y="551" type="line"/>
      <point x="432" y="238" type="line" smooth="yes"/>
      <point x="432" y="215"/>
      <point x="433" y="192"/>
    </contour>
  </outline>
</glyph>
<glyph name="pa_tirh" format="2">
  <advance width="716"/>
  <unicode hex="114A3"/>
  <outline>
    <contour>
      <point x="545" y="0" type="line"/>
      <point x="622" y="0" type="line"/>
      <point x="622" y="551" type="line"/>
      <point x="727" y="551" type="line"/>
      <point x="727" y="622" type="line"/>
      <point x="621" y="622" type="line"/>
      <point x="598" y="688" type="line"/>
      <point x="545" y="688" type="line"/>
      <point x="545" y="558" type="line" smooth="yes"/>
      <point x="545" y="523"/>
      <point x="546" y="493"/>
      <point x="548" y="466" type="curve"/>
      <point x="464" y="575"/>
      <point x="395" y="629"/>
      <point x="291" y="629" type="curve" smooth="yes"/>
      <point x="185" y="629"/>
      <point x="102" y="557"/>
      <point x="22" y="452" type="curve"/>
      <point x="98" y="380" type="line"/>
      <point x="119" y="393"/>
      <point x="139" y="398"/>
      <point x="160" y="398" type="curve" smooth="yes"/>
      <point x="199" y="398"/>
      <point x="219" y="376"/>
      <point x="219" y="343" type="curve" smooth="yes"/>
      <point x="219" y="317"/>
      <point x="209" y="296"/>
      <point x="196" y="278" type="curve"/>
      <point x="167" y="250" type="line"/>
      <point x="226" y="195" type="line"/>
      <point x="486" y="440" type="line"/>
      <point x="504" y="417"/>
      <point x="524" y="391"/>
      <point x="545" y="362" type="curve"/>
    </contour>
    <contour>
      <point x="286" y="348" type="curve"/>
      <point x="286" y="356" type="line" smooth="yes"/>
      <point x="286" y="417"/>
      <point x="251" y="465"/>
      <point x="174" y="465" type="curve" smooth="yes"/>
      <point x="154" y="465"/>
      <point x="137" y="460"/>
      <point x="120" y="452" type="curve"/>
      <point x="165" y="508"/>
      <point x="220" y="556"/>
      <point x="298" y="556" type="curve" smooth="yes"/>
      <point x="350" y="556"/>
      <point x="391" y="536"/>
      <point x="437" y="493" type="curve"/>
      <point x="337" y="400" type="line" smooth="yes"/>
      <point x="318" y="382"/>
      <point x="302" y="365"/>
    </contour>
  </outline>
</glyph>
<glyph name="pha_tirh" format="2">
  <advance width="768"/>
  <unicode hex="114A4"/>
  <outline>
    <contour>
      <point x="445" y="0" type="curve"/>
      <point x="521" y="0" type="line"/>
      <point x="521" y="434" type="line"/>
      <point x="573" y="434" type="line" smooth="yes"/>
      <point x="637" y="434"/>
      <point x="664" y="401"/>
      <point x="664" y="368" type="curve" smooth="yes"/>
      <point x="664" y="337"/>
      <point x="648" y="302"/>
      <point x="599" y="302" type="curve" smooth="yes"/>
      <point x="591" y="302"/>
      <point x="584" y="302"/>
      <point x="575" y="304" type="curve"/>
      <point x="570" y="233" type="line"/>
      <point x="588" y="229"/>
      <point x="608" y="228"/>
      <point x="613" y="228" type="curve" smooth="yes"/>
      <point x="711" y="228"/>
      <point x="744" y="307"/>
      <point x="744" y="364" type="curve" smooth="yes"/>
      <point x="744" y="442"/>
      <point x="702" y="510"/>
      <point x="551" y="510" type="curve" smooth="yes"/>
      <point x="445" y="510" type="line"/>
      <point x="445" y="171" type="line" smooth="yes"/>
      <point x="445" y="146"/>
      <point x="446" y="121"/>
      <point x="447" y="99" type="curve"/>
      <point x="388" y="163"/>
      <point x="341" y="213"/>
      <point x="251" y="243" type="curve"/>
      <point x="320" y="275"/>
      <point x="357" y="325"/>
      <point x="357" y="384" type="curve" smooth="yes"/>
      <point x="357" y="463"/>
      <point x="304" y="521"/>
      <point x="207" y="521" type="curve" smooth="yes"/>
      <point x="122" y="521"/>
      <point x="69" y="478"/>
      <point x="69" y="411" type="curve" smooth="yes"/>
      <point x="69" y="400"/>
      <point x="74" y="371"/>
      <point x="84" y="356" type="curve"/>
      <point x="155" y="370" type="line"/>
      <point x="149" y="382"/>
      <point x="147" y="396"/>
      <point x="147" y="405" type="curve" smooth="yes"/>
      <point x="147" y="431"/>
      <point x="164" y="455"/>
      <point x="207" y="455" type="curve" smooth="yes"/>
      <point x="252" y="455"/>
      <point x="282" y="433"/>
      <point x="282" y="385" type="curve" smooth="yes"/>
      <point x="282" y="296"/>
      <point x="142" y="273"/>
      <point x="91" y="273" type="curve"/>
      <point x="123" y="206" type="line"/>
      <point x="251" y="188"/>
      <point x="363" y="111"/>
    </contour>
    <contour>
      <point x="-10" y="551" type="line"/>
      <point x="778" y="551" type="line"/>
      <point x="778" y="622" type="line"/>
      <point x="-10" y="622" type="line"/>
    </contour>
  </outline>
</glyph>
<glyph name="bha_tirh" format="2">
  <advance width="666"/>
  <unicode hex="114A6"/>
  <outline>
    <contour>
      <point x="380" y="43" type="curve" smooth="yes"/>
      <point x="537" y="43"/>
      <point x="619" y="136"/>
      <point x="619" y="289" type="curve" smooth="yes"/>
      <point x="619" y="400"/>
      <point x="536" y="497"/>
      <point x="460" y="497" type="curve"/>
      <point x="440" y="482"/>
      <point x="427" y="448"/>
      <point x="414" y="413" type="curve" smooth="yes"/>
      <point x="400" y="375"/>
      <point x="385" y="339"/>
      <point x="364" y="339" type="curve" smooth="yes"/>
      <point x="349" y="339"/>
      <point x="342" y="359"/>
      <point x="335" y="384" type="curve" smooth="yes"/>
      <point x="323" y="425"/>
      <point x="304" y="481"/>
      <point x="236" y="481" type="curve" smooth="yes"/>
      <point x="212" y="481"/>
      <point x="184" y="470"/>
      <point x="168" y="456" type="curve"/>
      <point x="184" y="390" type="line"/>
      <point x="202" y="404"/>
      <point x="218" y="410"/>
      <point x="233" y="410" type="curve" smooth="yes"/>
      <point x="258" y="410"/>
      <point x="266" y="385"/>
      <point x="274" y="356" type="curve" smooth="yes"/>
      <point x="285" y="316"/>
      <point x="301" y="268"/>
      <point x="365" y="268" type="curve" smooth="yes"/>
      <point x="434" y="268"/>
      <point x="463" y="349"/>
      <point x="477" y="390" type="curve" smooth="yes"/>
      <point x="481" y="401"/>
      <point x="484" y="409"/>
      <point x="487" y="412" type="curve"/>
      <point x="505" y="412"/>
      <point x="542" y="352"/>
      <point x="542" y="283" type="curve" smooth="yes"/>
      <point x="542" y="168"/>
      <point x="481" y="117"/>
      <point x="375" y="117" type="curve" smooth="yes"/>
      <point x="241" y="117"/>
      <point x="161" y="221"/>
      <point x="89" y="485" type="curve"/>
      <point x="19" y="465" type="line"/>
      <point x="107" y="145"/>
      <point x="207" y="43"/>
    </contour>
    <contour>
      <point x="-10" y="551" type="line"/>
      <point x="676" y="551" type="line"/>
      <point x="676" y="622" type="line"/>
      <point x="-10" y="622" type="line"/>
    </contour>
  </outline>
</glyph>
<glyph name="ma_tirh" format="2">
  <advance width="622"/>
  <unicode hex="114A7"/>
  <outline>
    <contour>
      <point x="450" y="0" type="line"/>
      <point x="527" y="0" type="line"/>
      <point x="527" y="551" type="line"/>
      <point x="632" y="551" type="line"/>
      <point x="632" y="622" type="line"/>
      <point x="-10" y="622" type="line"/>
      <point x="-10" y="551" type="line"/>
      <point x="56" y="551" type="line"/>
      <point x="42" y="492" type="line"/>
      <point x="191" y="478"/>
      <point x="206" y="390"/>
      <point x="206" y="324" type="curve" smooth="yes"/>
      <point x="206" y="311"/>
      <point x="204" y="296"/>
      <point x="201" y="284" type="curve"/>
      <point x="144" y="284"/>
      <point x="93" y="250"/>
      <point x="93" y="202" type="curve" smooth="yes"/>
      <point x="93" y="162"/>
      <point x="123" y="146"/>
      <point x="153" y="146" type="curve" smooth="yes"/>
      <point x="186" y="146"/>
      <point x="222" y="164"/>
      <point x="250" y="202" type="curve"/>
      <point x="323" y="180"/>
      <point x="399" y="119"/>
      <point x="450" y="48" type="curve"/>
    </contour>
    <contour>
      <point x="452" y="144" type="curve"/>
      <point x="412" y="194"/>
      <point x="353" y="248"/>
      <point x="277" y="273" type="curve"/>
      <point x="280" y="289"/>
      <point x="282" y="309"/>
      <point x="282" y="331" type="curve" smooth="yes"/>
      <point x="282" y="438"/>
      <point x="232" y="530"/>
      <point x="108" y="551" type="curve"/>
      <point x="450" y="551" type="line"/>
      <point x="450" y="217" type="line" smooth="yes"/>
      <point x="450" y="192"/>
      <point x="451" y="167"/>
    </contour>
  </outline>
</glyph>
<glyph name="ya_tirh" format="2">
  <advance width="626"/>
  <unicode hex="114A8"/>
  <outline>
    <contour>
      <point x="455" y="0" type="curve"/>
      <point x="531" y="0" type="line"/>
      <point x="531" y="551" type="line"/>
      <point x="636" y="551" type="line"/>
      <point x="636" y="622" type="line"/>
      <point x="-10" y="622" type="line"/>
      <point x="-10" y="551" type="line"/>
      <point x="70" y="551" type="line"/>
      <point x="48" y="502" type="line"/>
      <point x="138" y="484"/>
      <point x="201" y="454"/>
      <point x="252" y="416" type="curve"/>
      <point x="183" y="383"/>
      <point x="109" y="344"/>
      <point x="48" y="303" type="curve"/>
      <point x="84" y="212" type="line"/>
      <point x="267" y="185"/>
      <point x="371" y="111"/>
    </contour>
    <contour>
      <point x="456" y="99" type="curve"/>
      <point x="374" y="189"/>
      <point x="275" y="252"/>
      <point x="114" y="278" type="curve"/>
      <point x="123" y="269" type="line"/>
      <point x="180" y="307"/>
      <point x="265" y="348"/>
      <point x="339" y="381" type="curve"/>
      <point x="336" y="436" type="line"/>
      <point x="287" y="483"/>
      <point x="219" y="525"/>
      <point x="144" y="551" type="curve"/>
      <point x="454" y="551" type="line"/>
      <point x="454" y="171" type="line" smooth="yes"/>
      <point x="454" y="146"/>
      <point x="455" y="121"/>
    </contour>
  </outline>
</glyph>
<glyph name="ra_tirh" format="2">
  <advance width="596"/>
  <unicode hex="114A9"/>
  <outline>
    <contour>
      <point x="425" y="0" type="curve"/>
      <point x="501" y="0" type="line"/>
      <point x="501" y="551" type="line"/>
      <point x="606" y="551" type="line"/>
      <point x="606" y="622" type="line"/>
      <point x="-10" y="622" type="line"/>
      <point x="-10" y="551" type="line"/>
      <point x="424" y="551" type="line"/>
      <point x="424" y="517" type="line"/>
      <point x="287" y="474"/>
      <point x="159" y="412"/>
      <point x="37" y="339" type="curve"/>
      <point x="76" y="243" type="line"/>
      <point x="230" y="218"/>
      <point x="364" y="119"/>
    </contour>
    <contour>
      <point x="427" y="108" type="curve"/>
      <point x="361" y="219"/>
      <point x="216" y="289"/>
      <point x="112" y="308" type="curve"/>
      <point x="112" y="298" type="line"/>
      <point x="210" y="360"/>
      <point x="335" y="416"/>
      <point x="444" y="451" type="curve"/>
      <point x="424" y="472" type="line"/>
      <point x="424" y="189" type="line"/>
      <point x="424" y="156"/>
      <point x="425" y="132"/>
    </contour>
  </outline>
</glyph>
<glyph name="la_tirh" format="2">
  <advance width="511"/>
  <unicode hex="114AA"/>
  <outline>
    <contour>
      <point x="372" y="0" type="line"/>
      <point x="449" y="0" type="line"/>
      <point x="449" y="551" type="line"/>
      <point x="521" y="551" type="line"/>
      <point x="521" y="622" type="line"/>
      <point x="-10" y="622" type="line"/>
      <point x="-10" y="551" type="line"/>
      <point x="372" y="551" type="line"/>
      <point x="372" y="465" type="line" smooth="yes"/>
      <point x="372" y="437"/>
      <point x="374" y="396"/>
      <point x="376" y="361" type="curve"/>
      <point x="345" y="413"/>
      <point x="287" y="472"/>
      <point x="198" y="472" type="curve" smooth="yes"/>
      <point x="117" y="472"/>
      <point x="36" y="424"/>
      <point x="36" y="326" type="curve" smooth="yes"/>
      <point x="36" y="254"/>
      <point x="84" y="195"/>
      <point x="166" y="161" type="curve"/>
      <point x="204" y="233" type="line"/>
      <point x="145" y="256"/>
      <point x="118" y="283"/>
      <point x="118" y="323" type="curve" smooth="yes"/>
      <point x="118" y="374"/>
      <point x="150" y="399"/>
      <point x="197" y="399" type="curve" smooth="yes"/>
      <point x="272" y="399"/>
      <point x="322" y="341"/>
      <point x="372" y="232" type="curve"/>
    </contour>
  </outline>
</glyph>
<glyph name="sha_tirh" format="2">
  <advance width="677"/>
  <unicode hex="114AC"/>
  <outline>
    <contour>
      <point x="505" y="0" type="line"/>
      <point x="582" y="0" type="line"/>
      <point x="582" y="551" type="line"/>
      <point x="687" y="551" type="line"/>
      <point x="687" y="622" type="line"/>
      <point x="507" y="622" type="line"/>
      <point x="507" y="554" type="line"/>
      <point x="472" y="600"/>
      <point x="421" y="629"/>
      <point x="361" y="629" type="curve" smooth="yes"/>
      <point x="303" y="629"/>
      <point x="248" y="600"/>
      <point x="226" y="539" type="curve"/>
      <point x="196" y="599"/>
      <point x="131" y="622"/>
      <point x="70" y="622" type="curve" smooth="yes"/>
      <point x="-10" y="622" type="line"/>
      <point x="-10" y="551" type="line"/>
      <point x="62" y="551" type="line" smooth="yes"/>
      <point x="132" y="551"/>
      <point x="181" y="522"/>
      <point x="181" y="468" type="curve" smooth="yes"/>
      <point x="181" y="425"/>
      <point x="150" y="378"/>
      <point x="48" y="377" type="curve"/>
      <point x="54" y="300" type="line"/>
      <point x="150" y="300"/>
      <point x="206" y="342"/>
      <point x="229" y="398" type="curve"/>
      <point x="254" y="342"/>
      <point x="311" y="305"/>
      <point x="406" y="300" type="curve"/>
      <point x="413" y="377" type="line"/>
      <point x="317" y="381"/>
      <point x="276" y="417"/>
      <point x="276" y="471" type="curve" smooth="yes"/>
      <point x="276" y="527"/>
      <point x="311" y="556"/>
      <point x="363" y="556" type="curve" smooth="yes"/>
      <point x="419" y="556"/>
      <point x="467" y="519"/>
      <point x="505" y="454" type="curve"/>
    </contour>
    <contour>
      <point x="507" y="581" type="line"/>
      <point x="577" y="591" type="line"/>
      <point x="577" y="614" type="line" smooth="yes"/>
      <point x="577" y="733"/>
      <point x="530" y="771"/>
      <point x="409" y="771" type="curve" smooth="yes"/>
      <point x="362" y="771" type="line" smooth="yes"/>
      <point x="247" y="771"/>
      <point x="226" y="806"/>
      <point x="226" y="869" type="curve" smooth="yes"/>
      <point x="226" y="882"/>
      <point x="228" y="892"/>
      <point x="231" y="907" type="curve"/>
      <point x="157" y="912" type="line"/>
      <point x="154" y="892"/>
      <point x="152" y="876"/>
      <point x="152" y="859" type="curve" smooth="yes"/>
      <point x="152" y="763"/>
      <point x="195" y="699"/>
      <point x="367" y="699" type="curve" smooth="yes"/>
      <point x="426" y="699" type="line" smooth="yes"/>
      <point x="481" y="699"/>
      <point x="502" y="678"/>
      <point x="505" y="623" type="curve" smooth="yes"/>
    </contour>
  </outline>
</glyph>
<glyph name="ssa_tirh" format="2">
  <advance width="633"/>
  <unicode hex="114AD"/>
  <outline>
    <contour>
      <point x="461" y="0" type="curve"/>
      <point x="538" y="0" type="line"/>
      <point x="538" y="551" type="line"/>
      <point x="643" y="551" type="line"/>
      <point x="643" y="622" type="line"/>
      <point x="-10" y="622" type="line"/>
      <point x="-10" y="551" type="line"/>
      <point x="69" y="551" type="line"/>
      <point x="48" y="502" type="line"/>
      <point x="117" y="487"/>
      <point x="193" y="457"/>
      <point x="264" y="418" type="curve"/>
      <point x="185" y="384"/>
      <point x="110" y="342"/>
      <point x="48" y="303" type="curve"/>
      <point x="84" y="212" type="line"/>
      <point x="267" y="185"/>
      <point x="363" y="115"/>
    </contour>
    <contour>
      <point x="463" y="99" type="curve"/>
      <point x="383" y="181"/>
      <point x="288" y="247"/>
      <point x="142" y="275" type="curve"/>
      <point x="196" y="309"/>
      <point x="271" y="345"/>
      <point x="337" y="374" type="curve"/>
      <point x="383" y="343"/>
      <point x="426" y="308"/>
      <point x="461" y="271" type="curve"/>
      <point x="461" y="171" type="line" smooth="yes"/>
      <point x="461" y="146"/>
      <point x="462" y="122"/>
    </contour>
    <contour>
      <point x="463" y="359" type="curve"/>
      <point x="377" y="440"/>
      <point x="249" y="515"/>
      <point x="132" y="551" type="curve"/>
      <point x="461" y="551" type="line"/>
      <point x="461" y="434" type="line" smooth="yes"/>
      <point x="461" y="409"/>
      <point x="462" y="384"/>
    </contour>
  </outline>
</glyph>
<glyph name="sa_tirh" format="2">
  <advance width="682"/>
  <unicode hex="114AE"/>
  <outline>
    <contour>
      <point x="510" y="0" type="line"/>
      <point x="587" y="0" type="line"/>
      <point x="587" y="551" type="line"/>
      <point x="692" y="551" type="line"/>
      <point x="692" y="622" type="line"/>
      <point x="-10" y="622" type="line"/>
      <point x="-10" y="551" type="line"/>
      <point x="49" y="551" type="line"/>
      <point x="38" y="495" type="line"/>
      <point x="125" y="484"/>
      <point x="180" y="472"/>
      <point x="214" y="441" type="curve" smooth="yes"/>
      <point x="246" y="412"/>
      <point x="257" y="367"/>
      <point x="269" y="285" type="curve"/>
      <point x="232" y="223"/>
      <point x="206" y="205"/>
      <point x="180" y="205" type="curve" smooth="yes"/>
      <point x="152" y="205"/>
      <point x="132" y="218"/>
      <point x="96" y="281" type="curve"/>
      <point x="35" y="244" type="line"/>
      <point x="90" y="156"/>
      <point x="134" y="127"/>
      <point x="188" y="127" type="curve" smooth="yes"/>
      <point x="257" y="127"/>
      <point x="289" y="169"/>
      <point x="343" y="268" type="curve" smooth="yes"/>
      <point x="393" y="359"/>
      <point x="407" y="375"/>
      <point x="436" y="375" type="curve" smooth="yes"/>
      <point x="458" y="375"/>
      <point x="480" y="355"/>
      <point x="510" y="318" type="curve"/>
    </contour>
    <contour>
      <point x="314" y="359" type="curve"/>
      <point x="304" y="481"/>
      <point x="256" y="528"/>
      <point x="107" y="551" type="curve"/>
      <point x="510" y="551" type="line"/>
      <point x="510" y="458" type="line" smooth="yes"/>
      <point x="510" y="437"/>
      <point x="510" y="418"/>
      <point x="513" y="397" type="curve"/>
      <point x="478" y="432"/>
      <point x="453" y="450"/>
      <point x="415" y="450" type="curve" smooth="yes"/>
      <point x="377" y="450"/>
      <point x="349" y="429"/>
    </contour>
  </outline>
</glyph>
<glyph name="ha_tirh" format="2">
  <advance width="561"/>
  <unicode hex="114AF"/>
  <outline>
    <contour>
      <point x="472" y="-74" type="curve"/>
      <point x="500" y="-7" type="line"/>
      <point x="236" y="63"/>
      <point x="134" y="180"/>
      <point x="134" y="292" type="curve" smooth="yes"/>
      <point x="134" y="377"/>
      <point x="205" y="419"/>
      <point x="287" y="419" type="curve" smooth="yes"/>
      <point x="371" y="419"/>
      <point x="422" y="395"/>
      <point x="422" y="347" type="curve" smooth="yes"/>
      <point x="422" y="312"/>
      <point x="402" y="296"/>
      <point x="369" y="296" type="curve" smooth="yes"/>
      <point x="354" y="296"/>
      <point x="341" y="300"/>
      <point x="321" y="307" type="curve"/>
      <point x="304" y="240" type="line"/>
      <point x="328" y="231"/>
      <point x="355" y="224"/>
      <point x="382" y="224" type="curve" smooth="yes"/>
      <point x="461" y="224"/>
      <point x="501" y="275"/>
      <point x="501" y="338" type="curve" smooth="yes"/>
      <point x="501" y="433"/>
      <point x="429" y="483"/>
      <point x="324" y="494" type="curve"/>
      <point x="324" y="551" type="line"/>
      <point x="571" y="551" type="line"/>
      <point x="571" y="622" type="line"/>
      <point x="-10" y="622" type="line"/>
      <point x="-10" y="551" type="line"/>
      <point x="247" y="551" type="line"/>
      <point x="247" y="494" type="line"/>
      <point x="140" y="481"/>
      <point x="56" y="408"/>
      <point x="56" y="294" type="curve" smooth="yes"/>
      <point x="56" y="169"/>
      <point x="139" y="25"/>
    </contour>
  </outline>
</glyph>
<glyph name="aaMatra_tirh" format="2">
  <advance width="266"/>
  <unicode hex="114B0"/>
  <anchor x="50" y="630" name="&#9;"/>
  <outline>
    <contour>
      <point x="95" y="0" type="line"/>
      <point x="172" y="0" type="line"/>
      <point x="172" y="551" type="line"/>
      <point x="276" y="551" type="line"/>
      <point x="276" y="622" type="line"/>
      <point x="170" y="622" type="line"/>
      <point x="148" y="688" type="line"/>
      <point x="95" y="688" type="line"/>
      <point x="95" y="613" type="line" smooth="yes"/>
      <point x="95" y="596"/>
      <point x="97" y="566"/>
      <point x="98" y="559" type="curve"/>
      <point x="76" y="601"/>
      <point x="38" y="622"/>
      <point x="6" y="622" type="curve" smooth="yes"/>
      <point x="-10" y="622" type="line"/>
      <point x="-10" y="551" type="line"/>
      <point x="-1" y="551" type="line" smooth="yes"/>
      <point x="48" y="551"/>
      <point x="79" y="514"/>
      <point x="95" y="469" type="curve"/>
    </contour>
  </outline>
</glyph>
<glyph name="iMatra_tirh" format="2">
  <advance width="266"/>
  <unicode hex="114B1"/>
  <outline>
    <contour>
      <point x="96" y="0" type="line"/>
      <point x="173" y="0" type="line"/>
      <point x="173" y="551" type="line"/>
      <point x="277" y="551" type="line"/>
      <point x="277" y="622" type="line"/>
      <point x="161" y="622" type="line"/>
      <point x="137" y="648"/>
      <point x="117" y="673"/>
      <point x="107" y="693" type="curve"/>
      <point x="155" y="782"/>
      <point x="215" y="844"/>
      <point x="326" y="844" type="curve" smooth="yes"/>
      <point x="439" y="844"/>
      <point x="525" y="789"/>
      <point x="664" y="677" type="curve"/>
      <point x="706" y="731" type="line"/>
      <point x="568" y="844"/>
      <point x="455" y="917"/>
      <point x="314" y="917" type="curve" smooth="yes"/>
      <point x="164" y="917"/>
      <point x="88" y="822"/>
      <point x="21" y="704" type="curve"/>
      <point x="38" y="676"/>
      <point x="62" y="647"/>
      <point x="83" y="622" type="curve"/>
      <point x="-9" y="622" type="line"/>
      <point x="-9" y="551" type="line"/>
      <point x="96" y="551" type="line"/>
    </contour>
  </outline>
</glyph>
<glyph name="iiMatra_tirh" format="2">
  <advance width="266"/>
  <unicode hex="114B2"/>
  <guideline x="486" y="415" angle="90"/>
  <outline>
    <contour>
      <point x="94" y="0" type="line"/>
      <point x="171" y="0" type="line"/>
      <point x="171" y="551" type="line"/>
      <point x="276" y="551" type="line"/>
      <point x="276" y="622" type="line"/>
      <point x="184" y="622" type="line"/>
      <point x="205" y="647"/>
      <point x="229" y="676"/>
      <point x="246" y="704" type="curve"/>
      <point x="179" y="822"/>
      <point x="103" y="917"/>
      <point x="-47" y="917" type="curve" smooth="yes"/>
      <point x="-188" y="917"/>
      <point x="-301" y="844"/>
      <point x="-439" y="731" type="curve"/>
      <point x="-397" y="677" type="line"/>
      <point x="-258" y="789"/>
      <point x="-172" y="844"/>
      <point x="-59" y="844" type="curve" smooth="yes"/>
      <point x="52" y="844"/>
      <point x="112" y="782"/>
      <point x="160" y="693" type="curve"/>
      <point x="150" y="673"/>
      <point x="130" y="648"/>
      <point x="106" y="622" type="curve"/>
      <point x="-10" y="622" type="line"/>
      <point x="-10" y="551" type="line"/>
      <point x="94" y="551" type="line"/>
    </contour>
  </outline>
</glyph>
<glyph name="uMatra_tirh" format="2">
  <unicode hex="114B3"/>
  <outline>
    <contour>
      <point x="-123" y="-262" type="curve" smooth="yes"/>
      <point x="-92" y="-262"/>
      <point x="-57" y="-258"/>
      <point x="-38" y="-255" type="curve"/>
      <point x="-38" y="-193" type="line"/>
      <point x="-59" y="-197"/>
      <point x="-86" y="-200"/>
      <point x="-118" y="-200" type="curve" smooth="yes"/>
      <point x="-139" y="-200"/>
      <point x="-153" y="-199"/>
      <point x="-164" y="-197" type="curve"/>
      <point x="-153" y="-178"/>
      <point x="-148" y="-156"/>
      <point x="-148" y="-132" type="curve" smooth="yes"/>
      <point x="-148" y="-55"/>
      <point x="-201" y="-19"/>
      <point x="-276" y="-19" type="curve" smooth="yes"/>
      <point x="-312" y="-19"/>
      <point x="-382" y="-36"/>
      <point x="-395" y="-99" type="curve"/>
      <point x="-336" y="-126" type="line"/>
      <point x="-329" y="-102"/>
      <point x="-316" y="-84"/>
      <point x="-275" y="-84" type="curve" smooth="yes"/>
      <point x="-241" y="-84"/>
      <point x="-217" y="-100"/>
      <point x="-217" y="-136" type="curve" smooth="yes"/>
      <point x="-217" y="-161"/>
      <point x="-231" y="-186"/>
      <point x="-274" y="-186" type="curve" smooth="yes"/>
      <point x="-379" y="-186" type="line"/>
      <point x="-379" y="-249" type="line"/>
      <point x="-272" y="-249" type="line" smooth="yes"/>
      <point x="-254" y="-249"/>
      <point x="-237" y="-247"/>
      <point x="-223" y="-242" type="curve"/>
      <point x="-192" y="-257"/>
      <point x="-158" y="-262"/>
    </contour>
  </outline>
</glyph>
<glyph name="uuMatra_tirh" format="2">
  <unicode hex="114B4"/>
  <outline>
    <contour>
      <point x="121" y="-269" type="curve"/>
      <point x="163" y="-216" type="line"/>
      <point x="80" y="-179"/>
      <point x="13" y="-170"/>
      <point x="-44" y="-170" type="curve" smooth="yes"/>
      <point x="-95" y="-170"/>
      <point x="-138" y="-177"/>
      <point x="-179" y="-177" type="curve" smooth="yes"/>
      <point x="-211" y="-177"/>
      <point x="-235" y="-164"/>
      <point x="-235" y="-138" type="curve" smooth="yes"/>
      <point x="-235" y="-112"/>
      <point x="-211" y="-98"/>
      <point x="-165" y="-98" type="curve" smooth="yes"/>
      <point x="-151" y="-98"/>
      <point x="-137" y="-99"/>
      <point x="-128" y="-100" type="curve"/>
      <point x="-96" y="-54" type="line"/>
      <point x="-96" y="10" type="line"/>
      <point x="-173" y="10" type="line"/>
      <point x="-173" y="-34" type="line"/>
      <point x="-247" y="-35"/>
      <point x="-308" y="-71"/>
      <point x="-308" y="-131" type="curve" smooth="yes"/>
      <point x="-308" y="-209"/>
      <point x="-235" y="-239"/>
      <point x="-177" y="-239" type="curve" smooth="yes"/>
      <point x="-118" y="-239"/>
      <point x="-81" y="-232"/>
      <point x="-44" y="-232" type="curve" smooth="yes"/>
      <point x="0" y="-232"/>
      <point x="43" y="-241"/>
    </contour>
  </outline>
</glyph>
<glyph name="rVocalicMatra_tirh" format="2">
  <unicode hex="114B5"/>
  <outline>
    <contour>
      <point x="-151" y="-270" type="curve" smooth="yes"/>
      <point x="-113" y="-270"/>
      <point x="-80" y="-263"/>
      <point x="-54" y="-253" type="curve"/>
      <point x="-54" y="-185" type="line"/>
      <point x="-78" y="-197"/>
      <point x="-112" y="-205"/>
      <point x="-150" y="-205" type="curve" smooth="yes"/>
      <point x="-186" y="-205"/>
      <point x="-210" y="-189"/>
      <point x="-210" y="-153" type="curve" smooth="yes"/>
      <point x="-210" y="-128"/>
      <point x="-196" y="-97"/>
      <point x="-153" y="-97" type="curve" smooth="yes"/>
      <point x="-139" y="-97"/>
      <point x="-124" y="-101"/>
      <point x="-120" y="-103" type="curve"/>
      <point x="-96" y="-70" type="line"/>
      <point x="-96" y="10" type="line"/>
      <point x="-173" y="10" type="line"/>
      <point x="-173" y="-34" type="line"/>
      <point x="-240" y="-44"/>
      <point x="-279" y="-93"/>
      <point x="-279" y="-157" type="curve" smooth="yes"/>
      <point x="-279" y="-234"/>
      <point x="-226" y="-270"/>
    </contour>
  </outline>
</glyph>
<glyph name="rrVocalicMatra_tirh" format="2">
  <unicode hex="114B6"/>
  <outline>
    <contour>
      <point x="-151" y="-400" type="curve" smooth="yes"/>
      <point x="-113" y="-400"/>
      <point x="-80" y="-393"/>
      <point x="-54" y="-383" type="curve"/>
      <point x="-54" y="-315" type="line"/>
      <point x="-78" y="-327"/>
      <point x="-112" y="-335"/>
      <point x="-150" y="-335" type="curve" smooth="yes"/>
      <point x="-186" y="-335"/>
      <point x="-210" y="-320"/>
      <point x="-210" y="-293" type="curve" smooth="yes"/>
      <point x="-210" y="-278"/>
      <point x="-206" y="-261"/>
      <point x="-177" y="-248" type="curve"/>
      <point x="-169" y="-249"/>
      <point x="-160" y="-250"/>
      <point x="-151" y="-250" type="curve" smooth="yes"/>
      <point x="-122" y="-250"/>
      <point x="-96" y="-246"/>
      <point x="-73" y="-239" type="curve"/>
      <point x="-73" y="-173" type="line"/>
      <point x="-95" y="-180"/>
      <point x="-121" y="-185"/>
      <point x="-150" y="-185" type="curve" smooth="yes"/>
      <point x="-186" y="-185"/>
      <point x="-210" y="-170"/>
      <point x="-210" y="-144" type="curve" smooth="yes"/>
      <point x="-210" y="-120"/>
      <point x="-196" y="-97"/>
      <point x="-153" y="-97" type="curve" smooth="yes"/>
      <point x="-138" y="-97"/>
      <point x="-129" y="-100"/>
      <point x="-120" y="-103" type="curve"/>
      <point x="-96" y="-70" type="line"/>
      <point x="-96" y="10" type="line"/>
      <point x="-173" y="10" type="line"/>
      <point x="-173" y="-34" type="line"/>
      <point x="-240" y="-44"/>
      <point x="-279" y="-93"/>
      <point x="-279" y="-146" type="curve" smooth="yes"/>
      <point x="-279" y="-182"/>
      <point x="-266" y="-208"/>
      <point x="-245" y="-224" type="curve"/>
      <point x="-270" y="-244"/>
      <point x="-279" y="-269"/>
      <point x="-279" y="-297" type="curve" smooth="yes"/>
      <point x="-279" y="-366"/>
      <point x="-226" y="-400"/>
    </contour>
  </outline>
</glyph>
<glyph name="lVocalicMatra_tirh" format="2">
  <unicode hex="114B7"/>
  <outline>
    <contour>
      <point x="-148" y="-406" type="curve" smooth="yes"/>
      <point x="-123" y="-406"/>
      <point x="-104" y="-402"/>
      <point x="-85" y="-396" type="curve"/>
      <point x="-85" y="-337" type="line"/>
      <point x="-102" y="-342"/>
      <point x="-123" y="-346"/>
      <point x="-147" y="-346" type="curve" smooth="yes"/>
      <point x="-175" y="-346"/>
      <point x="-192" y="-334"/>
      <point x="-192" y="-309" type="curve" smooth="yes"/>
      <point x="-192" y="-291"/>
      <point x="-183" y="-273"/>
      <point x="-150" y="-273" type="curve" smooth="yes"/>
      <point x="-139" y="-273"/>
      <point x="-124" y="-276"/>
      <point x="-121" y="-277" type="curve"/>
      <point x="-96" y="-263" type="line"/>
      <point x="-96" y="10" type="line"/>
      <point x="-173" y="10" type="line"/>
      <point x="-173" y="-74" type="line"/>
      <point x="-204" y="-51"/>
      <point x="-243" y="-31"/>
      <point x="-279" y="-31" type="curve" smooth="yes"/>
      <point x="-334" y="-31"/>
      <point x="-383" y="-61"/>
      <point x="-383" y="-123" type="curve" smooth="yes"/>
      <point x="-383" y="-186"/>
      <point x="-329" y="-223"/>
      <point x="-290" y="-233" type="curve"/>
      <point x="-263" y="-179" type="line"/>
      <point x="-289" y="-172"/>
      <point x="-319" y="-151"/>
      <point x="-319" y="-129" type="curve" smooth="yes"/>
      <point x="-319" y="-102"/>
      <point x="-305" y="-87"/>
      <point x="-275" y="-87" type="curve" smooth="yes"/>
      <point x="-238" y="-87"/>
      <point x="-199" y="-106"/>
      <point x="-173" y="-137" type="curve"/>
      <point x="-173" y="-218" type="line"/>
      <point x="-224" y="-224"/>
      <point x="-256" y="-264"/>
      <point x="-256" y="-312" type="curve" smooth="yes"/>
      <point x="-256" y="-368"/>
      <point x="-215" y="-406"/>
    </contour>
  </outline>
</glyph>
<glyph name="llVocalicMatra_tirh" format="2">
  <unicode hex="114B8"/>
  <outline>
    <contour>
      <point x="-148" y="-516" type="curve" smooth="yes"/>
      <point x="-123" y="-516"/>
      <point x="-104" y="-512"/>
      <point x="-85" y="-506" type="curve"/>
      <point x="-85" y="-447" type="line"/>
      <point x="-102" y="-452"/>
      <point x="-123" y="-456"/>
      <point x="-147" y="-456" type="curve" smooth="yes"/>
      <point x="-175" y="-456"/>
      <point x="-192" y="-447"/>
      <point x="-192" y="-425" type="curve" smooth="yes"/>
      <point x="-192" y="-414"/>
      <point x="-187" y="-400"/>
      <point x="-168" y="-395" type="curve"/>
      <point x="-157" y="-396"/>
      <point x="-155" y="-396"/>
      <point x="-148" y="-396" type="curve" smooth="yes"/>
      <point x="-123" y="-396"/>
      <point x="-104" y="-392"/>
      <point x="-85" y="-386" type="curve"/>
      <point x="-85" y="-327" type="line"/>
      <point x="-102" y="-332"/>
      <point x="-123" y="-336"/>
      <point x="-147" y="-336" type="curve" smooth="yes"/>
      <point x="-175" y="-336"/>
      <point x="-192" y="-327"/>
      <point x="-192" y="-305" type="curve" smooth="yes"/>
      <point x="-192" y="-291"/>
      <point x="-183" y="-273"/>
      <point x="-150" y="-273" type="curve" smooth="yes"/>
      <point x="-139" y="-273"/>
      <point x="-124" y="-276"/>
      <point x="-121" y="-277" type="curve"/>
      <point x="-96" y="-263" type="line"/>
      <point x="-96" y="10" type="line"/>
      <point x="-173" y="10" type="line"/>
      <point x="-173" y="-74" type="line"/>
      <point x="-204" y="-51"/>
      <point x="-243" y="-31"/>
      <point x="-279" y="-31" type="curve" smooth="yes"/>
      <point x="-334" y="-31"/>
      <point x="-383" y="-61"/>
      <point x="-383" y="-123" type="curve" smooth="yes"/>
      <point x="-383" y="-186"/>
      <point x="-329" y="-223"/>
      <point x="-290" y="-233" type="curve"/>
      <point x="-263" y="-179" type="line"/>
      <point x="-289" y="-172"/>
      <point x="-319" y="-151"/>
      <point x="-319" y="-129" type="curve" smooth="yes"/>
      <point x="-319" y="-102"/>
      <point x="-305" y="-87"/>
      <point x="-275" y="-87" type="curve" smooth="yes"/>
      <point x="-238" y="-87"/>
      <point x="-199" y="-106"/>
      <point x="-173" y="-137" type="curve"/>
      <point x="-173" y="-218" type="line"/>
      <point x="-224" y="-224"/>
      <point x="-256" y="-264"/>
      <point x="-256" y="-309" type="curve" smooth="yes"/>
      <point x="-256" y="-333"/>
      <point x="-247" y="-352"/>
      <point x="-232" y="-367" type="curve"/>
      <point x="-247" y="-384"/>
      <point x="-256" y="-406"/>
      <point x="-256" y="-429" type="curve" smooth="yes"/>
      <point x="-256" y="-482"/>
      <point x="-215" y="-516"/>
    </contour>
  </outline>
</glyph>
<glyph name="eMatra_tirh" format="2">
  <advance width="346"/>
  <unicode hex="114B9"/>
  <outline>
    <contour>
      <point x="264" y="-5" type="curve" smooth="yes"/>
      <point x="305" y="-5"/>
      <point x="348" y="4"/>
      <point x="383" y="31" type="curve"/>
      <point x="348" y="92" type="line"/>
      <point x="318" y="75"/>
      <point x="296" y="69"/>
      <point x="267" y="69" type="curve" smooth="yes"/>
      <point x="203" y="69"/>
      <point x="128" y="117"/>
      <point x="128" y="262" type="curve" smooth="yes"/>
      <point x="128" y="422"/>
      <point x="254" y="532"/>
      <point x="335" y="551" type="curve"/>
      <point x="356" y="551" type="line"/>
      <point x="356" y="622" type="line"/>
      <point x="-10" y="622" type="line"/>
      <point x="-10" y="551" type="line"/>
      <point x="130" y="551" type="line" smooth="yes"/>
      <point x="161" y="551"/>
      <point x="185" y="551"/>
      <point x="207" y="554" type="curve"/>
      <point x="115" y="496"/>
      <point x="49" y="391"/>
      <point x="49" y="260" type="curve" smooth="yes"/>
      <point x="49" y="100"/>
      <point x="137" y="-5"/>
    </contour>
  </outline>
</glyph>
<glyph name="shortEMatra_tirh" format="2">
  <unicode hex="114BA"/>
  <guideline x="-700" y="912" angle="0"/>
  <outline>
    <contour>
      <point x="-317" y="622" type="curve"/>
      <point x="-245" y="622" type="line"/>
      <point x="-249" y="738"/>
      <point x="-296" y="771"/>
      <point x="-418" y="771" type="curve" smooth="yes"/>
      <point x="-422" y="771" type="line" smooth="yes"/>
      <point x="-537" y="771"/>
      <point x="-558" y="806"/>
      <point x="-558" y="869" type="curve" smooth="yes"/>
      <point x="-558" y="882"/>
      <point x="-556" y="892"/>
      <point x="-553" y="907" type="curve"/>
      <point x="-627" y="912" type="line"/>
      <point x="-630" y="892"/>
      <point x="-632" y="876"/>
      <point x="-632" y="859" type="curve" smooth="yes"/>
      <point x="-632" y="763"/>
      <point x="-589" y="699"/>
      <point x="-417" y="699" type="curve" smooth="yes"/>
      <point x="-397" y="699" type="line" smooth="yes"/>
      <point x="-338" y="699"/>
      <point x="-318" y="670"/>
    </contour>
  </outline>
</glyph>
<glyph name="shortOMatra_tirh" format="2">
  <advance width="266"/>
  <unicode hex="114BD"/>
  <outline>
    <contour>
      <point x="94" y="0" type="line"/>
      <point x="171" y="0" type="line"/>
      <point x="171" y="551" type="line"/>
      <point x="276" y="551" type="line"/>
      <point x="276" y="622" type="line"/>
      <point x="-10" y="622" type="line"/>
      <point x="-10" y="551" type="line"/>
      <point x="94" y="551" type="line"/>
    </contour>
    <contour>
      <point x="94" y="0" type="line"/>
      <point x="171" y="0" type="line"/>
      <point x="171" y="551" type="line"/>
      <point x="276" y="551" type="line"/>
      <point x="276" y="622" type="line"/>
      <point x="171" y="622" type="line"/>
      <point x="167" y="740"/>
      <point x="119" y="771"/>
      <point x="-2" y="771" type="curve" smooth="yes"/>
      <point x="-64" y="771" type="line" smooth="yes"/>
      <point x="-179" y="771"/>
      <point x="-200" y="806"/>
      <point x="-200" y="869" type="curve" smooth="yes"/>
      <point x="-200" y="882"/>
      <point x="-198" y="892"/>
      <point x="-195" y="907" type="curve"/>
      <point x="-269" y="912" type="line"/>
      <point x="-272" y="892"/>
      <point x="-274" y="876"/>
      <point x="-274" y="859" type="curve" smooth="yes"/>
      <point x="-274" y="763"/>
      <point x="-231" y="699"/>
      <point x="-59" y="699" type="curve" smooth="yes"/>
      <point x="20" y="699" type="line" smooth="yes"/>
      <point x="75" y="699"/>
      <point x="97" y="677"/>
      <point x="99" y="622" type="curve"/>
      <point x="-10" y="622" type="line"/>
      <point x="-10" y="551" type="line"/>
      <point x="94" y="551" type="line"/>
    </contour>
  </outline>
</glyph>
<glyph name="candrabindu_tirh" format="2">
  <unicode hex="114BF"/>
  <guideline x="-591" y="665" angle="0"/>
  <outline>
    <contour>
      <point x="-300" y="665" type="curve" smooth="yes"/>
      <point x="-185" y="665"/>
      <point x="-136" y="740"/>
      <point x="-127" y="841" type="curve"/>
      <point x="-197" y="850" type="line"/>
      <point x="-204" y="772"/>
      <point x="-238" y="731"/>
      <point x="-304" y="731" type="curve" smooth="yes"/>
      <point x="-374" y="731"/>
      <point x="-403" y="775"/>
      <point x="-410" y="849" type="curve"/>
      <point x="-479" y="840" type="line"/>
      <point x="-469" y="740"/>
      <point x="-416" y="665"/>
    </contour>
    <contour>
      <point x="-303" y="768" type="curve" smooth="yes"/>
      <point x="-278" y="768"/>
      <point x="-259" y="783"/>
      <point x="-259" y="810" type="curve" smooth="yes"/>
      <point x="-259" y="838"/>
      <point x="-274" y="853"/>
      <point x="-304" y="853" type="curve" smooth="yes"/>
      <point x="-334" y="853"/>
      <point x="-347" y="834"/>
      <point x="-347" y="813" type="curve" smooth="yes"/>
      <point x="-347" y="786"/>
      <point x="-332" y="768"/>
    </contour>
  </outline>
</glyph>
<glyph name="anusvara_tirh" format="2">
  <unicode hex="114C0"/>
  <outline>
    <contour>
      <point x="-300" y="665" type="curve" smooth="yes"/>
      <point x="-220" y="665"/>
      <point x="-159" y="723"/>
      <point x="-159" y="802" type="curve" smooth="yes"/>
      <point x="-159" y="880"/>
      <point x="-220" y="938"/>
      <point x="-300" y="938" type="curve" smooth="yes"/>
      <point x="-380" y="938"/>
      <point x="-441" y="880"/>
      <point x="-441" y="802" type="curve" smooth="yes"/>
      <point x="-441" y="722"/>
      <point x="-380" y="665"/>
    </contour>
    <contour>
      <point x="-300" y="730" type="curve" smooth="yes"/>
      <point x="-342" y="730"/>
      <point x="-372" y="760"/>
      <point x="-372" y="802" type="curve" smooth="yes"/>
      <point x="-372" y="842"/>
      <point x="-342" y="874"/>
      <point x="-300" y="874" type="curve" smooth="yes"/>
      <point x="-258" y="874"/>
      <point x="-228" y="842"/>
      <point x="-228" y="802" type="curve" smooth="yes"/>
      <point x="-228" y="761"/>
      <point x="-258" y="730"/>
    </contour>
  </outline>
</glyph>
<glyph name="visarga_tirh" format="2">
  <advance width="458"/>
  <unicode hex="114C1"/>
  <outline>
    <contour>
      <point x="229" y="349" type="curve" smooth="yes"/>
      <point x="309" y="349"/>
      <point x="370" y="407"/>
      <point x="370" y="486" type="curve" smooth="yes"/>
      <point x="370" y="564"/>
      <point x="309" y="622"/>
      <point x="229" y="622" type="curve" smooth="yes"/>
      <point x="149" y="622"/>
      <point x="88" y="564"/>
      <point x="88" y="486" type="curve" smooth="yes"/>
      <point x="88" y="406"/>
      <point x="149" y="349"/>
    </contour>
    <contour>
      <point x="229" y="0" type="curve" smooth="yes"/>
      <point x="309" y="0"/>
      <point x="370" y="58"/>
      <point x="370" y="137" type="curve" smooth="yes"/>
      <point x="370" y="215"/>
      <point x="309" y="273"/>
      <point x="229" y="273" type="curve" smooth="yes"/>
      <point x="149" y="273"/>
      <point x="88" y="215"/>
      <point x="88" y="137" type="curve" smooth="yes"/>
      <point x="88" y="57"/>
      <point x="149" y="0"/>
    </contour>
    <contour>
      <point x="229" y="65" type="curve" smooth="yes"/>
      <point x="187" y="65"/>
      <point x="157" y="95"/>
      <point x="157" y="137" type="curve" smooth="yes"/>
      <point x="157" y="177"/>
      <point x="187" y="208"/>
      <point x="229" y="208" type="curve" smooth="yes"/>
      <point x="271" y="208"/>
      <point x="301" y="177"/>
      <point x="301" y="137" type="curve" smooth="yes"/>
      <point x="301" y="96"/>
      <point x="271" y="65"/>
    </contour>
    <contour>
      <point x="229" y="414" type="curve" smooth="yes"/>
      <point x="187" y="414"/>
      <point x="157" y="444"/>
      <point x="157" y="486" type="curve" smooth="yes"/>
      <point x="157" y="526"/>
      <point x="187" y="558"/>
      <point x="229" y="558" type="curve" smooth="yes"/>
      <point x="271" y="558"/>
      <point x="301" y="526"/>
      <point x="301" y="486" type="curve" smooth="yes"/>
      <point x="301" y="445"/>
      <point x="271" y="414"/>
    </contour>
  </outline>
</glyph>
<glyph name="virama_tirh" format="2">
  <unicode hex="114C2"/>
  <outline>
    <contour>
      <point x="-49" y="-238" type="line"/>
      <point x="-6" y="-184" type="line"/>
      <point x="-243" y="-8" type="line"/>
      <point x="-286" y="-60" type="line"/>
    </contour>
  </outline>
</glyph>
<glyph name="nukta_tirh" format="2">
  <unicode hex="114C3"/>
  <outline>
    <contour>
      <point x="-273" y="-183" type="curve" smooth="yes"/>
      <point x="-242" y="-183"/>
      <point x="-214" y="-160"/>
      <point x="-214" y="-125" type="curve" smooth="yes"/>
      <point x="-214" y="-90"/>
      <point x="-241" y="-65"/>
      <point x="-273" y="-65" type="curve" smooth="yes"/>
      <point x="-306" y="-65"/>
      <point x="-333" y="-90"/>
      <point x="-333" y="-125" type="curve" smooth="yes"/>
      <point x="-333" y="-159"/>
      <point x="-305" y="-183"/>
    </contour>
  </outline>
</glyph>
<glyph name="avagraha_tirh" format="2">
  <advance width="530"/>
  <unicode hex="114C4"/>
  <outline>
    <contour>
      <point x="494" y="-63" type="curve"/>
      <point x="540" y="-10" type="line"/>
      <point x="454" y="57"/>
      <point x="357" y="114"/>
      <point x="273" y="143" type="curve"/>
      <point x="399" y="160"/>
      <point x="464" y="225"/>
      <point x="464" y="325" type="curve" smooth="yes"/>
      <point x="464" y="401"/>
      <point x="408" y="486"/>
      <point x="276" y="498" type="curve"/>
      <point x="276" y="622" type="line"/>
      <point x="-10" y="622" type="line"/>
      <point x="-10" y="551" type="line"/>
      <point x="200" y="551" type="line"/>
      <point x="200" y="497" type="line"/>
      <point x="121" y="487"/>
      <point x="70" y="447"/>
      <point x="70" y="384" type="curve" smooth="yes"/>
      <point x="70" y="366"/>
      <point x="74" y="343"/>
      <point x="81" y="323" type="curve"/>
      <point x="154" y="338" type="line"/>
      <point x="150" y="346"/>
      <point x="147" y="359"/>
      <point x="147" y="370" type="curve" smooth="yes"/>
      <point x="147" y="408"/>
      <point x="174" y="430"/>
      <point x="247" y="430" type="curve" smooth="yes"/>
      <point x="327" y="430"/>
      <point x="385" y="391"/>
      <point x="385" y="320" type="curve" smooth="yes"/>
      <point x="385" y="263"/>
      <point x="348" y="204"/>
      <point x="207" y="204" type="curve" smooth="yes"/>
      <point x="146" y="204"/>
      <point x="107" y="209"/>
      <point x="61" y="223" type="curve"/>
      <point x="46" y="154" type="line"/>
      <point x="235" y="110"/>
      <point x="329" y="60"/>
    </contour>
  </outline>
</glyph>
<glyph name="gvang_tirh" format="2">
  <advance width="670"/>
  <unicode hex="114C5"/>
  <outline>
    <contour>
      <point x="138" y="0" type="line"/>
      <point x="212" y="0" type="line"/>
      <point x="347" y="349" type="line"/>
      <point x="323" y="349" type="line"/>
      <point x="458" y="0" type="line"/>
      <point x="532" y="0" type="line"/>
      <point x="600" y="488" type="line" smooth="yes"/>
      <point x="605" y="527"/>
      <point x="609" y="545"/>
      <point x="640" y="551" type="curve"/>
      <point x="640" y="622" type="line"/>
      <point x="551" y="616"/>
      <point x="534" y="577"/>
      <point x="524" y="499" type="curve" smooth="yes"/>
      <point x="473" y="115" type="line"/>
      <point x="490" y="117" type="line"/>
      <point x="358" y="460" type="line"/>
      <point x="312" y="460" type="line"/>
      <point x="182" y="118" type="line"/>
      <point x="198" y="116" type="line"/>
      <point x="147" y="499" type="line" smooth="yes"/>
      <point x="137" y="577"/>
      <point x="119" y="616"/>
      <point x="30" y="622" type="curve"/>
      <point x="30" y="551" type="line"/>
      <point x="61" y="545"/>
      <point x="65" y="527"/>
      <point x="70" y="488" type="curve" smooth="yes"/>
    </contour>
    <contour>
      <point x="342" y="590" type="curve" smooth="yes"/>
      <point x="373" y="590"/>
      <point x="401" y="613"/>
      <point x="401" y="648" type="curve" smooth="yes"/>
      <point x="401" y="683"/>
      <point x="374" y="708"/>
      <point x="342" y="708" type="curve" smooth="yes"/>
      <point x="309" y="708"/>
      <point x="282" y="683"/>
      <point x="282" y="648" type="curve" smooth="yes"/>
      <point x="282" y="614"/>
      <point x="310" y="590"/>
    </contour>
  </outline>
</glyph>
<glyph name="abbreviationSign_tirh" format="2">
  <advance width="458"/>
  <unicode hex="114C6"/>
  <outline>
    <contour>
      <point x="229" y="170" type="curve" smooth="yes"/>
      <point x="309" y="170"/>
      <point x="370" y="228"/>
      <point x="370" y="307" type="curve" smooth="yes"/>
      <point x="370" y="385"/>
      <point x="309" y="443"/>
      <point x="229" y="443" type="curve" smooth="yes"/>
      <point x="149" y="443"/>
      <point x="88" y="385"/>
      <point x="88" y="307" type="curve" smooth="yes"/>
      <point x="88" y="227"/>
      <point x="149" y="170"/>
    </contour>
    <contour>
      <point x="229" y="235" type="curve" smooth="yes"/>
      <point x="187" y="235"/>
      <point x="157" y="265"/>
      <point x="157" y="307" type="curve" smooth="yes"/>
      <point x="157" y="347"/>
      <point x="187" y="378"/>
      <point x="229" y="378" type="curve" smooth="yes"/>
      <point x="271" y="378"/>
      <point x="301" y="347"/>
      <point x="301" y="307" type="curve" smooth="yes"/>
      <point x="301" y="266"/>
      <point x="271" y="235"/>
    </contour>
  </outline>
</glyph>
<glyph name="om_tirh" format="2">
  <advance width="1007"/>
  <unicode hex="114C7"/>
  <outline>
    <contour>
      <point x="453" y="42" type="curve" smooth="yes"/>
      <point x="593" y="42"/>
      <point x="681" y="114"/>
      <point x="681" y="225" type="curve" smooth="yes"/>
      <point x="681" y="236"/>
      <point x="680" y="247"/>
      <point x="678" y="258" type="curve"/>
      <point x="712" y="278"/>
      <point x="733" y="299"/>
      <point x="752" y="320" type="curve" smooth="yes"/>
      <point x="777" y="347"/>
      <point x="798" y="368"/>
      <point x="840" y="368" type="curve" smooth="yes"/>
      <point x="875" y="368"/>
      <point x="902" y="348"/>
      <point x="902" y="312" type="curve" smooth="yes"/>
      <point x="902" y="278"/>
      <point x="874" y="250"/>
      <point x="803" y="239" type="curve"/>
      <point x="820" y="171" type="line"/>
      <point x="955" y="199"/>
      <point x="977" y="270"/>
      <point x="977" y="320" type="curve" smooth="yes"/>
      <point x="977" y="387"/>
      <point x="928" y="437"/>
      <point x="845" y="437" type="curve" smooth="yes"/>
      <point x="783" y="437"/>
      <point x="747" y="404"/>
      <point x="713" y="373" type="curve" smooth="yes"/>
      <point x="692" y="354"/>
      <point x="671" y="335"/>
      <point x="647" y="325" type="curve"/>
      <point x="638" y="337"/>
      <point x="626" y="348"/>
      <point x="613" y="358" type="curve"/>
      <point x="649" y="391"/>
      <point x="671" y="433"/>
      <point x="671" y="483" type="curve" smooth="yes"/>
      <point x="671" y="574"/>
      <point x="611" y="629"/>
      <point x="509" y="629" type="curve" smooth="yes"/>
      <point x="371" y="629"/>
      <point x="250" y="521"/>
      <point x="250" y="431" type="curve" smooth="yes"/>
      <point x="250" y="374"/>
      <point x="289" y="335"/>
      <point x="365" y="321" type="curve"/>
      <point x="386" y="395" type="line"/>
      <point x="339" y="402"/>
      <point x="331" y="418"/>
      <point x="331" y="439" type="curve" smooth="yes"/>
      <point x="331" y="484"/>
      <point x="413" y="558"/>
      <point x="509" y="558" type="curve" smooth="yes"/>
      <point x="562" y="558"/>
      <point x="591" y="531"/>
      <point x="591" y="482" type="curve" smooth="yes"/>
      <point x="591" y="419"/>
      <point x="538" y="383"/>
      <point x="449" y="354" type="curve"/>
      <point x="480" y="282" type="line"/>
      <point x="506" y="291"/>
      <point x="530" y="302"/>
      <point x="552" y="314" type="curve"/>
      <point x="581" y="292"/>
      <point x="601" y="264"/>
      <point x="601" y="228" type="curve" smooth="yes"/>
      <point x="601" y="152"/>
      <point x="539" y="118"/>
      <point x="455" y="118" type="curve" smooth="yes"/>
      <point x="286" y="118"/>
      <point x="184" y="242"/>
      <point x="104" y="529" type="curve"/>
      <point x="28" y="507" type="line"/>
      <point x="117" y="168"/>
      <point x="265" y="42"/>
    </contour>
    <contour>
      <point x="505" y="698" type="curve" smooth="yes"/>
      <point x="556" y="698"/>
      <point x="592" y="708"/>
      <point x="623" y="720" type="curve" smooth="yes"/>
      <point x="655" y="732"/>
      <point x="685" y="743"/>
      <point x="733" y="743" type="curve" smooth="yes"/>
      <point x="778" y="743"/>
      <point x="816" y="727"/>
      <point x="840" y="708" type="curve"/>
      <point x="881" y="757" type="line"/>
      <point x="847" y="788"/>
      <point x="792" y="810"/>
      <point x="734" y="810" type="curve" smooth="yes"/>
      <point x="692" y="810"/>
      <point x="656" y="800"/>
      <point x="621" y="788" type="curve" smooth="yes"/>
      <point x="587" y="776"/>
      <point x="548" y="765"/>
      <point x="504" y="765" type="curve" smooth="yes"/>
      <point x="462" y="765"/>
      <point x="429" y="776"/>
      <point x="396" y="787" type="curve" smooth="yes"/>
      <point x="361" y="799"/>
      <point x="325" y="810"/>
      <point x="275" y="810" type="curve" smooth="yes"/>
      <point x="217" y="810"/>
      <point x="162" y="788"/>
      <point x="128" y="757" type="curve"/>
      <point x="169" y="708" type="line"/>
      <point x="187" y="725"/>
      <point x="231" y="743"/>
      <point x="276" y="743" type="curve" smooth="yes"/>
      <point x="327" y="743"/>
      <point x="360" y="732"/>
      <point x="393" y="720" type="curve" smooth="yes"/>
      <point x="424" y="709"/>
      <point x="458" y="698"/>
    </contour>
    <contour>
      <point x="504" y="823" type="curve" smooth="yes"/>
      <point x="529" y="823"/>
      <point x="548" y="838"/>
      <point x="548" y="865" type="curve" smooth="yes"/>
      <point x="548" y="893"/>
      <point x="533" y="908"/>
      <point x="503" y="908" type="curve" smooth="yes"/>
      <point x="473" y="908"/>
      <point x="460" y="889"/>
      <point x="460" y="868" type="curve" smooth="yes"/>
      <point x="460" y="841"/>
      <point x="475" y="823"/>
    </contour>
  </outline>
</glyph>
<glyph name="zero_tirh" format="2">
  <advance width="548"/>
  <unicode hex="114D0"/>
  <outline>
    <contour>
      <point x="268" y="91" type="curve" smooth="yes"/>
      <point x="424" y="91"/>
      <point x="498" y="193"/>
      <point x="498" y="314" type="curve" smooth="yes"/>
      <point x="498" y="443"/>
      <point x="434" y="544"/>
      <point x="278" y="544" type="curve" smooth="yes"/>
      <point x="119" y="544"/>
      <point x="50" y="431"/>
      <point x="50" y="320" type="curve" smooth="yes"/>
      <point x="50" y="158"/>
      <point x="145" y="91"/>
    </contour>
    <contour>
      <point x="267" y="162" type="curve" smooth="yes"/>
      <point x="169" y="162"/>
      <point x="130" y="229"/>
      <point x="130" y="311" type="curve" smooth="yes"/>
      <point x="130" y="413"/>
      <point x="190" y="473"/>
      <point x="283" y="473" type="curve" smooth="yes"/>
      <point x="371" y="473"/>
      <point x="417" y="416"/>
      <point x="417" y="324" type="curve" smooth="yes"/>
      <point x="417" y="227"/>
      <point x="362" y="162"/>
    </contour>
  </outline>
</glyph>
<glyph name="one_tirh" format="2">
  <advance width="443"/>
  <unicode hex="114D1"/>
  <outline>
    <contour>
      <point x="195" y="0" type="curve" smooth="yes"/>
      <point x="314" y="0"/>
      <point x="403" y="70"/>
      <point x="403" y="178" type="curve" smooth="yes"/>
      <point x="403" y="277"/>
      <point x="363" y="324"/>
      <point x="249" y="401" type="curve" smooth="yes"/>
      <point x="127" y="484"/>
      <point x="114" y="500"/>
      <point x="114" y="536" type="curve" smooth="yes"/>
      <point x="114" y="558"/>
      <point x="127" y="576"/>
      <point x="146" y="596" type="curve"/>
      <point x="82" y="631" type="line"/>
      <point x="48" y="599"/>
      <point x="30" y="560"/>
      <point x="30" y="529" type="curve" smooth="yes"/>
      <point x="30" y="469"/>
      <point x="66" y="434"/>
      <point x="195" y="344" type="curve" smooth="yes"/>
      <point x="293" y="275"/>
      <point x="323" y="240"/>
      <point x="323" y="181" type="curve" smooth="yes"/>
      <point x="323" y="120"/>
      <point x="275" y="75"/>
      <point x="194" y="75" type="curve" smooth="yes"/>
      <point x="141" y="75"/>
      <point x="113" y="93"/>
      <point x="113" y="120" type="curve" smooth="yes"/>
      <point x="113" y="144"/>
      <point x="130" y="157"/>
      <point x="171" y="167" type="curve"/>
      <point x="142" y="243" type="line"/>
      <point x="61" y="220"/>
      <point x="31" y="174"/>
      <point x="31" y="122" type="curve" smooth="yes"/>
      <point x="31" y="56"/>
      <point x="81" y="0"/>
    </contour>
  </outline>
</glyph>
<glyph name="two_tirh" format="2">
  <advance width="508"/>
  <unicode hex="114D2"/>
  <outline>
    <contour>
      <point x="462" y="-26" type="curve"/>
      <point x="508" y="28" type="line"/>
      <point x="433" y="90"/>
      <point x="352" y="141"/>
      <point x="273" y="173" type="curve"/>
      <point x="388" y="189"/>
      <point x="455" y="253"/>
      <point x="455" y="333" type="curve" smooth="yes"/>
      <point x="455" y="421"/>
      <point x="409" y="469"/>
      <point x="277" y="494" type="curve" smooth="yes"/>
      <point x="183" y="512"/>
      <point x="166" y="521"/>
      <point x="166" y="549" type="curve" smooth="yes"/>
      <point x="166" y="563"/>
      <point x="172" y="579"/>
      <point x="188" y="596" type="curve"/>
      <point x="125" y="631" type="line"/>
      <point x="96" y="596"/>
      <point x="82" y="568"/>
      <point x="82" y="539" type="curve" smooth="yes"/>
      <point x="82" y="483"/>
      <point x="128" y="450"/>
      <point x="240" y="428" type="curve" smooth="yes"/>
      <point x="339" y="409"/>
      <point x="374" y="389"/>
      <point x="374" y="333" type="curve" smooth="yes"/>
      <point x="374" y="273"/>
      <point x="325" y="233"/>
      <point x="190" y="233" type="curve" smooth="yes"/>
      <point x="124" y="233"/>
      <point x="81" y="242"/>
      <point x="35" y="256" type="curve"/>
      <point x="20" y="185" type="line"/>
      <point x="208" y="143"/>
      <point x="304" y="104"/>
    </contour>
  </outline>
</glyph>
<glyph name="three_tirh" format="2">
  <advance width="503"/>
  <unicode hex="114D3"/>
  <outline>
    <contour>
      <point x="457" y="-146" type="curve"/>
      <point x="503" y="-92" type="line"/>
      <point x="422" y="-25"/>
      <point x="334" y="29"/>
      <point x="249" y="65" type="curve"/>
      <point x="245" y="56" type="line"/>
      <point x="334" y="56"/>
      <point x="422" y="102"/>
      <point x="422" y="197" type="curve" smooth="yes"/>
      <point x="422" y="245"/>
      <point x="390" y="283"/>
      <point x="332" y="304" type="curve"/>
      <point x="394" y="330"/>
      <point x="425" y="374"/>
      <point x="425" y="428" type="curve" smooth="yes"/>
      <point x="425" y="509"/>
      <point x="369" y="549"/>
      <point x="234" y="557" type="curve" smooth="yes"/>
      <point x="159" y="561"/>
      <point x="128" y="571"/>
      <point x="128" y="594" type="curve" smooth="yes"/>
      <point x="128" y="599"/>
      <point x="129" y="604"/>
      <point x="133" y="610" type="curve"/>
      <point x="60" y="631" type="line"/>
      <point x="51" y="614"/>
      <point x="47" y="602"/>
      <point x="47" y="585" type="curve" smooth="yes"/>
      <point x="47" y="536"/>
      <point x="80" y="503"/>
      <point x="215" y="493" type="curve" smooth="yes"/>
      <point x="305" y="486"/>
      <point x="344" y="465"/>
      <point x="344" y="421" type="curve" smooth="yes"/>
      <point x="344" y="366"/>
      <point x="265" y="343"/>
      <point x="176" y="343" type="curve" smooth="yes"/>
      <point x="149" y="343"/>
      <point x="125" y="345"/>
      <point x="98" y="349" type="curve"/>
      <point x="84" y="285" type="line"/>
      <point x="115" y="280"/>
      <point x="145" y="278"/>
      <point x="186" y="277" type="curve" smooth="yes"/>
      <point x="263" y="275"/>
      <point x="342" y="258"/>
      <point x="342" y="193" type="curve" smooth="yes"/>
      <point x="342" y="113"/>
      <point x="240" y="113"/>
      <point x="185" y="113" type="curve" smooth="yes"/>
      <point x="119" y="113"/>
      <point x="81" y="122"/>
      <point x="35" y="136" type="curve"/>
      <point x="20" y="65" type="line"/>
      <point x="208" y="23"/>
      <point x="299" y="-16"/>
    </contour>
  </outline>
</glyph>
<glyph name="four_tirh" format="2">
  <advance width="568"/>
  <unicode hex="114D4"/>
  <outline>
    <contour>
      <point x="284" y="0" type="curve" smooth="yes"/>
      <point x="438" y="0"/>
      <point x="518" y="57"/>
      <point x="518" y="174" type="curve" smooth="yes"/>
      <point x="518" y="254"/>
      <point x="468" y="297"/>
      <point x="381" y="331" type="curve"/>
      <point x="454" y="361"/>
      <point x="507" y="413"/>
      <point x="507" y="485" type="curve" smooth="yes"/>
      <point x="507" y="544"/>
      <point x="468" y="603"/>
      <point x="399" y="630" type="curve"/>
      <point x="362" y="561" type="line"/>
      <point x="402" y="545"/>
      <point x="426" y="521"/>
      <point x="426" y="482" type="curve" smooth="yes"/>
      <point x="426" y="419"/>
      <point x="354" y="380"/>
      <point x="285" y="363" type="curve"/>
      <point x="184" y="389"/>
      <point x="142" y="427"/>
      <point x="142" y="477" type="curve" smooth="yes"/>
      <point x="142" y="520"/>
      <point x="165" y="544"/>
      <point x="206" y="561" type="curve"/>
      <point x="169" y="630" type="line"/>
      <point x="95" y="594"/>
      <point x="62" y="542"/>
      <point x="62" y="482" type="curve" smooth="yes"/>
      <point x="62" y="413"/>
      <point x="100" y="367"/>
      <point x="186" y="326" type="curve"/>
      <point x="92" y="287"/>
      <point x="50" y="238"/>
      <point x="50" y="164" type="curve" smooth="yes"/>
      <point x="50" y="61"/>
      <point x="135" y="0"/>
    </contour>
    <contour>
      <point x="284" y="71" type="curve" smooth="yes"/>
      <point x="182" y="71"/>
      <point x="131" y="114"/>
      <point x="131" y="169" type="curve" smooth="yes"/>
      <point x="131" y="228"/>
      <point x="183" y="266"/>
      <point x="284" y="292" type="curve"/>
      <point x="360" y="276"/>
      <point x="438" y="236"/>
      <point x="438" y="173" type="curve" smooth="yes"/>
      <point x="438" y="111"/>
      <point x="391" y="71"/>
    </contour>
  </outline>
</glyph>
<glyph name="five_tirh" format="2">
  <advance width="693"/>
  <unicode hex="114D5"/>
  <outline>
    <contour>
      <point x="301" y="25" type="curve" smooth="yes"/>
      <point x="457" y="25"/>
      <point x="494" y="136"/>
      <point x="494" y="260" type="curve" smooth="yes"/>
      <point x="494" y="303"/>
      <point x="478" y="356"/>
      <point x="446" y="407" type="curve"/>
      <point x="381" y="421" type="line"/>
      <point x="358" y="349"/>
      <point x="334" y="321"/>
      <point x="301" y="321" type="curve" smooth="yes"/>
      <point x="263" y="321"/>
      <point x="251" y="367"/>
      <point x="251" y="421" type="curve" smooth="yes"/>
      <point x="251" y="482"/>
      <point x="272" y="551"/>
      <point x="358" y="551" type="curve" smooth="yes"/>
      <point x="524" y="551"/>
      <point x="589" y="311"/>
      <point x="593" y="63" type="curve"/>
      <point x="663" y="44" type="line"/>
      <point x="662" y="321"/>
      <point x="596" y="622"/>
      <point x="347" y="622" type="curve" smooth="yes"/>
      <point x="228" y="622"/>
      <point x="170" y="522"/>
      <point x="170" y="420" type="curve" smooth="yes"/>
      <point x="170" y="330"/>
      <point x="206" y="250"/>
      <point x="299" y="250" type="curve" smooth="yes"/>
      <point x="334" y="250"/>
      <point x="376" y="271"/>
      <point x="408" y="317" type="curve"/>
      <point x="413" y="301"/>
      <point x="418" y="283"/>
      <point x="418" y="261" type="curve" smooth="yes"/>
      <point x="418" y="169"/>
      <point x="392" y="101"/>
      <point x="301" y="101" type="curve" smooth="yes"/>
      <point x="167" y="101"/>
      <point x="113" y="308"/>
      <point x="93" y="466" type="curve"/>
      <point x="20" y="459" type="line"/>
      <point x="57" y="226"/>
      <point x="110" y="25"/>
    </contour>
  </outline>
</glyph>
<glyph name="six_tirh" format="2">
  <advance width="578"/>
  <unicode hex="114D6"/>
  <outline>
    <contour>
      <point x="336" y="39" type="curve" smooth="yes"/>
      <point x="482" y="39"/>
      <point x="548" y="137"/>
      <point x="548" y="268" type="curve" smooth="yes"/>
      <point x="548" y="328"/>
      <point x="525" y="402"/>
      <point x="488" y="452" type="curve"/>
      <point x="432" y="438" type="line"/>
      <point x="399" y="348"/>
      <point x="369" y="328"/>
      <point x="337" y="328" type="curve" smooth="yes"/>
      <point x="329" y="328"/>
      <point x="319" y="331"/>
      <point x="310" y="340" type="curve" smooth="yes"/>
      <point x="303" y="347"/>
      <point x="301" y="358"/>
      <point x="301" y="387" type="curve" smooth="yes"/>
      <point x="301" y="471" type="line" smooth="yes"/>
      <point x="301" y="554"/>
      <point x="270" y="589"/>
      <point x="164" y="593" type="curve"/>
      <point x="155" y="517" type="line"/>
      <point x="214" y="515"/>
      <point x="224" y="500"/>
      <point x="224" y="451" type="curve" smooth="yes"/>
      <point x="224" y="400" type="line" smooth="yes"/>
      <point x="224" y="328"/>
      <point x="239" y="301"/>
      <point x="259" y="282" type="curve" smooth="yes"/>
      <point x="277" y="265"/>
      <point x="301" y="257"/>
      <point x="329" y="257" type="curve" smooth="yes"/>
      <point x="383" y="257"/>
      <point x="426" y="288"/>
      <point x="458" y="348" type="curve"/>
      <point x="466" y="327"/>
      <point x="472" y="301"/>
      <point x="472" y="271" type="curve" smooth="yes"/>
      <point x="472" y="167"/>
      <point x="417" y="114"/>
      <point x="331" y="114" type="curve" smooth="yes"/>
      <point x="215" y="114"/>
      <point x="141" y="204"/>
      <point x="81" y="466" type="curve"/>
      <point x="10" y="452" type="line"/>
      <point x="85" y="129"/>
      <point x="197" y="39"/>
    </contour>
  </outline>
</glyph>
<glyph name="seven_tirh" format="2">
  <advance width="488"/>
  <unicode hex="114D7"/>
  <outline>
    <contour>
      <point x="480" y="0" type="curve"/>
      <point x="488" y="77" type="line"/>
      <point x="429" y="79"/>
      <point x="419" y="93"/>
      <point x="419" y="143" type="curve" smooth="yes"/>
      <point x="419" y="455" type="line" smooth="yes"/>
      <point x="419" y="595"/>
      <point x="340" y="622"/>
      <point x="257" y="622" type="curve" smooth="yes"/>
      <point x="143" y="622"/>
      <point x="30" y="530"/>
      <point x="30" y="411" type="curve" smooth="yes"/>
      <point x="30" y="314"/>
      <point x="91" y="253"/>
      <point x="210" y="248" type="curve"/>
      <point x="210" y="322" type="line"/>
      <point x="155" y="325"/>
      <point x="111" y="347"/>
      <point x="111" y="406" type="curve" smooth="yes"/>
      <point x="111" y="489"/>
      <point x="188" y="551"/>
      <point x="257" y="551" type="curve" smooth="yes"/>
      <point x="323" y="551"/>
      <point x="342" y="523"/>
      <point x="342" y="439" type="curve" smooth="yes"/>
      <point x="342" y="122" type="line" smooth="yes"/>
      <point x="342" y="39"/>
      <point x="373" y="4"/>
    </contour>
  </outline>
</glyph>
<glyph name="eight_tirh" format="2">
  <advance width="587"/>
  <unicode hex="114D8"/>
  <outline>
    <contour>
      <point x="247" y="0" type="curve" smooth="yes"/>
      <point x="344" y="0"/>
      <point x="361" y="97"/>
      <point x="361" y="164" type="curve" smooth="yes"/>
      <point x="361" y="277" type="line"/>
      <point x="425" y="277" type="line" smooth="yes"/>
      <point x="512" y="277"/>
      <point x="558" y="302"/>
      <point x="577" y="363" type="curve"/>
      <point x="514" y="391" type="line"/>
      <point x="495" y="354"/>
      <point x="456" y="348"/>
      <point x="417" y="348" type="curve" smooth="yes"/>
      <point x="361" y="348" type="line"/>
      <point x="361" y="501" type="line" smooth="yes"/>
      <point x="361" y="584"/>
      <point x="332" y="620"/>
      <point x="225" y="624" type="curve"/>
      <point x="216" y="547" type="line"/>
      <point x="275" y="545"/>
      <point x="285" y="530"/>
      <point x="285" y="481" type="curve" smooth="yes"/>
      <point x="285" y="348" type="line"/>
      <point x="110" y="348" type="line" smooth="yes"/>
      <point x="51" y="348"/>
      <point x="30" y="323"/>
      <point x="30" y="275" type="curve" smooth="yes"/>
      <point x="30" y="107"/>
      <point x="153" y="0"/>
    </contour>
    <contour>
      <point x="247" y="71" type="curve" smooth="yes"/>
      <point x="177" y="71"/>
      <point x="110" y="179"/>
      <point x="110" y="269" type="curve" smooth="yes"/>
      <point x="110" y="277" type="line"/>
      <point x="285" y="277" type="line"/>
      <point x="285" y="168" type="line" smooth="yes"/>
      <point x="285" y="115"/>
      <point x="276" y="71"/>
    </contour>
  </outline>
</glyph>
<glyph name="nine_tirh" format="2">
  <advance width="501"/>
  <unicode hex="114D9"/>
  <outline>
    <contour>
      <point x="166" y="0" type="line"/>
      <point x="180" y="0" type="line" smooth="yes"/>
      <point x="325" y="0"/>
      <point x="471" y="71"/>
      <point x="471" y="216" type="curve" smooth="yes"/>
      <point x="471" y="272"/>
      <point x="451" y="327"/>
      <point x="432" y="377" type="curve" smooth="yes"/>
      <point x="416" y="420"/>
      <point x="402" y="460"/>
      <point x="402" y="495" type="curve" smooth="yes"/>
      <point x="402" y="535"/>
      <point x="427" y="553"/>
      <point x="466" y="562" type="curve"/>
      <point x="443" y="631" type="line"/>
      <point x="362" y="619"/>
      <point x="322" y="567"/>
      <point x="322" y="510" type="curve" smooth="yes"/>
      <point x="322" y="455"/>
      <point x="340" y="402"/>
      <point x="359" y="350" type="curve" smooth="yes"/>
      <point x="376" y="303"/>
      <point x="391" y="257"/>
      <point x="391" y="214" type="curve" smooth="yes"/>
      <point x="391" y="157"/>
      <point x="353" y="105"/>
      <point x="290" y="94" type="curve"/>
      <point x="307" y="118"/>
      <point x="316" y="145"/>
      <point x="316" y="181" type="curve" smooth="yes"/>
      <point x="316" y="259"/>
      <point x="249" y="315"/>
      <point x="157" y="315" type="curve" smooth="yes"/>
      <point x="61" y="315"/>
      <point x="10" y="257"/>
      <point x="10" y="193" type="curve" smooth="yes"/>
      <point x="10" y="168"/>
      <point x="16" y="145"/>
      <point x="27" y="121" type="curve"/>
      <point x="103" y="138" type="line"/>
      <point x="95" y="151"/>
      <point x="91" y="169"/>
      <point x="91" y="182" type="curve" smooth="yes"/>
      <point x="91" y="210"/>
      <point x="110" y="245"/>
      <point x="158" y="245" type="curve" smooth="yes"/>
      <point x="212" y="245"/>
      <point x="240" y="214"/>
      <point x="240" y="169" type="curve" smooth="yes"/>
      <point x="240" y="120"/>
      <point x="204" y="89"/>
      <point x="144" y="68" type="curve"/>
    </contour>
  </outline>
</glyph>
<glyph name="Ba.part.alt" format="2">
  <outline>
    <contour>
      <point x="-176" y="662" type="curve" smooth="yes"/>
      <point x="-92" y="662"/>
      <point x="-47" y="708"/>
      <point x="-30" y="775" type="curve"/>
      <point x="-93" y="783" type="line"/>
      <point x="-107" y="741"/>
      <point x="-134" y="719"/>
      <point x="-180" y="719" type="curve" smooth="yes"/>
      <point x="-229" y="719"/>
      <point x="-255" y="743"/>
      <point x="-266" y="785" type="curve"/>
      <point x="-327" y="776" type="line"/>
      <point x="-309" y="709"/>
      <point x="-262" y="662"/>
    </contour>
  </outline>
</glyph>
<glyph name="Ba.part" format="2">
  <outline>
    <contour>
      <point x="-298" y="662" type="curve" smooth="yes"/>
      <point x="-183" y="662"/>
      <point x="-134" y="737"/>
      <point x="-125" y="838" type="curve"/>
      <point x="-195" y="847" type="line"/>
      <point x="-202" y="769"/>
      <point x="-235" y="728"/>
      <point x="-302" y="728" type="curve" smooth="yes"/>
      <point x="-373" y="728"/>
      <point x="-401" y="772"/>
      <point x="-408" y="846" type="curve"/>
      <point x="-477" y="837" type="line"/>
      <point x="-467" y="737"/>
      <point x="-414" y="662"/>
    </contour>
  </outline>
</glyph>
<glyph name="BaDa.part" format="2">
  <advance width="567"/>
  <outline>
    <contour>
      <point x="481" y="-44" type="curve"/>
      <point x="553" y="-30" type="line"/>
      <point x="542" y="9"/>
      <point x="535" y="53"/>
      <point x="535" y="98" type="curve" smooth="yes"/>
      <point x="535" y="143"/>
      <point x="542" y="188"/>
      <point x="559" y="233" type="curve"/>
      <point x="506" y="272" type="line"/>
      <point x="441" y="243"/>
      <point x="399" y="208"/>
      <point x="360" y="163" type="curve"/>
      <point x="360" y="240" type="line"/>
      <point x="425" y="270"/>
      <point x="467" y="324"/>
      <point x="467" y="392" type="curve" smooth="yes"/>
      <point x="467" y="427"/>
      <point x="448" y="481"/>
      <point x="389" y="481" type="curve" smooth="yes"/>
      <point x="341" y="481" type="line" smooth="yes"/>
      <point x="253" y="481"/>
      <point x="219" y="504"/>
      <point x="186" y="543" type="curve"/>
      <point x="186" y="551" type="line"/>
      <point x="577" y="551" type="line"/>
      <point x="577" y="622" type="line"/>
      <point x="-10" y="622" type="line"/>
      <point x="-10" y="551" type="line"/>
      <point x="109" y="551" type="line"/>
      <point x="109" y="365" type="line" smooth="yes"/>
      <point x="109" y="267"/>
      <point x="143" y="217"/>
      <point x="244" y="217" type="curve" smooth="yes"/>
      <point x="257" y="217"/>
      <point x="269" y="217"/>
      <point x="282" y="219" type="curve"/>
      <point x="282" y="87" type="line"/>
      <point x="348" y="54" type="line"/>
      <point x="378" y="98"/>
      <point x="420" y="156"/>
      <point x="475" y="184" type="curve"/>
      <point x="466" y="156"/>
      <point x="462" y="125"/>
      <point x="462" y="93" type="curve" smooth="yes"/>
      <point x="462" y="44"/>
      <point x="471" y="-5"/>
    </contour>
    <contour>
      <point x="142" y="68" type="curve" smooth="yes"/>
      <point x="173" y="68"/>
      <point x="201" y="91"/>
      <point x="201" y="126" type="curve" smooth="yes"/>
      <point x="201" y="161"/>
      <point x="174" y="186"/>
      <point x="142" y="186" type="curve" smooth="yes"/>
      <point x="109" y="186"/>
      <point x="82" y="161"/>
      <point x="82" y="126" type="curve" smooth="yes"/>
      <point x="82" y="92"/>
      <point x="110" y="68"/>
    </contour>
    <contour>
      <point x="250" y="286" type="curve" smooth="yes"/>
      <point x="228" y="286"/>
      <point x="212" y="290"/>
      <point x="201" y="301" type="curve" smooth="yes"/>
      <point x="191" y="311"/>
      <point x="186" y="324"/>
      <point x="186" y="359" type="curve" smooth="yes"/>
      <point x="186" y="420" type="line" smooth="yes"/>
      <point x="186" y="438"/>
      <point x="185" y="454"/>
      <point x="184" y="468" type="curve"/>
      <point x="220" y="434"/>
      <point x="270" y="413"/>
      <point x="333" y="413" type="curve" smooth="yes"/>
      <point x="340" y="413" type="line" smooth="yes"/>
      <point x="367" y="413"/>
      <point x="391" y="409"/>
      <point x="391" y="384" type="curve" smooth="yes"/>
      <point x="391" y="342"/>
      <point x="335" y="286"/>
    </contour>
  </outline>
</glyph>
<glyph name="BaDha.part" format="2">
  <advance width="537"/>
  <outline>
    <contour>
      <point x="347" y="-39" type="curve"/>
      <point x="424" y="-39" type="line"/>
      <point x="424" y="285" type="line"/>
      <point x="451" y="314"/>
      <point x="467" y="350"/>
      <point x="467" y="392" type="curve" smooth="yes"/>
      <point x="467" y="427"/>
      <point x="448" y="481"/>
      <point x="389" y="481" type="curve" smooth="yes"/>
      <point x="341" y="481" type="line" smooth="yes"/>
      <point x="253" y="481"/>
      <point x="219" y="504"/>
      <point x="186" y="543" type="curve"/>
      <point x="186" y="551" type="line"/>
      <point x="547" y="551" type="line"/>
      <point x="547" y="622" type="line"/>
      <point x="-10" y="622" type="line"/>
      <point x="-10" y="551" type="line"/>
      <point x="109" y="551" type="line"/>
      <point x="109" y="373" type="line" smooth="yes"/>
      <point x="109" y="275"/>
      <point x="143" y="217"/>
      <point x="244" y="217" type="curve" smooth="yes"/>
      <point x="281" y="217"/>
      <point x="316" y="223"/>
      <point x="347" y="235" type="curve"/>
      <point x="347" y="205" type="line"/>
      <point x="272" y="190"/>
      <point x="194" y="160"/>
      <point x="126" y="124" type="curve"/>
      <point x="126" y="75" type="line"/>
      <point x="194" y="46"/>
      <point x="271" y="4"/>
    </contour>
    <contour>
      <point x="352" y="23" type="curve"/>
      <point x="314" y="52"/>
      <point x="260" y="77"/>
      <point x="202" y="101" type="curve"/>
      <point x="253" y="125"/>
      <point x="302" y="139"/>
      <point x="347" y="145" type="curve"/>
      <point x="347" y="90" type="line" smooth="yes"/>
      <point x="347" y="70"/>
      <point x="349" y="43"/>
    </contour>
    <contour>
      <point x="250" y="286" type="curve" smooth="yes"/>
      <point x="228" y="286"/>
      <point x="212" y="290"/>
      <point x="201" y="301" type="curve" smooth="yes"/>
      <point x="191" y="311"/>
      <point x="186" y="324"/>
      <point x="186" y="359" type="curve" smooth="yes"/>
      <point x="186" y="420" type="line" smooth="yes"/>
      <point x="186" y="438"/>
      <point x="185" y="454"/>
      <point x="184" y="468" type="curve"/>
      <point x="220" y="434"/>
      <point x="270" y="413"/>
      <point x="333" y="413" type="curve" smooth="yes"/>
      <point x="340" y="413" type="line" smooth="yes"/>
      <point x="367" y="413"/>
      <point x="391" y="409"/>
      <point x="391" y="384" type="curve" smooth="yes"/>
      <point x="391" y="342"/>
      <point x="335" y="286"/>
    </contour>
  </outline>
</glyph>
<glyph name="BhaYa" format="2">
  <advance width="634"/>
  <outline>
    <contour>
      <point x="307" y="0" type="curve" smooth="yes"/>
      <point x="470" y="0"/>
      <point x="560" y="105"/>
      <point x="560" y="247" type="curve" smooth="yes"/>
      <point x="560" y="551" type="line"/>
      <point x="643" y="551" type="line"/>
      <point x="643" y="622" type="line"/>
      <point x="-10" y="622" type="line"/>
      <point x="-10" y="551" type="line"/>
      <point x="483" y="551" type="line"/>
      <point x="483" y="244" type="line" smooth="yes"/>
      <point x="483" y="155"/>
      <point x="446" y="74"/>
      <point x="306" y="74" type="curve" smooth="yes"/>
      <point x="249" y="74"/>
      <point x="206" y="104"/>
      <point x="197" y="145" type="curve"/>
      <point x="310" y="146"/>
      <point x="427" y="196"/>
      <point x="427" y="355" type="curve" smooth="yes"/>
      <point x="427" y="452"/>
      <point x="339" y="514"/>
      <point x="295" y="515" type="curve"/>
      <point x="286" y="504"/>
      <point x="278" y="490"/>
      <point x="268" y="471" type="curve" smooth="yes"/>
      <point x="254" y="445"/>
      <point x="239" y="426"/>
      <point x="217" y="426" type="curve" smooth="yes"/>
      <point x="200" y="426"/>
      <point x="188" y="437"/>
      <point x="174" y="455" type="curve" smooth="yes"/>
      <point x="160" y="472"/>
      <point x="133" y="499"/>
      <point x="94" y="499" type="curve" smooth="yes"/>
      <point x="67" y="499"/>
      <point x="43" y="488"/>
      <point x="30" y="474" type="curve"/>
      <point x="43" y="407" type="line"/>
      <point x="58" y="421"/>
      <point x="72" y="427"/>
      <point x="90" y="427" type="curve" smooth="yes"/>
      <point x="116" y="427"/>
      <point x="131" y="411"/>
      <point x="145" y="393" type="curve" smooth="yes"/>
      <point x="161" y="373"/>
      <point x="178" y="355"/>
      <point x="211" y="355" type="curve" smooth="yes"/>
      <point x="252" y="355"/>
      <point x="285" y="390"/>
      <point x="312" y="432" type="curve"/>
      <point x="332" y="428"/>
      <point x="348" y="405"/>
      <point x="348" y="352" type="curve" smooth="yes"/>
      <point x="348" y="254"/>
      <point x="275" y="209"/>
      <point x="194" y="209" type="curve" smooth="yes"/>
      <point x="174" y="209"/>
      <point x="154" y="212"/>
      <point x="135" y="217" type="curve"/>
      <point x="120" y="158" type="line"/>
      <point x="129" y="53"/>
      <point x="230" y="0"/>
    </contour>
  </outline>
</glyph>
<glyph name="Bhr" format="2">
  <advance width="590"/>
  <outline>
    <contour>
      <point x="309" y="-16" type="curve" smooth="yes"/>
      <point x="446" y="-16"/>
      <point x="538" y="51"/>
      <point x="559" y="170" type="curve"/>
      <point x="484" y="191" type="line"/>
      <point x="473" y="94"/>
      <point x="403" y="58"/>
      <point x="305" y="58" type="curve" smooth="yes"/>
      <point x="227" y="58"/>
      <point x="157" y="96"/>
      <point x="136" y="190" type="curve"/>
      <point x="179" y="178"/>
      <point x="223" y="175"/>
      <point x="269" y="175" type="curve" smooth="yes"/>
      <point x="383" y="175"/>
      <point x="502" y="223"/>
      <point x="502" y="373" type="curve" smooth="yes"/>
      <point x="502" y="470"/>
      <point x="419" y="513"/>
      <point x="360" y="514" type="curve"/>
      <point x="352" y="502"/>
      <point x="342" y="488"/>
      <point x="332" y="475" type="curve" smooth="yes"/>
      <point x="312" y="449"/>
      <point x="294" y="426"/>
      <point x="264" y="426" type="curve" smooth="yes"/>
      <point x="245" y="426"/>
      <point x="234" y="435"/>
      <point x="216" y="454" type="curve" smooth="yes"/>
      <point x="198" y="473"/>
      <point x="166" y="498"/>
      <point x="122" y="498" type="curve" smooth="yes"/>
      <point x="91" y="498"/>
      <point x="60" y="487"/>
      <point x="44" y="473" type="curve"/>
      <point x="60" y="407" type="line"/>
      <point x="78" y="421"/>
      <point x="94" y="427"/>
      <point x="116" y="427" type="curve" smooth="yes"/>
      <point x="147" y="427"/>
      <point x="165" y="411"/>
      <point x="182" y="393" type="curve" smooth="yes"/>
      <point x="200" y="374"/>
      <point x="222" y="355"/>
      <point x="261" y="355" type="curve" smooth="yes"/>
      <point x="316" y="355"/>
      <point x="365" y="406"/>
      <point x="382" y="432" type="curve"/>
      <point x="406" y="428"/>
      <point x="423" y="405"/>
      <point x="423" y="365" type="curve" smooth="yes"/>
      <point x="423" y="288"/>
      <point x="343" y="248"/>
      <point x="265" y="248" type="curve" smooth="yes"/>
      <point x="198" y="248"/>
      <point x="136" y="263"/>
      <point x="86" y="294" type="curve"/>
      <point x="50" y="230" type="line"/>
      <point x="80" y="28"/>
      <point x="189" y="-16"/>
    </contour>
    <contour>
      <point x="-10" y="551" type="line"/>
      <point x="600" y="551" type="line"/>
      <point x="600" y="622" type="line"/>
      <point x="-10" y="622" type="line"/>
    </contour>
  </outline>
</glyph>
<glyph name="Bhra" format="2">
  <advance width="666"/>
  <outline>
    <contour>
      <point x="-10" y="622" type="line"/>
      <point x="-10" y="551" type="line"/>
      <point x="676" y="551" type="line"/>
      <point x="676" y="622" type="line"/>
    </contour>
    <contour>
      <point x="460" y="497" type="curve"/>
      <point x="440" y="482"/>
      <point x="427" y="448"/>
      <point x="414" y="413" type="curve" smooth="yes"/>
      <point x="400" y="375"/>
      <point x="385" y="339"/>
      <point x="364" y="339" type="curve" smooth="yes"/>
      <point x="349" y="339"/>
      <point x="342" y="359"/>
      <point x="335" y="384" type="curve" smooth="yes"/>
      <point x="323" y="425"/>
      <point x="304" y="481"/>
      <point x="236" y="481" type="curve" smooth="yes"/>
      <point x="212" y="481"/>
      <point x="184" y="470"/>
      <point x="168" y="456" type="curve"/>
      <point x="184" y="390" type="line"/>
      <point x="202" y="404"/>
      <point x="218" y="410"/>
      <point x="233" y="410" type="curve" smooth="yes"/>
      <point x="258" y="410"/>
      <point x="266" y="385"/>
      <point x="274" y="356" type="curve" smooth="yes"/>
      <point x="285" y="316"/>
      <point x="301" y="268"/>
      <point x="365" y="268" type="curve" smooth="yes"/>
      <point x="434" y="268"/>
      <point x="462" y="349"/>
      <point x="477" y="390" type="curve" smooth="yes"/>
      <point x="481" y="401"/>
      <point x="484" y="409"/>
      <point x="487" y="412" type="curve"/>
      <point x="505" y="412"/>
      <point x="542" y="352"/>
      <point x="542" y="283" type="curve" smooth="yes"/>
      <point x="542" y="107" type="line"/>
      <point x="508" y="129"/>
      <point x="477" y="142"/>
      <point x="432" y="142" type="curve" smooth="yes"/>
      <point x="406" y="142"/>
      <point x="378" y="138"/>
      <point x="348" y="133" type="curve" smooth="yes"/>
      <point x="319" y="128"/>
      <point x="290" y="125"/>
      <point x="265" y="125" type="curve" smooth="yes"/>
      <point x="212" y="125"/>
      <point x="170" y="138"/>
      <point x="138" y="168" type="curve"/>
      <point x="71" y="119" type="line"/>
      <point x="120" y="63"/>
      <point x="198" y="51"/>
      <point x="263" y="51" type="curve" smooth="yes"/>
      <point x="297" y="51"/>
      <point x="329" y="54"/>
      <point x="362" y="59" type="curve" smooth="yes"/>
      <point x="394" y="64"/>
      <point x="425" y="67"/>
      <point x="447" y="67" type="curve" smooth="yes"/>
      <point x="512" y="67"/>
      <point x="528" y="41"/>
      <point x="564" y="-18" type="curve"/>
      <point x="619" y="-18" type="line"/>
      <point x="619" y="289" type="line" smooth="yes"/>
      <point x="619" y="400"/>
      <point x="536" y="497"/>
    </contour>
  </outline>
</glyph>
<glyph name="Bhu" format="2">
  <advance width="701"/>
  <outline>
    <contour>
      <point x="411" y="20" type="curve" smooth="yes"/>
      <point x="583" y="20"/>
      <point x="642" y="112"/>
      <point x="642" y="180" type="curve" smooth="yes"/>
      <point x="642" y="227"/>
      <point x="623" y="259"/>
      <point x="593" y="280" type="curve"/>
      <point x="616" y="304"/>
      <point x="632" y="338"/>
      <point x="632" y="383" type="curve" smooth="yes"/>
      <point x="632" y="470"/>
      <point x="545" y="513"/>
      <point x="490" y="514" type="curve"/>
      <point x="482" y="502"/>
      <point x="472" y="488"/>
      <point x="462" y="475" type="curve" smooth="yes"/>
      <point x="442" y="449"/>
      <point x="424" y="426"/>
      <point x="394" y="426" type="curve" smooth="yes"/>
      <point x="375" y="426"/>
      <point x="364" y="435"/>
      <point x="346" y="454" type="curve" smooth="yes"/>
      <point x="328" y="473"/>
      <point x="296" y="498"/>
      <point x="252" y="498" type="curve" smooth="yes"/>
      <point x="221" y="498"/>
      <point x="190" y="487"/>
      <point x="174" y="473" type="curve"/>
      <point x="190" y="407" type="line"/>
      <point x="208" y="421"/>
      <point x="224" y="427"/>
      <point x="246" y="427" type="curve" smooth="yes"/>
      <point x="277" y="427"/>
      <point x="295" y="411"/>
      <point x="312" y="393" type="curve" smooth="yes"/>
      <point x="330" y="374"/>
      <point x="352" y="355"/>
      <point x="391" y="355" type="curve" smooth="yes"/>
      <point x="446" y="355"/>
      <point x="495" y="406"/>
      <point x="512" y="432" type="curve"/>
      <point x="536" y="428"/>
      <point x="553" y="405"/>
      <point x="553" y="371" type="curve" smooth="yes"/>
      <point x="553" y="335"/>
      <point x="526" y="307"/>
      <point x="454" y="291" type="curve"/>
      <point x="468" y="224" type="line"/>
      <point x="489" y="227"/>
      <point x="511" y="232"/>
      <point x="532" y="241" type="curve"/>
      <point x="553" y="230"/>
      <point x="562" y="214"/>
      <point x="562" y="193" type="curve" smooth="yes"/>
      <point x="562" y="140"/>
      <point x="520" y="96"/>
      <point x="413" y="96" type="curve" smooth="yes"/>
      <point x="244" y="96"/>
      <point x="164" y="243"/>
      <point x="100" y="483" type="curve"/>
      <point x="29" y="465" type="line"/>
      <point x="118" y="126"/>
      <point x="247" y="20"/>
    </contour>
    <contour>
      <point x="-10" y="551" type="line"/>
      <point x="711" y="551" type="line"/>
      <point x="711" y="622" type="line"/>
      <point x="-10" y="622" type="line"/>
    </contour>
  </outline>
</glyph>
<glyph name="Bhuu" format="2">
  <advance width="701"/>
  <outline>
    <contour>
      <point x="-10" y="551" type="line"/>
      <point x="711" y="551" type="line"/>
      <point x="711" y="622" type="line"/>
      <point x="-10" y="622" type="line"/>
    </contour>
    <contour>
      <point x="553" y="374" type="curve" smooth="yes"/>
      <point x="553" y="469"/>
      <point x="465" y="513"/>
      <point x="410" y="514" type="curve"/>
      <point x="402" y="502"/>
      <point x="392" y="488"/>
      <point x="382" y="475" type="curve" smooth="yes"/>
      <point x="362" y="449"/>
      <point x="344" y="426"/>
      <point x="314" y="426" type="curve" smooth="yes"/>
      <point x="295" y="426"/>
      <point x="284" y="435"/>
      <point x="266" y="454" type="curve" smooth="yes"/>
      <point x="248" y="473"/>
      <point x="216" y="498"/>
      <point x="172" y="498" type="curve" smooth="yes"/>
      <point x="141" y="498"/>
      <point x="110" y="487"/>
      <point x="94" y="473" type="curve"/>
      <point x="110" y="407" type="line"/>
      <point x="128" y="421"/>
      <point x="144" y="427"/>
      <point x="166" y="427" type="curve" smooth="yes"/>
      <point x="197" y="427"/>
      <point x="215" y="411"/>
      <point x="232" y="393" type="curve" smooth="yes"/>
      <point x="250" y="374"/>
      <point x="272" y="355"/>
      <point x="311" y="355" type="curve" smooth="yes"/>
      <point x="366" y="355"/>
      <point x="415" y="406"/>
      <point x="432" y="432" type="curve"/>
      <point x="456" y="428"/>
      <point x="473" y="405"/>
      <point x="473" y="371" type="curve" smooth="yes"/>
      <point x="473" y="286"/>
      <point x="373" y="233"/>
      <point x="292" y="231" type="curve" smooth="yes"/>
      <point x="209" y="229"/>
      <point x="157" y="189"/>
      <point x="157" y="128" type="curve" smooth="yes"/>
      <point x="157" y="68"/>
      <point x="200" y="26"/>
      <point x="288" y="26" type="curve" smooth="yes"/>
      <point x="321" y="26"/>
      <point x="407" y="27"/>
      <point x="430" y="30" type="curve" smooth="yes"/>
      <point x="448" y="32"/>
      <point x="465" y="33"/>
      <point x="481" y="33" type="curve" smooth="yes"/>
      <point x="525" y="33"/>
      <point x="568" y="24"/>
      <point x="636" y="-24" type="curve"/>
      <point x="678" y="29" type="line"/>
      <point x="605" y="86"/>
      <point x="538" y="95"/>
      <point x="481" y="95" type="curve" smooth="yes"/>
      <point x="454" y="95"/>
      <point x="430" y="93"/>
      <point x="407" y="91" type="curve" smooth="yes"/>
      <point x="386" y="89"/>
      <point x="306" y="88"/>
      <point x="286" y="88" type="curve" smooth="yes"/>
      <point x="254" y="88"/>
      <point x="230" y="101"/>
      <point x="230" y="127" type="curve" smooth="yes"/>
      <point x="230" y="153"/>
      <point x="254" y="167"/>
      <point x="300" y="167" type="curve" smooth="yes"/>
      <point x="403" y="167"/>
      <point x="553" y="229"/>
    </contour>
  </outline>
</glyph>
<glyph name="Br.part" format="2">
  <advance width="537"/>
  <outline>
    <contour>
      <point x="370" y="-40" type="curve" smooth="yes"/>
      <point x="408" y="-40"/>
      <point x="441" y="-33"/>
      <point x="467" y="-23" type="curve"/>
      <point x="467" y="45" type="line"/>
      <point x="443" y="33"/>
      <point x="409" y="25"/>
      <point x="371" y="25" type="curve" smooth="yes"/>
      <point x="335" y="25"/>
      <point x="311" y="41"/>
      <point x="311" y="77" type="curve" smooth="yes"/>
      <point x="311" y="102"/>
      <point x="325" y="133"/>
      <point x="368" y="133" type="curve" smooth="yes"/>
      <point x="382" y="133"/>
      <point x="397" y="129"/>
      <point x="401" y="127" type="curve"/>
      <point x="436" y="174" type="line"/>
      <point x="396" y="261" type="line"/>
      <point x="440" y="292"/>
      <point x="467" y="338"/>
      <point x="467" y="392" type="curve" smooth="yes"/>
      <point x="467" y="448"/>
      <point x="432" y="481"/>
      <point x="369" y="481" type="curve" smooth="yes"/>
      <point x="331" y="481" type="line" smooth="yes"/>
      <point x="253" y="481"/>
      <point x="219" y="504"/>
      <point x="186" y="543" type="curve"/>
      <point x="186" y="551" type="line"/>
      <point x="547" y="551" type="line"/>
      <point x="547" y="622" type="line"/>
      <point x="-10" y="622" type="line"/>
      <point x="-10" y="551" type="line"/>
      <point x="109" y="551" type="line"/>
      <point x="109" y="369" type="line" smooth="yes"/>
      <point x="109" y="258"/>
      <point x="155" y="217"/>
      <point x="234" y="217" type="curve" smooth="yes"/>
      <point x="275" y="217"/>
      <point x="305" y="221"/>
      <point x="332" y="230" type="curve"/>
      <point x="348" y="196" type="line"/>
      <point x="281" y="186"/>
      <point x="242" y="137"/>
      <point x="242" y="73" type="curve" smooth="yes"/>
      <point x="242" y="-4"/>
      <point x="295" y="-40"/>
    </contour>
    <contour>
      <point x="142" y="68" type="curve" smooth="yes"/>
      <point x="173" y="68"/>
      <point x="201" y="91"/>
      <point x="201" y="126" type="curve" smooth="yes"/>
      <point x="201" y="161"/>
      <point x="174" y="186"/>
      <point x="142" y="186" type="curve" smooth="yes"/>
      <point x="109" y="186"/>
      <point x="82" y="161"/>
      <point x="82" y="126" type="curve" smooth="yes"/>
      <point x="82" y="92"/>
      <point x="110" y="68"/>
    </contour>
    <contour>
      <point x="250" y="286" type="curve" smooth="yes"/>
      <point x="228" y="286"/>
      <point x="212" y="290"/>
      <point x="201" y="301" type="curve" smooth="yes"/>
      <point x="191" y="311"/>
      <point x="186" y="324"/>
      <point x="186" y="359" type="curve" smooth="yes"/>
      <point x="186" y="420" type="line" smooth="yes"/>
      <point x="186" y="438"/>
      <point x="185" y="454"/>
      <point x="184" y="468" type="curve"/>
      <point x="211" y="434"/>
      <point x="260" y="413"/>
      <point x="323" y="413" type="curve" smooth="yes"/>
      <point x="340" y="413" type="line" smooth="yes"/>
      <point x="367" y="413"/>
      <point x="391" y="409"/>
      <point x="391" y="384" type="curve" smooth="yes"/>
      <point x="391" y="342"/>
      <point x="335" y="286"/>
    </contour>
  </outline>
</glyph>
<glyph name="CaCa" format="2">
  <advance width="567"/>
  <outline>
    <contour>
      <point x="238" y="24" type="curve" smooth="yes"/>
      <point x="380" y="24"/>
      <point x="517" y="160"/>
      <point x="517" y="306" type="curve" smooth="yes"/>
      <point x="517" y="380"/>
      <point x="485" y="423"/>
      <point x="377" y="423" type="curve" smooth="yes"/>
      <point x="361" y="423" type="line" smooth="yes"/>
      <point x="253" y="423"/>
      <point x="213" y="462"/>
      <point x="172" y="534" type="curve"/>
      <point x="172" y="551" type="line"/>
      <point x="578" y="551" type="line"/>
      <point x="578" y="622" type="line"/>
      <point x="-10" y="622" type="line"/>
      <point x="-10" y="551" type="line"/>
      <point x="95" y="551" type="line"/>
      <point x="95" y="191" type="line" smooth="yes"/>
      <point x="95" y="91"/>
      <point x="136" y="24"/>
    </contour>
    <contour>
      <point x="242" y="96" type="curve" smooth="yes"/>
      <point x="175" y="96"/>
      <point x="172" y="155"/>
      <point x="172" y="205" type="curve" smooth="yes"/>
      <point x="172" y="260" type="line"/>
      <point x="364" y="149" type="line"/>
      <point x="330" y="118"/>
      <point x="288" y="96"/>
    </contour>
    <contour>
      <point x="440" y="187" type="line"/>
      <point x="143" y="359" type="line"/>
      <point x="172" y="315" type="line"/>
      <point x="172" y="431" type="line"/>
      <point x="206" y="384"/>
      <point x="262" y="349"/>
      <point x="363" y="349" type="curve" smooth="yes"/>
      <point x="367" y="349" type="line" smooth="yes"/>
      <point x="428" y="349"/>
      <point x="437" y="328"/>
      <point x="437" y="296" type="curve" smooth="yes"/>
      <point x="437" y="262"/>
      <point x="422" y="223"/>
      <point x="398" y="190" type="curve"/>
    </contour>
  </outline>
</glyph>
<glyph name="DaDha" format="2">
  <advance width="646"/>
  <outline>
    <contour>
      <point x="364" y="0" type="line"/>
      <point x="441" y="0" type="line"/>
      <point x="441" y="221" type="line"/>
      <point x="462" y="205"/>
      <point x="485" y="197"/>
      <point x="513" y="197" type="curve" smooth="yes"/>
      <point x="567" y="197"/>
      <point x="618" y="228"/>
      <point x="618" y="318" type="curve" smooth="yes"/>
      <point x="618" y="334"/>
      <point x="616" y="353"/>
      <point x="613" y="371" type="curve"/>
      <point x="541" y="365" type="line"/>
      <point x="542" y="357"/>
      <point x="543" y="346"/>
      <point x="543" y="329" type="curve" smooth="yes"/>
      <point x="543" y="289"/>
      <point x="525" y="266"/>
      <point x="498" y="266" type="curve" smooth="yes"/>
      <point x="475" y="266"/>
      <point x="458" y="277"/>
      <point x="441" y="306" type="curve"/>
      <point x="441" y="470" type="line"/>
      <point x="364" y="470" type="line"/>
      <point x="364" y="200" type="line" smooth="yes"/>
      <point x="364" y="167"/>
      <point x="365" y="121"/>
      <point x="367" y="97" type="curve"/>
      <point x="318" y="128"/>
      <point x="278" y="148"/>
      <point x="235" y="161" type="curve"/>
      <point x="221" y="151" type="line"/>
      <point x="296" y="168"/>
      <point x="344" y="220"/>
      <point x="344" y="299" type="curve" smooth="yes"/>
      <point x="344" y="366"/>
      <point x="293" y="427"/>
      <point x="195" y="427" type="curve" smooth="yes"/>
      <point x="182" y="427"/>
      <point x="170" y="426"/>
      <point x="159" y="424" type="curve"/>
      <point x="159" y="551" type="line"/>
      <point x="656" y="551" type="line"/>
      <point x="656" y="622" type="line"/>
      <point x="-10" y="622" type="line"/>
      <point x="-10" y="551" type="line"/>
      <point x="82" y="551" type="line"/>
      <point x="82" y="390" type="line"/>
      <point x="73" y="381"/>
      <point x="65" y="371"/>
      <point x="59" y="360" type="curve"/>
      <point x="102" y="319" type="line"/>
      <point x="115" y="330"/>
      <point x="147" y="357"/>
      <point x="193" y="357" type="curve" smooth="yes"/>
      <point x="244" y="357"/>
      <point x="263" y="324"/>
      <point x="263" y="294" type="curve" smooth="yes"/>
      <point x="263" y="230"/>
      <point x="195" y="191"/>
      <point x="86" y="188" type="curve"/>
      <point x="109" y="118" type="line"/>
      <point x="202" y="117"/>
      <point x="291" y="86"/>
      <point x="364" y="16" type="curve"/>
    </contour>
  </outline>
</glyph>
<glyph name="DaYa" format="2">
  <advance width="634"/>
  <outline>
    <contour>
      <point x="307" y="0" type="curve" smooth="yes"/>
      <point x="470" y="0"/>
      <point x="560" y="105"/>
      <point x="560" y="247" type="curve" smooth="yes"/>
      <point x="560" y="551" type="line"/>
      <point x="643" y="551" type="line"/>
      <point x="643" y="622" type="line"/>
      <point x="-10" y="622" type="line"/>
      <point x="-10" y="551" type="line"/>
      <point x="151" y="551" type="line"/>
      <point x="91" y="519"/>
      <point x="36" y="440"/>
      <point x="36" y="356" type="curve" smooth="yes"/>
      <point x="36" y="291"/>
      <point x="70" y="235"/>
      <point x="151" y="235" type="curve" smooth="yes"/>
      <point x="233" y="235"/>
      <point x="274" y="301"/>
      <point x="302" y="362" type="curve"/>
      <point x="314" y="339"/>
      <point x="321" y="314"/>
      <point x="321" y="285" type="curve" smooth="yes"/>
      <point x="321" y="215"/>
      <point x="268" y="173"/>
      <point x="175" y="173" type="curve" smooth="yes"/>
      <point x="165" y="173"/>
      <point x="135" y="174"/>
      <point x="126" y="175" type="curve"/>
      <point x="112" y="102" type="line"/>
      <point x="167" y="20"/>
      <point x="230" y="0"/>
    </contour>
    <contour>
      <point x="306" y="74" type="curve" smooth="yes"/>
      <point x="270" y="74"/>
      <point x="235" y="83"/>
      <point x="205" y="103" type="curve"/>
      <point x="326" y="113"/>
      <point x="396" y="185"/>
      <point x="396" y="283" type="curve" smooth="yes"/>
      <point x="396" y="341"/>
      <point x="371" y="394"/>
      <point x="331" y="449" type="curve"/>
      <point x="268" y="440" type="line"/>
      <point x="237" y="360"/>
      <point x="194" y="305"/>
      <point x="160" y="305" type="curve" smooth="yes"/>
      <point x="119" y="305"/>
      <point x="111" y="340"/>
      <point x="111" y="376" type="curve" smooth="yes"/>
      <point x="111" y="455"/>
      <point x="192" y="530"/>
      <point x="255" y="551" type="curve"/>
      <point x="483" y="551" type="line"/>
      <point x="483" y="244" type="line" smooth="yes"/>
      <point x="483" y="155"/>
      <point x="446" y="74"/>
    </contour>
  </outline>
</glyph>
<glyph name="Dbhu" format="2">
  <advance width="701"/>
  <outline>
    <contour>
      <point x="427" y="-203" type="curve" smooth="yes"/>
      <point x="599" y="-203"/>
      <point x="688" y="-111"/>
      <point x="688" y="-43" type="curve" smooth="yes"/>
      <point x="688" y="4"/>
      <point x="669" y="36"/>
      <point x="639" y="57" type="curve"/>
      <point x="662" y="81"/>
      <point x="678" y="115"/>
      <point x="678" y="160" type="curve" smooth="yes"/>
      <point x="678" y="247"/>
      <point x="591" y="290"/>
      <point x="536" y="291" type="curve"/>
      <point x="528" y="279"/>
      <point x="518" y="265"/>
      <point x="508" y="252" type="curve" smooth="yes"/>
      <point x="493" y="233"/>
      <point x="468" y="204"/>
      <point x="443" y="204" type="curve" smooth="yes"/>
      <point x="433" y="204"/>
      <point x="424" y="211"/>
      <point x="424" y="237" type="curve" smooth="yes"/>
      <point x="424" y="291"/>
      <point x="472" y="332"/>
      <point x="510" y="402" type="curve"/>
      <point x="445" y="466" type="line"/>
      <point x="319" y="415"/>
      <point x="240" y="367"/>
      <point x="159" y="288" type="curve"/>
      <point x="159" y="551" type="line"/>
      <point x="613" y="551" type="line"/>
      <point x="613" y="622" type="line"/>
      <point x="-10" y="622" type="line"/>
      <point x="-10" y="551" type="line"/>
      <point x="82" y="551" type="line"/>
      <point x="82" y="215" type="line"/>
      <point x="141" y="175" type="line"/>
      <point x="244" y="277"/>
      <point x="308" y="330"/>
      <point x="415" y="376" type="curve"/>
      <point x="387" y="333"/>
      <point x="359" y="281"/>
      <point x="359" y="227" type="curve" smooth="yes"/>
      <point x="359" y="158"/>
      <point x="399" y="132"/>
      <point x="437" y="132" type="curve" smooth="yes"/>
      <point x="492" y="132"/>
      <point x="541" y="183"/>
      <point x="558" y="209" type="curve"/>
      <point x="582" y="205"/>
      <point x="599" y="182"/>
      <point x="599" y="148" type="curve" smooth="yes"/>
      <point x="599" y="112"/>
      <point x="572" y="84"/>
      <point x="500" y="68" type="curve"/>
      <point x="514" y="1" type="line"/>
      <point x="535" y="4"/>
      <point x="557" y="9"/>
      <point x="578" y="18" type="curve"/>
      <point x="599" y="7"/>
      <point x="608" y="-9"/>
      <point x="608" y="-30" type="curve" smooth="yes"/>
      <point x="608" y="-83"/>
      <point x="536" y="-127"/>
      <point x="429" y="-127" type="curve" smooth="yes"/>
      <point x="320" y="-127"/>
      <point x="249" y="-66"/>
      <point x="194" y="41" type="curve"/>
      <point x="139" y="-10" type="line"/>
      <point x="217" y="-153"/>
      <point x="314" y="-203"/>
    </contour>
  </outline>
</glyph>
<glyph name="Dhru" format="2">
  <advance width="856"/>
  <outline>
    <contour>
      <point x="496" y="356" type="curve"/>
      <point x="494" y="277" type="line"/>
      <point x="518" y="254"/>
      <point x="595" y="230"/>
      <point x="659" y="230" type="curve" smooth="yes"/>
      <point x="746" y="230"/>
      <point x="816" y="275"/>
      <point x="816" y="348" type="curve" smooth="yes"/>
      <point x="816" y="402"/>
      <point x="772" y="445"/>
      <point x="721" y="445" type="curve" smooth="yes"/>
      <point x="664" y="445"/>
      <point x="618" y="410"/>
      <point x="611" y="366" type="curve"/>
      <point x="674" y="355" type="line"/>
      <point x="679" y="369"/>
      <point x="688" y="383"/>
      <point x="707" y="383" type="curve" smooth="yes"/>
      <point x="725" y="383"/>
      <point x="740" y="369"/>
      <point x="740" y="348" type="curve" smooth="yes"/>
      <point x="740" y="315"/>
      <point x="716" y="292"/>
      <point x="650" y="292" type="curve" smooth="yes"/>
      <point x="611" y="292"/>
      <point x="539" y="311"/>
    </contour>
    <contour>
      <point x="425" y="0" type="curve"/>
      <point x="501" y="0" type="line"/>
      <point x="501" y="551" type="line"/>
      <point x="606" y="551" type="line"/>
      <point x="606" y="622" type="line"/>
      <point x="424" y="622" type="line"/>
      <point x="424" y="517" type="line"/>
      <point x="360" y="497"/>
      <point x="299" y="473"/>
      <point x="239" y="446" type="curve"/>
      <point x="202" y="465"/>
      <point x="188" y="483"/>
      <point x="188" y="509" type="curve" smooth="yes"/>
      <point x="188" y="536"/>
      <point x="211" y="554"/>
      <point x="251" y="554" type="curve" smooth="yes"/>
      <point x="268" y="554"/>
      <point x="279" y="553"/>
      <point x="287" y="552" type="curve"/>
      <point x="293" y="624" type="line"/>
      <point x="275" y="627"/>
      <point x="256" y="629"/>
      <point x="240" y="629" type="curve" smooth="yes"/>
      <point x="150" y="629"/>
      <point x="109" y="578"/>
      <point x="109" y="524" type="curve" smooth="yes"/>
      <point x="109" y="478"/>
      <point x="132" y="444"/>
      <point x="172" y="414" type="curve"/>
      <point x="126" y="391"/>
      <point x="81" y="365"/>
      <point x="37" y="339" type="curve"/>
      <point x="76" y="243" type="line"/>
      <point x="230" y="218"/>
      <point x="364" y="119"/>
    </contour>
    <contour>
      <point x="427" y="108" type="curve"/>
      <point x="365" y="213"/>
      <point x="232" y="281"/>
      <point x="130" y="304" type="curve"/>
      <point x="219" y="358"/>
      <point x="327" y="406"/>
      <point x="424" y="439" type="curve"/>
      <point x="424" y="189" type="line" smooth="yes"/>
      <point x="424" y="156"/>
      <point x="425" y="132"/>
    </contour>
    <contour>
      <point x="70" y="37" type="curve"/>
      <point x="3" y="-12" type="line"/>
      <point x="50" y="-58"/>
      <point x="119" y="-80"/>
      <point x="188" y="-80" type="curve" smooth="yes"/>
      <point x="246" y="-80"/>
      <point x="278" y="-64"/>
      <point x="326" y="-64" type="curve" smooth="yes"/>
      <point x="393" y="-64"/>
      <point x="417" y="-95"/>
      <point x="446" y="-149" type="curve"/>
      <point x="501" y="-149" type="line"/>
      <point x="501" y="50" type="line"/>
      <point x="424" y="50" type="line"/>
      <point x="424" y="-24" type="line"/>
      <point x="390" y="-2"/>
      <point x="359" y="11"/>
      <point x="317" y="11" type="curve" smooth="yes"/>
      <point x="270" y="11"/>
      <point x="238" y="-6"/>
      <point x="190" y="-6" type="curve" smooth="yes"/>
      <point x="134" y="-6"/>
      <point x="95" y="17"/>
    </contour>
  </outline>
</glyph>
